<?xml version="1.0" standalone="no"?>
<!DOCTYPE svg PUBLIC "-//W3C//DTD SVG 1.1//EN" "http://www.w3.org/Graphics/SVG/1.1/DTD/svg11.dtd" >
<svg xmlns="http://www.w3.org/2000/svg" xmlns:xlink="http://www.w3.org/1999/xlink" version="1.1">
<metadata>
Created by FontForge 20170731 at Sun Jul  2 20:42:08 2023
 By Aleksey,,,
Copyright (c) 2013 by Adrian Candela. All rights reserved.
</metadata>
<defs>
<font id="ComicRunes" horiz-adv-x="456" >
  <font-face 
    font-family="Comic Runes"
    font-weight="400"
    font-stretch="normal"
    units-per-em="2048"
    panose-1="0 0 0 0 0 0 0 0 0 0"
    ascent="2038"
    descent="-10"
    x-height="1638"
    cap-height="1638"
    bbox="-1.23529 -305 860 1640"
    underline-thickness="102"
    underline-position="-304"
    unicode-range="U+0002-201D"
  />
<missing-glyph 
 />
    <glyph glyph-name=".notdef" 
 />
    <glyph glyph-name=".null" horiz-adv-x="0" 
 />
    <glyph glyph-name="nonmarkingreturn" horiz-adv-x="682" 
 />
    <glyph glyph-name="NULL" 
 />
    <glyph glyph-name="NULL" 
 />
    <glyph glyph-name="uni0002" 
 />
    <glyph glyph-name="uni0009" unicode="&#x9;" 
 />
    <glyph glyph-name="uni000A" unicode="&#xa;" 
 />
    <glyph glyph-name="CR" unicode="&#xd;" 
 />
    <glyph glyph-name="space" unicode=" " 
 />
    <glyph glyph-name="exclam" unicode="!" horiz-adv-x="448" 
d="M373 66q0 -31 -21.5 -51.5t-52.5 -20.5t-53.5 21t-22.5 51q0 31 22.5 53t53.5 22t52.5 -22t21.5 -53zM299 365q-31 0 -53.5 21.5t-22.5 51.5v1118q0 31 22.5 52.5t53.5 21.5t52.5 -21.5t21.5 -52.5v-1118q0 -31 -21.5 -52t-52.5 -21z" />
    <glyph glyph-name="quotedbl" unicode="&#x22;" 
 />
    <glyph glyph-name="numbersign" unicode="#" 
 />
    <glyph glyph-name="dollar" unicode="$" 
 />
    <glyph glyph-name="percent" unicode="%" 
 />
    <glyph glyph-name="ampersand" unicode="&#x26;" 
 />
    <glyph glyph-name="quotesingle" unicode="'" 
 />
    <glyph glyph-name="parenleft" unicode="(" 
 />
    <glyph glyph-name="parenright" unicode=")" 
 />
    <glyph glyph-name="asterisk" unicode="*" 
 />
    <glyph glyph-name="plus" unicode="+" 
 />
    <glyph glyph-name="comma" unicode="," horiz-adv-x="493" 
d="M61 -305q-20 0 -41 14q-19 17 -21 42.5t13 47.5l252 314q17 22 42.5 24.5t45.5 -14.5q22 -17 24.5 -42.5t-14.5 -45.5l-251 -316q-18 -24 -50 -24z" />
    <glyph glyph-name="hyphen" unicode="-" 
 />
    <glyph glyph-name="period" unicode="." horiz-adv-x="489" 
d="M373 66q0 -31 -21.5 -51.5t-52.5 -20.5t-53.5 21t-22.5 51q0 31 22.5 53t53.5 22t52.5 -22t21.5 -53z" />
    <glyph glyph-name="slash" unicode="/" 
 />
    <glyph glyph-name="zero" unicode="0" horiz-adv-x="901" 
d="M860 817q0 -34 -16 -55l-316 -410q-26 -33 -65 -33q-35 0 -64 29l-340 410q-18 24 -18 53t18 53l340 408q28 31 64 31q40 0 65 -31l314 -398q18 -21 18 -51v-6zM461 532l219 285l-219 275l-232 -281z" />
    <glyph glyph-name="one" unicode="1" horiz-adv-x="901" 
d="M748 1630q31 0 53 -21.5t22 -52.5v-1490q0 -29 -22 -50.5t-53 -21.5q-29 0 -51.5 21.5t-22.5 50.5v1277l-463 -579q-24 -27 -57 -27q-31 0 -53.5 21.5t-22.5 52.5q0 25 16 47l596 744q22 28 58 28z" />
    <glyph glyph-name="two" unicode="2" horiz-adv-x="901" 
d="M276 141h472q31 0 53 -22t22 -53q0 -29 -22 -50.5t-53 -21.5q-66 0 -187 -1.5t-220 -1.5t-187 3q-32 2 -54 22t-22 50q0 16 10 36l571 1074l-208 260l-240 -299q-25 -29 -57 -29q-31 0 -53.5 22.5t-22.5 53.5q0 25 16 47l299 371q22 28 58 28q37 0 59 -28l297 -371
q16 -22 16 -49q0 -18 -10 -35z" />
    <glyph glyph-name="three" unicode="3" horiz-adv-x="901" 
d="M823 811q0 -25 -16 -47l-596 -744q-20 -26 -57 -26q-31 0 -53.5 21.5t-22.5 50.5q0 28 16 47l500 624h-440q-31 0 -53.5 21.5t-22.5 52.5q0 25 16 47l500 623h-440q-31 0 -53.5 22t-22.5 53q0 29 22.5 51.5t53.5 22.5h594q31 0 53 -21.5t22 -52.5q0 -28 -16 -47
l-500 -624h441q31 0 53 -21.5t22 -52.5z" />
    <glyph glyph-name="four" unicode="4" horiz-adv-x="901" 
d="M748 1630q31 0 53 -21.5t22 -52.5v-1490q0 -29 -22 -50.5t-53 -21.5q-29 0 -51.5 21.5t-22.5 50.5v671h-520q-31 0 -53.5 21.5t-22.5 52.5q0 25 16 47l596 744q22 28 58 28zM307 885h367v458z" />
    <glyph glyph-name="five" unicode="5" horiz-adv-x="901" 
d="M227 1257h523q30 0 51.5 -21.5t21.5 -51.5v-746q0 -25 -16 -47l-297 -371q-20 -26 -59 -26q-38 0 -58 26l-299 371q-16 22 -16 47q0 31 22.5 53.5t51.5 22.5q34 0 59 -29l240 -299l223 279v643h-520q-31 0 -53.5 22.5t-22.5 53.5v372q0 30 21.5 51t52.5 23q88 3 188 3
t221.5 -1.5t186.5 -1.5q30 0 52.5 -22t22.5 -52q0 -31 -22 -53t-53 -22h-521v-224z" />
    <glyph glyph-name="six" unicode="6" horiz-adv-x="901" 
d="M823 811q0 -17 -6 -29l-297 -743q-19 -45 -69 -45q-51 0 -70 45l-297 743q-6 12 -6 29t6 29l299 743q7 21 26.5 34t41.5 13q31 0 53 -22t22 -52q0 -13 -23 -77t-61.5 -159t-71 -174.5t-69.5 -167t-39 -93.5h486q31 0 53 -21t22 -53zM451 266l188 471h-377z" />
    <glyph glyph-name="seven" unicode="7" horiz-adv-x="901" 
d="M823 1556q0 -15 -6 -30l-596 -1487q-16 -45 -67 -45q-31 0 -53.5 21.5t-22.5 50.5q0 13 52 149t132 335.5t156 386.5t144.5 355.5t76.5 188.5h-485q-31 0 -53.5 22t-22.5 53q0 29 22.5 51.5t53.5 22.5q66 0 187 1t220 1t187 -2q31 -2 53 -23t22 -51z" />
    <glyph glyph-name="eight" unicode="8" horiz-adv-x="901" 
d="M451 1436l-203 -252l203 -254l202 254zM451 692l-203 -254l203 -252l202 252zM451 -6q-38 0 -58 26l-299 371q-15 22 -15 48t15 46l260 326l-260 326q-15 20 -15 46t15 48l299 371q22 28 58 28q35 0 57 -28l299 -371q15 -22 15 -48t-15 -46l-260 -326l260 -326
q15 -20 15 -46t-15 -48l-299 -371q-20 -26 -57 -26z" />
    <glyph glyph-name="nine" unicode="9" horiz-adv-x="901" 
d="M823 811q0 -14 -6 -29l-297 -743q-19 -45 -69 -45q-31 0 -52.5 21.5t-21.5 50.5q0 10 12.5 47t34 93.5t45.5 117t53 131.5t50 121.5t42.5 101.5t24.5 59h-485q-31 0 -53.5 21t-22.5 53q0 17 6 29l297 743q7 20 26.5 33.5t41.5 13.5q23 0 42.5 -12.5t28.5 -34.5l297 -743
q6 -15 6 -29zM451 1356l-189 -471h377z" />
    <glyph glyph-name="colon" unicode=":" 
 />
    <glyph glyph-name="semicolon" unicode=";" 
 />
    <glyph glyph-name="less" unicode="&#x3c;" 
 />
    <glyph glyph-name="equal" unicode="=" 
 />
    <glyph glyph-name="greater" unicode="&#x3e;" 
 />
    <glyph glyph-name="question" unicode="?" horiz-adv-x="794" 
d="M745 1184q0 -29 -18 -47l-281 -353v-346q0 -31 -21 -52t-52 -21t-53.5 21.5t-22.5 51.5v373q0 25 16 47l262 326l-202 252l-240 -299q-23 -29 -59 -29q-29 0 -51.5 22.5t-22.5 53.5q0 25 16 47l299 371q22 28 58 28q37 0 59 -28l295 -371q18 -21 18 -47zM299 66
q0 -29 21.5 -50.5t52.5 -21.5t53.5 21.5t22.5 50.5q0 31 -22.5 53t-53.5 22t-52.5 -22t-21.5 -53z" />
    <glyph glyph-name="at" unicode="@" horiz-adv-x="808" 
d="M745 1184v-746q0 -25 -16 -47l-297 -371q-20 -26 -59 -26q-38 0 -58 26l-299 371q-16 22 -16 47q0 28 16 47l297 373q24 27 60 27q33 0 57 -27l166 -207v506l-223 279l-223 -279v-346q0 -31 -22.5 -52.5t-53.5 -21.5q-30 0 -52 22t-22 52v373q0 25 16 47l297 371
q22 28 60 28q35 0 57 -28l299 -371q16 -22 16 -47zM373 186l202 252l-202 254l-203 -254z" />
    <glyph glyph-name="A" unicode="A" horiz-adv-x="882" 
d="M242 1384v-274l444 -444v274zM219 1616l594 -594q23 -20 23 -51v-897q0 -31 -21.5 -52.5t-52.5 -21.5q-32 0 -54 21.5t-22 52.5v381l-444 444v-825q0 -31 -21.5 -52.5t-52.5 -21.5t-53.5 21.5t-22.5 52.5v1491q0 22 13 41t34 26q20 9 42.5 5t37.5 -21z" />
    <glyph glyph-name="B" unicode="B" horiz-adv-x="886" 
d="M621 442l-377 236v-471zM623 1182l-379 248v-486zM834 442q0 -40 -35 -61l-590 -371q-12 -6 -39 -10q-30 -1 -52 21.5t-22 52.5q-4 0 -2 368l2 369v754q0 31 21.5 52t52.5 21q24 0 39 -12l590 -383q35 -21 35 -61q0 -43 -35 -64l-490 -307l490 -305q35 -21 35 -64z" />
    <glyph glyph-name="C" unicode="C" horiz-adv-x="872" 
d="M821 1518l-559 -699l559 -698q17 -20 17 -47q0 -29 -22.5 -51.5t-51.5 -22.5q-36 0 -59 29l-594 743q-19 19 -19 47t19 47l594 744q22 28 59 28q29 0 51.5 -22t22.5 -51q0 -27 -17 -47z" />
    <glyph glyph-name="D" unicode="D" horiz-adv-x="858" 
d="M668 811l-426 532v-1064zM168 -6q-9 0 -25 4q-23 6 -37 25.5t-14 44.5v1488q0 24 14 43.5t37 26.5q21 8 44 2t38 -26l596 -744q17 -20 17 -46t-17 -48l-596 -744q-20 -26 -57 -26z" />
    <glyph glyph-name="E" unicode="E" horiz-adv-x="880" 
d="M764 745h-442l499 -624q17 -20 17 -47q0 -29 -22.5 -51.5t-51.5 -22.5q-36 0 -59 29l-594 743q-19 19 -19 47t19 47l594 744q22 28 59 28q29 0 51.5 -22t22.5 -51q0 -27 -17 -47l-499 -625h442q30 0 52 -22t22 -52t-22 -52t-52 -22z" />
    <glyph glyph-name="F" unicode="F" horiz-adv-x="854" 
d="M242 1384v-274l571 -571q23 -23 23 -54t-21.5 -52t-52.5 -21q-33 0 -53 20l-467 467v-825q0 -31 -21.5 -52.5t-52.5 -21.5t-53.5 21.5t-22.5 52.5v1491q0 30 22.5 51.5t53.5 21.5q32 0 51 -22l594 -594q23 -20 23 -51t-21.5 -53.5t-52.5 -22.5q-30 0 -53 23z" />
    <glyph glyph-name="G" unicode="G" horiz-adv-x="905" 
d="M838 819v-745q0 -30 -22 -51t-52 -23q-36 0 -59 29l-594 743q-19 19 -19 47t19 47l594 744q22 28 59 28q29 0 51.5 -22t22.5 -51q0 -27 -17 -47l-559 -699l426 -532v532q0 31 22.5 52.5t53.5 21.5q30 0 52 -22t22 -52z" />
    <glyph glyph-name="H" unicode="H" horiz-adv-x="917" 
d="M242 1116v-223h446v223h-446zM764 1638q31 0 52.5 -21t21.5 -52v-1491q0 -31 -21.5 -52.5t-52.5 -21.5q-32 0 -54 21.5t-22 52.5v671h-446v-671q0 -31 -21.5 -52.5t-52.5 -21.5t-53.5 21.5t-22.5 52.5v1491q0 30 22.5 51.5t53.5 21.5t52.5 -21t21.5 -52v-299h446v299
q0 31 22 52t54 21z" />
    <glyph glyph-name="I" unicode="I" horiz-adv-x="886" 
d="M764 522q31 0 52.5 -22.5t21.5 -53.5q0 -23 -17 -47l-297 -370q-23 -29 -59 -29q-32 2 -53 22t-21 52v1278l-166 -207q-23 -29 -57 -29q-31 0 -53.5 22.5t-22.5 53.5q0 23 17 47l299 371q22 28 59 28q29 0 51.5 -22t22.5 -51v-1278l164 207q25 28 59 28z" />
    <glyph glyph-name="J" unicode="J" horiz-adv-x="917" 
d="M838 1565v-1491q0 -30 -22 -51t-52 -23q-36 0 -59 29l-596 743q-17 24 -17 47q0 31 22.5 52.5t53.5 21.5q33 0 57 -27l463 -579v1278q0 30 22.5 51.5t53.5 21.5t52.5 -21t21.5 -52z" />
    <glyph glyph-name="K" unicode="K" horiz-adv-x="872" 
d="M821 1518l-559 -699l559 -698q20 -25 16.5 -55t-28.5 -50q-19 -16 -45 -16q-36 0 -59 29l-463 577v-532q0 -31 -21.5 -52.5t-52.5 -21.5t-53.5 21.5t-22.5 52.5v1491q0 30 22.5 51.5t53.5 21.5t52.5 -21t21.5 -52v-533l463 578q20 25 50.5 28.5t53.5 -16.5
q25 -20 28.5 -49.5t-16.5 -54.5z" />
    <glyph glyph-name="L" unicode="L" horiz-adv-x="833" 
d="M764 893q31 0 52.5 -21.5t21.5 -52.5q0 -23 -17 -47l-596 -743q-23 -29 -57 -29q-31 2 -53.5 23t-22.5 51v1491q0 30 22.5 51.5t53.5 21.5t52.5 -21t21.5 -52v-1278l463 579q24 27 59 27z" />
    <glyph glyph-name="M" unicode="M" horiz-adv-x="917" 
d="M688 1352l-127 -160l127 -160v320zM242 1352v-320l129 160zM764 1638q30 0 52 -21.5t22 -51.5v-1491q0 -31 -21.5 -52.5t-52.5 -21.5t-53.5 21.5t-22.5 52.5v719l-223 280l-223 -280v-719q0 -31 -21.5 -52.5t-52.5 -21.5t-53.5 21.5t-22.5 52.5v1491q0 30 22.5 51.5
t53.5 21.5q35 0 57 -28l240 -299l240 299q22 28 59 28z" />
    <glyph glyph-name="N" unicode="N" horiz-adv-x="911" 
d="M684 786l-442 566v-512l442 -555v501zM831 1552v-1478q0 -32 -21 -52t-52 -22q-35 0 -58 29l-458 573v-528q0 -31 -22.5 -52.5t-53.5 -21.5q-30 0 -52 22t-22 52v1489q0 31 21.5 53t52.5 22q37 0 59 -28l459 -584v526q0 31 21.5 52.5t52.5 21.5t52 -21.5t21 -52.5z" />
    <glyph glyph-name="O" unicode="O" horiz-adv-x="886" 
d="M248 819l217 -545l217 545l-217 545zM838 819q0 -12 -7 -26l-296 -746q-7 -21 -26.5 -34t-41.5 -13q-24 0 -43.5 13t-26.5 34l-299 744q-6 15 -6 28q0 14 6 29l297 743q9 22 28 34.5t42 12.5t42 -12.5t28 -34.5l296 -743q7 -17 7 -29z" />
    <glyph glyph-name="P" unicode="P" horiz-adv-x="851" 
d="M621 1186l-379 244v-482zM834 1186q0 -43 -37 -66l-555 -348v-698q0 -31 -22.5 -52.5t-53.5 -21.5q-30 0 -52 22t-22 52v1493q0 29 22.5 50t53.5 21q21 0 39 -12l592 -379q35 -25 35 -61z" />
    <glyph glyph-name="Q" unicode="Q" horiz-adv-x="894" 
d="M248 819l217 -545l70 172q-2 4 -23 54t-38 91t-38 93t-33 87.5t-12 47.5q0 31 21.5 52.5t52.5 21.5q50 0 70 -45l79 -201l68 172l-217 545zM831 791l-137 -345q2 -5 23 -54t38.5 -90.5t38 -93t32.5 -87t12 -47.5q0 -31 -21.5 -52.5t-52.5 -21.5q-24 0 -43.5 13t-26.5 34
l-80 199l-79 -199q-9 -22 -28 -34.5t-42 -12.5t-42 12.5t-28 34.5l-297 744q-6 15 -6 28q0 14 6 29l299 743q7 21 26.5 34t41.5 13q24 0 43.5 -13t26.5 -34l296 -745q7 -14 7 -27q0 -11 -7 -28z" />
    <glyph glyph-name="R" unicode="R" horiz-adv-x="868" 
d="M621 1186l-379 244v-482zM797 1120l-521 -325l541 -674q17 -24 17 -47q0 -30 -22 -52t-52 -22q-37 0 -60 29l-458 575v-530q0 -31 -22.5 -52.5t-53.5 -21.5q-30 0 -52 22t-22 52v1493q0 29 22 50t52 21q23 0 41 -12l592 -379q35 -25 35 -61q0 -43 -37 -66z" />
    <glyph glyph-name="S" unicode="S" horiz-adv-x="866" 
d="M834 815q0 -23 -17 -47l-592 -739q-23 -29 -59 -29q-30 0 -52 22t-22 52q0 23 17 47l497 620h-434q-33 0 -56.5 20.5t-23.5 53.5q0 23 17 47l593 748q19 28 58 28q31 0 52.5 -21t21.5 -52q0 -23 -17 -47l-498 -629h441q31 0 52.5 -21.5t21.5 -52.5z" />
    <glyph glyph-name="T" unicode="T" horiz-adv-x="860" 
d="M465 1638q37 0 59 -28l297 -371q17 -24 17 -47q0 -31 -21.5 -53.5t-52.5 -22.5q-34 0 -59 29l-164 207v-1278q0 -31 -21.5 -52.5t-52.5 -21.5t-53.5 21.5t-22.5 52.5v1278l-166 -207q-25 -29 -57 -29q-31 0 -53.5 22.5t-22.5 53.5q0 23 17 47l299 371q22 28 57 28z" />
    <glyph glyph-name="U" unicode="U" horiz-adv-x="903" 
d="M838 1565v-1119q0 -40 -37 -63l-594 -371q-12 -8 -39 -12q-30 -1 -53 22t-23 52v1491q0 30 22.5 51.5t53.5 21.5t52.5 -21t21.5 -52v-1356l446 278v1078q0 30 22.5 51.5t53.5 21.5t52.5 -21t21.5 -52z" />
    <glyph glyph-name="V" unicode="V" horiz-adv-x="899" 
d="M838 1565q0 -11 -2 -17l-297 -1487q-6 -26 -27 -43.5t-47 -17.5t-47 17.5t-27 43.5l-297 1487q0 3 -1 8.5t-1 8.5q0 30 22.5 51.5t53.5 21.5q27 0 47.5 -16.5t24.5 -42.5l225 -1124l225 1124q4 26 25 42.5t49 16.5q31 0 52.5 -21t21.5 -52z" />
    <glyph glyph-name="W" unicode="W" horiz-adv-x="917" 
d="M688 420l-223 280l-223 -280v-133l166 207q24 28 57 28q34 0 59 -28l164 -207v133zM838 1565v-1491q0 -31 -22 -51.5t-52 -22.5q-36 0 -59 29l-240 299l-240 -299q-23 -29 -57 -29q-32 2 -54 22.5t-22 51.5v1491q0 29 22.5 51t53.5 22q29 0 51.5 -22t22.5 -51v-906
l166 207q24 27 57 27q35 0 59 -27l164 -207v906q0 29 22.5 51t53.5 22q29 0 51.5 -22t22.5 -51z" />
    <glyph glyph-name="X" unicode="X" horiz-adv-x="884" 
d="M545 819q6 -15 42.5 -103t75.5 -184t80.5 -199t68 -175t26.5 -84q0 -31 -21.5 -52.5t-52.5 -21.5q-24 0 -43.5 13t-26.5 34l-229 571l-229 -571q-7 -21 -26.5 -34t-41.5 -13q-31 0 -53.5 21.5t-22.5 52.5q0 12 26.5 84t68 175t80.5 199t75.5 184t42.5 103
q-6 14 -42.5 103t-75.5 184.5t-80.5 199t-68 175.5t-26.5 84q0 30 22.5 51.5t53.5 21.5q22 0 41.5 -13t26.5 -34l229 -571l229 571q7 21 26.5 34t43.5 13q31 0 52.5 -21t21.5 -52q0 -12 -26.5 -84t-68 -175.5t-80.5 -199t-75.5 -184.5t-42.5 -103z" />
    <glyph glyph-name="Y" unicode="Y" horiz-adv-x="872" 
d="M791 1632q29 -10 40.5 -38.5t-0.5 -57.5l-290 -731v-731q0 -31 -22.5 -52.5t-53.5 -21.5t-52.5 21.5t-21.5 52.5v731l-293 731q-12 29 0.5 57t40.5 39q29 12 58 0t39 -41l155 -385v359q0 31 21.5 52t52.5 21t53.5 -21.5t22.5 -51.5v-359l153 385q10 29 39 41t58 0z" />
    <glyph glyph-name="Z" unicode="Z" horiz-adv-x="868" 
d="M838 1565q0 -13 -7 -31l-555 -1384h488q31 0 52.5 -22.5t21.5 -53.5t-21.5 -52.5t-52.5 -21.5h-596q-34 3 -55 22t-21 52q0 15 6 30l555 1385h-485q-31 0 -53.5 22.5t-22.5 53.5q0 30 22.5 51.5t53.5 21.5q65 0 186.5 1t221.5 1t188 -2q30 -2 52 -22.5t22 -50.5z" />
    <glyph glyph-name="bracketleft" unicode="[" 
 />
    <glyph glyph-name="backslash" unicode="\" 
 />
    <glyph glyph-name="bracketright" unicode="]" 
 />
    <glyph glyph-name="asciicircum" unicode="^" 
 />
    <glyph glyph-name="underscore" unicode="_" 
 />
    <glyph glyph-name="grave" unicode="`" 
 />
    <glyph glyph-name="a" unicode="a" horiz-adv-x="882" 
d="M242 1384v-274l444 -444v274zM219 1616l594 -594q23 -20 23 -51v-897q0 -31 -21.5 -52.5t-52.5 -21.5q-32 0 -54 21.5t-22 52.5v381l-444 444v-825q0 -31 -21.5 -52.5t-52.5 -21.5t-53.5 21.5t-22.5 52.5v1491q0 22 13 41t34 26q20 9 42.5 5t37.5 -21z" />
    <glyph glyph-name="b" unicode="b" horiz-adv-x="886" 
d="M621 442l-377 236v-471zM623 1182l-379 248v-486zM834 442q0 -40 -35 -61l-590 -371q-12 -6 -39 -10q-30 -1 -52 21.5t-22 52.5q-4 0 -2 368l2 369v754q0 31 21.5 52t52.5 21q24 0 39 -12l590 -383q35 -21 35 -61q0 -43 -35 -64l-490 -307l490 -305q35 -21 35 -64z" />
    <glyph glyph-name="c" unicode="c" horiz-adv-x="872" 
d="M821 1518l-559 -699l559 -698q17 -20 17 -47q0 -29 -22.5 -51.5t-51.5 -22.5q-36 0 -59 29l-594 743q-19 19 -19 47t19 47l594 744q22 28 59 28q29 0 51.5 -22t22.5 -51q0 -27 -17 -47z" />
    <glyph glyph-name="d" unicode="d" horiz-adv-x="858" 
d="M668 811l-426 532v-1064zM168 -6q-9 0 -25 4q-23 6 -37 25.5t-14 44.5v1488q0 24 14 43.5t37 26.5q21 8 44 2t38 -26l596 -744q17 -20 17 -46t-17 -48l-596 -744q-20 -26 -57 -26z" />
    <glyph glyph-name="e" unicode="e" horiz-adv-x="880" 
d="M764 745h-442l499 -624q17 -20 17 -47q0 -29 -22.5 -51.5t-51.5 -22.5q-36 0 -59 29l-594 743q-19 19 -19 47t19 47l594 744q22 28 59 28q29 0 51.5 -22t22.5 -51q0 -27 -17 -47l-499 -625h442q30 0 52 -22t22 -52t-22 -52t-52 -22z" />
    <glyph glyph-name="f" unicode="f" horiz-adv-x="854" 
d="M242 1384v-274l571 -571q23 -23 23 -54t-21.5 -52t-52.5 -21q-33 0 -53 20l-467 467v-825q0 -31 -21.5 -52.5t-52.5 -21.5t-53.5 21.5t-22.5 52.5v1491q0 30 22.5 51.5t53.5 21.5q32 0 51 -22l594 -594q23 -20 23 -51t-21.5 -53.5t-52.5 -22.5q-30 0 -53 23z" />
    <glyph glyph-name="g" unicode="g" horiz-adv-x="905" 
d="M838 819v-745q0 -30 -22 -51t-52 -23q-36 0 -59 29l-594 743q-19 19 -19 47t19 47l594 744q22 28 59 28q29 0 51.5 -22t22.5 -51q0 -27 -17 -47l-559 -699l426 -532v532q0 31 22.5 52.5t53.5 21.5q30 0 52 -22t22 -52z" />
    <glyph glyph-name="h" unicode="h" horiz-adv-x="917" 
d="M242 1116v-223h446v223h-446zM764 1638q31 0 52.5 -21t21.5 -52v-1491q0 -31 -21.5 -52.5t-52.5 -21.5q-32 0 -54 21.5t-22 52.5v671h-446v-671q0 -31 -21.5 -52.5t-52.5 -21.5t-53.5 21.5t-22.5 52.5v1491q0 30 22.5 51.5t53.5 21.5t52.5 -21t21.5 -52v-299h446v299
q0 31 22 52t54 21z" />
    <glyph glyph-name="i" unicode="i" horiz-adv-x="886" 
d="M764 522q31 0 52.5 -22.5t21.5 -53.5q0 -23 -17 -47l-297 -370q-23 -29 -59 -29q-32 2 -53 22t-21 52v1278l-166 -207q-23 -29 -57 -29q-31 0 -53.5 22.5t-22.5 53.5q0 23 17 47l299 371q22 28 59 28q29 0 51.5 -22t22.5 -51v-1278l164 207q25 28 59 28z" />
    <glyph glyph-name="j" unicode="j" horiz-adv-x="917" 
d="M838 1565v-1491q0 -30 -22 -51t-52 -23q-36 0 -59 29l-596 743q-17 24 -17 47q0 31 22.5 52.5t53.5 21.5q33 0 57 -27l463 -579v1278q0 30 22.5 51.5t53.5 21.5t52.5 -21t21.5 -52z" />
    <glyph glyph-name="k" unicode="k" horiz-adv-x="872" 
d="M821 1518l-559 -699l559 -698q20 -25 16.5 -55t-28.5 -50q-19 -16 -45 -16q-36 0 -59 29l-463 577v-532q0 -31 -21.5 -52.5t-52.5 -21.5t-53.5 21.5t-22.5 52.5v1491q0 30 22.5 51.5t53.5 21.5t52.5 -21t21.5 -52v-533l463 578q20 25 50.5 28.5t53.5 -16.5
q25 -20 28.5 -49.5t-16.5 -54.5z" />
    <glyph glyph-name="l" unicode="l" horiz-adv-x="833" 
d="M764 893q31 0 52.5 -21.5t21.5 -52.5q0 -23 -17 -47l-596 -743q-23 -29 -57 -29q-31 2 -53.5 23t-22.5 51v1491q0 30 22.5 51.5t53.5 21.5t52.5 -21t21.5 -52v-1278l463 579q24 27 59 27z" />
    <glyph glyph-name="m" unicode="m" horiz-adv-x="917" 
d="M688 1352l-127 -160l127 -160v320zM242 1352v-320l129 160zM764 1638q30 0 52 -21.5t22 -51.5v-1491q0 -31 -21.5 -52.5t-52.5 -21.5t-53.5 21.5t-22.5 52.5v719l-223 280l-223 -280v-719q0 -31 -21.5 -52.5t-52.5 -21.5t-53.5 21.5t-22.5 52.5v1491q0 30 22.5 51.5
t53.5 21.5q35 0 57 -28l240 -299l240 299q22 28 59 28z" />
    <glyph glyph-name="n" unicode="n" horiz-adv-x="911" 
d="M684 786l-442 566v-512l442 -555v501zM831 1552v-1478q0 -32 -21 -52t-52 -22q-35 0 -58 29l-458 573v-528q0 -31 -22.5 -52.5t-53.5 -21.5q-30 0 -52 22t-22 52v1489q0 31 21.5 53t52.5 22q37 0 59 -28l459 -584v526q0 31 21.5 52.5t52.5 21.5t52 -21.5t21 -52.5z" />
    <glyph glyph-name="o" unicode="o" horiz-adv-x="886" 
d="M248 819l217 -545l217 545l-217 545zM838 819q0 -12 -7 -26l-296 -746q-7 -21 -26.5 -34t-41.5 -13q-24 0 -43.5 13t-26.5 34l-299 744q-6 15 -6 28q0 14 6 29l297 743q9 22 28 34.5t42 12.5t42 -12.5t28 -34.5l296 -743q7 -17 7 -29z" />
    <glyph glyph-name="p" unicode="p" horiz-adv-x="851" 
d="M621 1186l-379 244v-482zM834 1186q0 -43 -37 -66l-555 -348v-698q0 -31 -22.5 -52.5t-53.5 -21.5q-30 0 -52 22t-22 52v1493q0 29 22.5 50t53.5 21q21 0 39 -12l592 -379q35 -25 35 -61z" />
    <glyph glyph-name="q" unicode="q" horiz-adv-x="894" 
d="M248 819l217 -545l70 172q-2 4 -23 54t-38 91t-38 93t-33 87.5t-12 47.5q0 31 21.5 52.5t52.5 21.5q50 0 70 -45l79 -201l68 172l-217 545zM831 791l-137 -345q2 -5 23 -54t38.5 -90.5t38 -93t32.5 -87t12 -47.5q0 -31 -21.5 -52.5t-52.5 -21.5q-24 0 -43.5 13t-26.5 34
l-80 199l-79 -199q-9 -22 -28 -34.5t-42 -12.5t-42 12.5t-28 34.5l-297 744q-6 15 -6 28q0 14 6 29l299 743q7 21 26.5 34t41.5 13q24 0 43.5 -13t26.5 -34l296 -745q7 -14 7 -27q0 -11 -7 -28z" />
    <glyph glyph-name="r" unicode="r" horiz-adv-x="868" 
d="M621 1186l-379 244v-482zM797 1120l-521 -325l541 -674q17 -24 17 -47q0 -30 -22 -52t-52 -22q-37 0 -60 29l-458 575v-530q0 -31 -22.5 -52.5t-53.5 -21.5q-30 0 -52 22t-22 52v1493q0 29 22 50t52 21q23 0 41 -12l592 -379q35 -25 35 -61q0 -43 -37 -66z" />
    <glyph glyph-name="s" unicode="s" horiz-adv-x="866" 
d="M834 815q0 -23 -17 -47l-592 -739q-23 -29 -59 -29q-30 0 -52 22t-22 52q0 23 17 47l497 620h-434q-33 0 -56.5 20.5t-23.5 53.5q0 23 17 47l593 748q19 28 58 28q31 0 52.5 -21t21.5 -52q0 -23 -17 -47l-498 -629h441q31 0 52.5 -21.5t21.5 -52.5z" />
    <glyph glyph-name="t" unicode="t" horiz-adv-x="892" 
d="M465 1638q37 0 59 -28l297 -371q17 -24 17 -47q0 -31 -21.5 -53.5t-52.5 -22.5q-34 0 -59 29l-164 207v-1278q0 -31 -21.5 -52.5t-52.5 -21.5t-53.5 21.5t-22.5 52.5v1278l-166 -207q-25 -29 -57 -29q-31 0 -53.5 22.5t-22.5 53.5q0 23 17 47l299 371q22 28 57 28z" />
    <glyph glyph-name="u" unicode="u" horiz-adv-x="903" 
d="M838 1565v-1119q0 -40 -37 -63l-594 -371q-12 -8 -39 -12q-30 -1 -53 22t-23 52v1491q0 30 22.5 51.5t53.5 21.5t52.5 -21t21.5 -52v-1356l446 278v1078q0 30 22.5 51.5t53.5 21.5t52.5 -21t21.5 -52z" />
    <glyph glyph-name="v" unicode="v" horiz-adv-x="899" 
d="M838 1565q0 -11 -2 -17l-297 -1487q-6 -26 -27 -43.5t-47 -17.5t-47 17.5t-27 43.5l-297 1487q0 3 -1 8.5t-1 8.5q0 30 22.5 51.5t53.5 21.5q27 0 47.5 -16.5t24.5 -42.5l225 -1124l225 1124q4 26 25 42.5t49 16.5q31 0 52.5 -21t21.5 -52z" />
    <glyph glyph-name="w" unicode="w" horiz-adv-x="917" 
d="M688 420l-223 280l-223 -280v-133l166 207q24 28 57 28q34 0 59 -28l164 -207v133zM838 1565v-1491q0 -31 -22 -51.5t-52 -22.5q-36 0 -59 29l-240 299l-240 -299q-23 -29 -57 -29q-32 2 -54 22.5t-22 51.5v1491q0 29 22.5 51t53.5 22q29 0 51.5 -22t22.5 -51v-906
l166 207q24 27 57 27q35 0 59 -27l164 -207v906q0 29 22.5 51t53.5 22q29 0 51.5 -22t22.5 -51z" />
    <glyph glyph-name="x" unicode="x" horiz-adv-x="884" 
d="M545 819q6 -15 42.5 -103t75.5 -184t80.5 -199t68 -175t26.5 -84q0 -31 -21.5 -52.5t-52.5 -21.5q-24 0 -43.5 13t-26.5 34l-229 571l-229 -571q-7 -21 -26.5 -34t-41.5 -13q-31 0 -53.5 21.5t-22.5 52.5q0 12 26.5 84t68 175t80.5 199t75.5 184t42.5 103
q-6 14 -42.5 103t-75.5 184.5t-80.5 199t-68 175.5t-26.5 84q0 30 22.5 51.5t53.5 21.5q22 0 41.5 -13t26.5 -34l229 -571l229 571q7 21 26.5 34t43.5 13q31 0 52.5 -21t21.5 -52q0 -12 -26.5 -84t-68 -175.5t-80.5 -199t-75.5 -184.5t-42.5 -103z" />
    <glyph glyph-name="y" unicode="y" horiz-adv-x="872" 
d="M791 1632q29 -10 40.5 -38.5t-0.5 -57.5l-290 -731v-731q0 -31 -22.5 -52.5t-53.5 -21.5t-52.5 21.5t-21.5 52.5v731l-293 731q-12 29 0.5 57t40.5 39q29 12 58 0t39 -41l155 -385v359q0 31 21.5 52t52.5 21t53.5 -21.5t22.5 -51.5v-359l153 385q10 29 39 41t58 0z" />
    <glyph glyph-name="z" unicode="z" horiz-adv-x="868" 
d="M838 1565q0 -13 -7 -31l-555 -1384h488q31 0 52.5 -22.5t21.5 -53.5t-21.5 -52.5t-52.5 -21.5h-596q-34 3 -55 22t-21 52q0 15 6 30l555 1385h-485q-31 0 -53.5 22.5t-22.5 53.5q0 30 22.5 51.5t53.5 21.5q65 0 186.5 1t221.5 1t188 -2q30 -2 52 -22.5t22 -50.5z" />
    <glyph glyph-name="braceleft" unicode="{" 
 />
    <glyph glyph-name="bar" unicode="|" 
 />
    <glyph glyph-name="braceright" unicode="}" 
 />
    <glyph glyph-name="asciitilde" unicode="~" 
 />
    <glyph glyph-name="uni00A0" unicode="&#xa0;" 
 />
    <glyph glyph-name="exclamdown" unicode="&#xa1;" 
 />
    <glyph glyph-name="cent" unicode="&#xa2;" 
 />
    <glyph glyph-name="sterling" unicode="&#xa3;" 
 />
    <glyph glyph-name="currency" unicode="&#xa4;" 
 />
    <glyph glyph-name="yen" unicode="&#xa5;" 
 />
    <glyph glyph-name="brokenbar" unicode="&#xa6;" 
 />
    <glyph glyph-name="section" unicode="&#xa7;" 
 />
    <glyph glyph-name="dieresis" unicode="&#xa8;" 
 />
    <glyph glyph-name="copyright" unicode="&#xa9;" 
 />
    <glyph glyph-name="ordfeminine" unicode="&#xaa;" 
 />
    <glyph glyph-name="guillemotleft" unicode="&#xab;" 
 />
    <glyph glyph-name="logicalnot" unicode="&#xac;" 
 />
    <glyph glyph-name="uni00AD" unicode="&#xad;" 
 />
    <glyph glyph-name="registered" unicode="&#xae;" 
 />
    <glyph glyph-name="macron" unicode="&#xaf;" 
 />
    <glyph glyph-name="degree" unicode="&#xb0;" 
 />
    <glyph glyph-name="plusminus" unicode="&#xb1;" 
 />
    <glyph glyph-name="twosuperior" unicode="&#xb2;" 
 />
    <glyph glyph-name="threesuperior" unicode="&#xb3;" 
 />
    <glyph glyph-name="acute" unicode="&#xb4;" 
 />
    <glyph glyph-name="mu" unicode="&#xb5;" 
 />
    <glyph glyph-name="paragraph" unicode="&#xb6;" 
 />
    <glyph glyph-name="periodcentered" unicode="&#xb7;" 
 />
    <glyph glyph-name="cedilla" unicode="&#xb8;" 
 />
    <glyph glyph-name="onesuperior" unicode="&#xb9;" 
 />
    <glyph glyph-name="ordmasculine" unicode="&#xba;" 
 />
    <glyph glyph-name="guillemotright" unicode="&#xbb;" 
 />
    <glyph glyph-name="onequarter" unicode="&#xbc;" 
 />
    <glyph glyph-name="onehalf" unicode="&#xbd;" 
 />
    <glyph glyph-name="threequarters" unicode="&#xbe;" 
 />
    <glyph glyph-name="questiondown" unicode="&#xbf;" 
 />
    <glyph glyph-name="Agrave" unicode="&#xc0;" 
 />
    <glyph glyph-name="Aacute" unicode="&#xc1;" 
 />
    <glyph glyph-name="Acircumflex" unicode="&#xc2;" 
 />
    <glyph glyph-name="Atilde" unicode="&#xc3;" 
 />
    <glyph glyph-name="Adieresis" unicode="&#xc4;" 
 />
    <glyph glyph-name="Aring" unicode="&#xc5;" 
 />
    <glyph glyph-name="AE" unicode="&#xc6;" 
 />
    <glyph glyph-name="Ccedilla" unicode="&#xc7;" 
 />
    <glyph glyph-name="Egrave" unicode="&#xc8;" 
 />
    <glyph glyph-name="Eacute" unicode="&#xc9;" 
 />
    <glyph glyph-name="Ecircumflex" unicode="&#xca;" 
 />
    <glyph glyph-name="Edieresis" unicode="&#xcb;" 
 />
    <glyph glyph-name="Igrave" unicode="&#xcc;" 
 />
    <glyph glyph-name="Iacute" unicode="&#xcd;" 
 />
    <glyph glyph-name="Icircumflex" unicode="&#xce;" 
 />
    <glyph glyph-name="Idieresis" unicode="&#xcf;" 
 />
    <glyph glyph-name="Eth" unicode="&#xd0;" 
 />
    <glyph glyph-name="Ntilde" unicode="&#xd1;" 
 />
    <glyph glyph-name="Ograve" unicode="&#xd2;" 
 />
    <glyph glyph-name="Oacute" unicode="&#xd3;" 
 />
    <glyph glyph-name="Ocircumflex" unicode="&#xd4;" 
 />
    <glyph glyph-name="Otilde" unicode="&#xd5;" 
 />
    <glyph glyph-name="Odieresis" unicode="&#xd6;" 
 />
    <glyph glyph-name="multiply" unicode="&#xd7;" 
 />
    <glyph glyph-name="Ugrave" unicode="&#xd9;" 
 />
    <glyph glyph-name="Uacute" unicode="&#xda;" 
 />
    <glyph glyph-name="Ucircumflex" unicode="&#xdb;" 
 />
    <glyph glyph-name="Udieresis" unicode="&#xdc;" 
 />
    <glyph glyph-name="Yacute" unicode="&#xdd;" 
 />
    <glyph glyph-name="Thorn" unicode="&#xde;" 
 />
    <glyph glyph-name="germandbls" unicode="&#xdf;" 
 />
    <glyph glyph-name="agrave" unicode="&#xe0;" 
 />
    <glyph glyph-name="aacute" unicode="&#xe1;" 
 />
    <glyph glyph-name="acircumflex" unicode="&#xe2;" 
 />
    <glyph glyph-name="atilde" unicode="&#xe3;" 
 />
    <glyph glyph-name="adieresis" unicode="&#xe4;" 
 />
    <glyph glyph-name="aring" unicode="&#xe5;" 
 />
    <glyph glyph-name="eacute" unicode="&#xe9;" 
 />
    <glyph glyph-name="edieresis" unicode="&#xeb;" 
 />
    <glyph glyph-name="igrave" unicode="&#xec;" 
 />
    <glyph glyph-name="iacute" unicode="&#xed;" 
 />
    <glyph glyph-name="icircumflex" unicode="&#xee;" 
 />
    <glyph glyph-name="idieresis" unicode="&#xef;" 
 />
    <glyph glyph-name="eth" unicode="&#xf0;" 
 />
    <glyph glyph-name="ntilde" unicode="&#xf1;" 
 />
    <glyph glyph-name="ograve" unicode="&#xf2;" 
 />
    <glyph glyph-name="oacute" unicode="&#xf3;" 
 />
    <glyph glyph-name="ocircumflex" unicode="&#xf4;" 
 />
    <glyph glyph-name="otilde" unicode="&#xf5;" 
 />
    <glyph glyph-name="odieresis" unicode="&#xf6;" 
 />
    <glyph glyph-name="divide" unicode="&#xf7;" 
 />
    <glyph glyph-name="oslash" unicode="&#xf8;" 
 />
    <glyph glyph-name="ugrave" unicode="&#xf9;" 
 />
    <glyph glyph-name="uacute" unicode="&#xfa;" 
 />
    <glyph glyph-name="ucircumflex" unicode="&#xfb;" 
 />
    <glyph glyph-name="udieresis" unicode="&#xfc;" 
 />
    <glyph glyph-name="yacute" unicode="&#xfd;" 
 />
    <glyph glyph-name="thorn" unicode="&#xfe;" 
 />
    <glyph glyph-name="ydieresis" unicode="&#xff;" 
 />
    <glyph glyph-name="Ydieresis" unicode="&#x178;" 
 />
    <glyph glyph-name="quoteleft" unicode="&#x2018;" 
 />
    <glyph glyph-name="quoteright" unicode="&#x2019;" 
 />
    <glyph glyph-name="quotedblleft" unicode="&#x201c;" 
 />
    <glyph glyph-name="quotedblright" unicode="&#x201d;" 
 />
    </font>
</defs>
</svg>
