<?xml version="1.0" standalone="no"?>
<!DOCTYPE svg PUBLIC "-//W3C//DTD SVG 1.1//EN" "http://www.w3.org/Graphics/SVG/1.1/DTD/svg11.dtd" >
<svg xmlns="http://www.w3.org/2000/svg" xmlns:xlink="http://www.w3.org/1999/xlink" version="1.1">
<metadata>
Created by FontForge 20170731 at Fri Dec  6 00:40:26 2002
 By Aleksey,,,
Elvish Ring NFI v1.2 - copyright (c) 2002 - Thomas W. Otto - Norfok Inc. Font Design - www.norfok.com
</metadata>
<defs>
<font id="ElvishRingNFI" horiz-adv-x="500" >
  <font-face 
    font-family="Elvish Ring NFI"
    font-weight="100"
    font-stretch="normal"
    units-per-em="1000"
    panose-1="2 0 0 0 0 0 0 0 0 0"
    ascent="800"
    descent="-200"
    x-height="334"
    cap-height="576"
    bbox="-261 -887 1452 1200"
    underline-thickness="50"
    underline-position="-150"
    unicode-range="U+0020-F000"
  />
<missing-glyph 
 />
    <glyph glyph-name=".notdef" 
 />
    <glyph glyph-name=".null" horiz-adv-x="0" 
 />
    <glyph glyph-name="nonmarkingreturn" 
 />
    <glyph glyph-name="space" unicode=" " horiz-adv-x="297" 
 />
    <glyph glyph-name="space" unicode="&#xa0;" horiz-adv-x="297" 
 />
    <glyph glyph-name="exclam" unicode="!" horiz-adv-x="654" 
d="M91 239q8 59 14 115t9 110q5 99 40 199.5t94 190.5t138.5 165t173.5 125q14 -6 14 -14q0 -6 -8 -16q-83 -53 -153.5 -125.5t-123 -157t-84 -177t-35.5 -186.5q-2 -53 -6 -105t-12 -117zM116 97q-22 -4 -31 -16t-9 -31q0 -21 10 -49.5t25 -60.5q20 35 31.5 63.5t11.5 49.5
q0 37 -38 44z" />
    <glyph glyph-name="quotedbl" unicode="&#x22;" horiz-adv-x="368" 
d="M57 617l-12 20l136 90l24 -37zM185 618l-12 20l136 90l24 -37z" />
    <glyph glyph-name="numbersign" unicode="#" 
 />
    <glyph glyph-name="dollar" unicode="$" 
 />
    <glyph glyph-name="percent" unicode="%" 
 />
    <glyph glyph-name="ampersand" unicode="&#x26;" 
 />
    <glyph glyph-name="quotesingle" unicode="'" horiz-adv-x="249" 
d="M57 617l-12 20l136 90l24 -37z" />
    <glyph glyph-name="parenleft" unicode="(" horiz-adv-x="916" 
d="M42 266q22 12 48 17t54 5q33 0 67 -5.5t65 -13.5t57 -16.5t43 -14.5q33 -12 61.5 -21t59.5 -15.5t69 -10t90 -3.5h29t31 1v-38q-57 -9 -107.5 -16t-94.5 -7q-49 0 -88 8.5t-72 22t-61.5 28.5t-57 28.5t-59 22t-66.5 8.5q-16 0 -32.5 -2t-35.5 -6v28zM870 174
q0 -11 -17 -18.5t-40 -7.5t-40 7.5t-17 18.5t17 18.5t40 7.5t40 -7.5t17 -18.5z" />
    <glyph glyph-name="parenright" unicode=")" horiz-adv-x="916" 
d="M42 174q0 11 17 18.5t40 7.5t40 -7.5t17 -18.5t-17 -18.5t-40 -7.5t-40 7.5t-17 18.5zM870 238q-19 4 -35.5 6t-32.5 2q-37 0 -67 -8.5t-58.5 -22t-57 -28.5t-61.5 -28.5t-72 -22t-88 -8.5q-44 0 -94.5 7t-107.5 16v38q16 -1 31 -1h29q52 0 90 3.5t69 10t59.5 15.5
t61.5 21q17 6 43 14.5t57 16.5t65 13.5t67 5.5q28 0 54 -5t48 -17v-28z" />
    <glyph glyph-name="asterisk" unicode="*" 
 />
    <glyph glyph-name="plus" unicode="+" 
 />
    <glyph glyph-name="comma" unicode="," horiz-adv-x="274" 
d="M35 -13l-12 20l136 90l24 -37z" />
    <glyph glyph-name="hyphen" unicode="-" horiz-adv-x="404" 
d="M37 438q16 34 44 47.5t64 13.5q21 0 43.5 -2.5t43.5 -5t39.5 -5t32.5 -2.5q18 0 38.5 6t31.5 13q-5 -19 -18.5 -31t-31.5 -19.5t-37 -10.5t-33 -3q-15 0 -34 2t-37.5 4.5t-36 4.5t-29.5 2q-35 0 -52 -4t-28 -10z" />
    <glyph glyph-name="hyphen" unicode="&#xad;" horiz-adv-x="404" 
d="M37 438q16 34 44 47.5t64 13.5q21 0 43.5 -2.5t43.5 -5t39.5 -5t32.5 -2.5q18 0 38.5 6t31.5 13q-5 -19 -18.5 -31t-31.5 -19.5t-37 -10.5t-33 -3q-15 0 -34 2t-37.5 4.5t-36 4.5t-29.5 2q-35 0 -52 -4t-28 -10z" />
    <glyph glyph-name="period" unicode="." horiz-adv-x="206" 
d="M109 97q38 -7 38 -44q0 -21 -11.5 -49.5t-31.5 -63.5q-15 32 -25 60.5t-10 49.5q0 19 9 31t31 16z" />
    <glyph glyph-name="slash" unicode="/" 
 />
    <glyph glyph-name="zero" unicode="0" 
 />
    <glyph glyph-name="one" unicode="1" 
 />
    <glyph glyph-name="two" unicode="2" 
 />
    <glyph glyph-name="three" unicode="3" 
 />
    <glyph glyph-name="four" unicode="4" 
 />
    <glyph glyph-name="five" unicode="5" 
 />
    <glyph glyph-name="six" unicode="6" 
 />
    <glyph glyph-name="seven" unicode="7" 
 />
    <glyph glyph-name="eight" unicode="8" 
 />
    <glyph glyph-name="nine" unicode="9" 
 />
    <glyph glyph-name="colon" unicode=":" horiz-adv-x="206" 
d="M112 337q38 -7 38 -44q0 -21 -11.5 -49.5t-31.5 -63.5q-15 32 -25 60.5t-10 49.5q0 19 9 31t31 16zM90 97q38 -7 38 -44q0 -21 -11.5 -49.5t-31.5 -63.5q-15 32 -25 60.5t-10 49.5q0 19 9 31t31 16z" />
    <glyph glyph-name="semicolon" unicode=";" horiz-adv-x="274" 
d="M180 337q38 -7 38 -44q0 -21 -11.5 -49.5t-31.5 -63.5q-15 32 -25 60.5t-10 49.5q0 19 9 31t31 16zM204 60l-24 37l-136 -90l12 -20z" />
    <glyph glyph-name="semicolon" unicode="&#x37e;" horiz-adv-x="274" 
d="M180 337q38 -7 38 -44q0 -21 -11.5 -49.5t-31.5 -63.5q-15 32 -25 60.5t-10 49.5q0 19 9 31t31 16zM204 60l-24 37l-136 -90l12 -20z" />
    <glyph glyph-name="less" unicode="&#x3c;" horiz-adv-x="636" 
d="M527 343q7 0 19.5 -1.5t26.5 -5.5t26.5 -10.5t20.5 -16.5v-28q-19 6 -35.5 10t-33.5 4q-36 0 -61 -14.5t-45.5 -36.5t-40.5 -48t-44.5 -48t-58 -36.5t-81.5 -14.5q-44 0 -94.5 7t-107.5 16v38q74 0 118.5 3.5t70 8.5t37.5 12t22 15q29 22 55.5 48t51.5 42q34 23 69 39.5
t85 16.5zM18 199v38h100q38 8 65.5 31.5t46.5 56.5t30.5 72t18.5 78q9 52 21 102.5t33.5 90.5t57.5 64.5t93 24.5q4 0 21.5 -0.5t39 -4t42.5 -11t33 -21.5v-29q-35 13 -65 13q-33 0 -56.5 -15.5t-40.5 -42t-29.5 -62.5t-23.5 -77q-17 -61 -37.5 -117.5t-52 -100t-77 -69.5
t-110.5 -26q-48 0 -79 1.5t-31 3.5z" />
    <glyph glyph-name="equal" unicode="=" 
 />
    <glyph glyph-name="greater" unicode="&#x3e;" horiz-adv-x="636" 
d="M620 193q0 -2 -31 -3.5t-79 -1.5q-65 0 -110.5 26t-77 69.5t-52.5 100t-37 117.5q-11 41 -23.5 77t-29.5 62.5t-40.5 42t-56.5 15.5q-30 0 -65 -13v29q12 14 33 21.5t42.5 11t38.5 4t22 0.5q57 0 93 -24.5t57.5 -64.5t33.5 -90.5t21 -102.5q7 -39 18.5 -78t30.5 -72
t46.5 -56.5t65.5 -31.5h100v-38v0zM111 337q50 0 85 -16.5t69 -39.5q25 -16 51.5 -42t55.5 -48q10 -8 22 -15t37.5 -12t70 -8.5t118.5 -3.5v-38q-57 -9 -107.5 -16t-94.5 -7q-48 0 -81.5 14.5t-58 36.5t-44.5 48t-40.5 48t-45.5 36.5t-61 14.5q-17 0 -33.5 -4t-35.5 -10v28
q7 10 20 16.5t27 10.5t26.5 5.5t19.5 1.5z" />
    <glyph glyph-name="question" unicode="?" horiz-adv-x="304" 
d="M57 1021q157 -62 157 -165q0 -14 -6 -62.5t-17 -136.5q-5 -39 -8.5 -78.5t-6 -73t-4 -59t-1.5 -35.5q0 -17 20.5 -56.5t59.5 -103.5l-5 -14q-139 110 -139 205q0 12 1.5 38t4.5 60.5t7.5 74.5t10.5 81q8 63 11 107t3 69q0 19 -5 32t-16 26t-28.5 30t-42.5 46zM165 97
q-22 -4 -31 -16t-9 -31q0 -21 10 -49.5t25 -60.5q20 35 31.5 63.5t11.5 49.5q0 37 -38 44z" />
    <glyph glyph-name="at" unicode="@" 
 />
    <glyph glyph-name="A" unicode="A" horiz-adv-x="589" 
d="M87 286q-23 -32 -34 -67t-11 -68q0 -30 11 -65q41 -96 93 -99q18 4 39.5 11.5t44.5 18t46 24t44 30.5q37 -81 87 -84q21 4 46.5 13.5t52 23t52.5 31t48 38.5q1 3 1 7q0 12 -16 12q-24 -20 -48.5 -31.5t-47 -17.5t-42.5 -9t-36 -4q-42 26 -52 58t-10 73q0 29 14.5 56.5
t32.5 50.5q15 3 30 5t36.5 4t53 3t78.5 1q8 8 8 17q0 8 -6 16h-372q-30 0 -62 -1t-62 -3.5t-56.5 -7.5t-47.5 -13q-21 -15 -21 -24t22 -9q46 10 76 10h8zM348 286q-45 -65 -45 -135q0 -8 0.5 -15.5t1.5 -15.5q-42 -32 -81 -50t-68 -20q-42 26 -52 58t-10 73q0 29 14.5 56.5
t32.5 50.5q51 9 97 9q8 0 21 -0.5t29 -1t32.5 -1t31.5 -1.5zM394 474h-14q0 19 -2 30.5t-4.5 19t-5.5 13t-6 11.5q12 32 27 32q16 0 27 -32q-8 -16 -13 -29.5t-9 -44.5zM356 442q-12 41 -39 43q-1 3 -1 7q0 18 22 20q24 -16 31 -62zM404 449l13 -6q8 19 18.5 31t25.5 16
q1 3 1 9q0 8 -5 12t-20 4q-18 -23 -33 -66z" />
    <glyph glyph-name="B" unicode="B" horiz-adv-x="422" 
d="M83 42h211q37 46 37 105q0 20 -2 37t-8.5 32t-18.5 28.5t-33 25.5q-33 -4 -78.5 -47t-99.5 -120zM284 334q16 0 34 -16t32 -40t23.5 -51.5t9.5 -49.5q0 -38 -11.5 -71t-34.5 -65q26 0 45.5 2.5t39.5 7.5q22 0 22 -9q0 -8 -21 -23q-23 -10 -46.5 -15.5t-49.5 -7.5
q-84 0 -138.5 -0.5t-87 -1t-46.5 -1t-18 -1.5h1q-20 -8 -46 -15l-4 9q37 33 43 157q4 66 11 129.5t18 129.5q23 140 64.5 281.5t97.5 283.5q23 57 48.5 111.5t51.5 107.5q3 3 6 7.5t11 4.5q9 0 14.5 -9t-0.5 -17q-44 -105 -83.5 -214.5t-71.5 -221.5t-55 -225.5t-35 -225.5
q-1 -18 -1.5 -28.5t-2.5 -28.5q44 42 89 69t91 37z" />
    <glyph glyph-name="C" unicode="C" horiz-adv-x="284" 
d="M110 13q-25 0 -45.5 9t-34.5 24t-22 35t-8 42q0 16 3.5 32t8.5 35q10 24 28 49.5t42 47t52.5 35.5t60.5 14q6 0 12.5 -0.5t13.5 -1.5q12 -24 12 -45q0 -8 -3 -19t-13 -11q-13 0 -41 27q-25 -4 -47 -16.5t-38.5 -31t-26 -40.5t-9.5 -45q0 -19 7.5 -36t20.5 -29.5t30 -20
t36 -7.5q32 0 59.5 19t43.5 45q8 8 15 11t11 3q6 0 6 -7q0 -6 -8 -22q-52 -78 -133 -92q-13 -4 -33 -4zM238 474h-14q0 19 -2 30.5t-4.5 19t-5.5 13t-6 11.5q12 32 27 32q16 0 27 -32q-8 -16 -13 -29.5t-9 -44.5zM200 442q-12 41 -39 43q-1 3 -1 7q0 18 22 20q24 -16 31 -62
zM248 449l13 -6q8 19 18.5 31t25.5 16q1 3 1 9q0 8 -5 12t-20 4q-18 -23 -33 -66z" />
    <glyph glyph-name="D" unicode="D" horiz-adv-x="426" 
d="M259 196q-26 38 -56 58.5t-54 20.5q-12 0 -28 -11t-30 -28t-24 -37.5t-10 -39.5q0 -34 16 -58.5t49 -45.5q32 -8 58 -8q12 0 23.5 1.5t22.5 6.5l33 141v0zM427 32q-8 -16 -30 -24.5t-41 -8.5q-15 0 -32.5 3t-52.5 8q-23 -4 -54.5 -8t-64.5 -4q-67 0 -108 27.5t-41 96.5
q0 30 11.5 67.5t31 70t45.5 54.5t55 22q36 0 66.5 -25.5t56.5 -66.5q29 122 52 216.5t42 164.5t34.5 116.5t28.5 72.5q8 12 26.5 28.5t47.5 16.5l19 -29q-21 -13 -36.5 -33t-29 -54.5t-27.5 -87t-34 -130.5t-41.5 -173.5t-47.5 -213.5q-7 -29 -7 -51q0 -17 6.5 -25.5
t16.5 -13t23 -5t25 -0.5q11 2 21.5 4.5t24.5 7.5z" />
    <glyph glyph-name="E" unicode="E" horiz-adv-x="387" 
d="M387 29q-16 -140 -67 -226q-52 -85 -171 -95q-80 2 -125.5 43.5t-58.5 128.5q0 92 93 215q12 16 22.5 28.5t24.5 28.5q-11 2 -23 15t-22 31t-16.5 38t-6.5 36q0 28 11.5 63.5t30 74t43.5 78.5t52 77t54.5 70t51.5 57q48 48 102 91t116 84q19 0 19 -11q0 -7 -4 -12
q-59 -43 -108.5 -85t-91.5 -84q-33 -34 -70 -84.5t-69 -104t-53 -104.5t-21 -87q0 -29 9.5 -56t29.5 -49q37 35 81.5 72t101.5 74q12 -5 12 -15q0 -7 -3 -14q-72 -57 -128.5 -115t-99.5 -121q-70 -103 -70 -160q0 -62 33.5 -104t93.5 -50q87 8 127 75q39 64 56 171
q-30 13 -30 38q0 7 3 15l67 -21z" />
    <glyph glyph-name="F" unicode="F" horiz-adv-x="451" 
d="M78 195q2 28 7 50.5t23 45.5q-38 0 -84 -10q-21 0 -21 9q0 7 21 24q23 10 48 16t47 6q103 0 163.5 0.5t93.5 4t46.5 10.5t23.5 20l-7 -83h-259q-17 -22 -27 -48.5t-10 -55.5q0 -24 5.5 -47t17 -41t30 -29t44.5 -11q35 0 71.5 13.5t77.5 36.5q0 -2 4.5 -7.5t4.5 -14.5
q0 -11 -9 -21q-96 -64 -195 -66q-18 1 -33 11t-31 35q-13 -123 -38 -239.5t-62 -229.5t-85.5 -224.5t-108.5 -224.5l-27 17q54 126 99 248.5t79.5 246.5t57 251t30.5 264q2 18 2 27q0 10 1 16zM324 474h-14q0 19 -2 30.5t-4.5 19t-5.5 13t-6 11.5q12 32 27 32q16 0 27 -32
q-8 -16 -13 -29.5t-9 -44.5zM286 442q-12 41 -39 43q-1 3 -1 7q0 18 22 20q24 -16 31 -62zM334 449l13 -6q8 19 18.5 31t25.5 16q1 3 1 9q0 8 -5 12t-20 4q-18 -23 -33 -66z" />
    <glyph glyph-name="G" unicode="G" horiz-adv-x="339" 
d="M326 336q9 -18 9 -43q0 -17 -2 -46.5t-6 -61.5t-10 -61t-13 -45q-10 -23 -28.5 -39.5t-41.5 -27t-48.5 -15.5t-50.5 -5q-37 0 -62.5 16t-41.5 44t-23 67t-7 86q0 64 11 139t28.5 151.5t39 151t42.5 137.5t38 111t27 72q24 60 51 117t55 112q8 2 11 2q10 0 13 -6t4 -14
q-45 -105 -84.5 -215.5t-72 -223t-56 -227t-35.5 -227.5q-3 -17 -5 -36t-2 -39q0 -27 4 -53t14 -47t25.5 -34.5t39.5 -16.5q11 0 25.5 0.5t29.5 4.5t30 12.5t26 24.5q9 13 15 31.5t9 38.5t4.5 38.5t1.5 31.5q0 16 -5 24.5t-14 13t-21 6t-25 4.5q-17 8 -17 16q0 7 18 18
l100 13v0z" />
    <glyph glyph-name="H" unicode="H" horiz-adv-x="350" 
d="M344 625q0 37 -11 37q-7 0 -15 -17t-13 -49q-4 -23 -9 -46.5t-15 -43.5q12 1 23 16.5t19.5 35t14 39t6.5 28.5zM42 399q18 230 43.5 377t56.5 213q43 96 123 165q11 0 14.5 -4t3.5 -10q0 -3 -2 -11q-65 -82 -97 -167q-43 -145 -82 -567q-5 -48 -8.5 -91t-8.5 -81
q37 35 78.5 63t95.5 52q17 0 33.5 -10.5t29 -28.5t20.5 -41t8 -47q0 -39 -12 -78t-34 -88q-10 -21 -26 -34.5t-35 -16.5q-24 37 -24 55q0 17 13 17q10 0 30 -15q22 25 30 67.5t8 84.5q0 27 -15.5 45t-41.5 18q-23 0 -43.5 -8.5t-41 -21.5t-40 -29t-38.5 -30
q-5 -39 -8.5 -71.5t-7.5 -58.5q-9 -59 -25.5 -136t-38 -158.5t-46.5 -161.5t-52 -145q-12 -30 -29.5 -73.5t-36.5 -89.5t-37.5 -88.5t-32.5 -69.5q-26 -12 -27 17q14 31 32 77t36 96t35 97.5t29 82.5q21 63 42 139t38 151t30.5 143.5t19.5 118.5q9 69 19.5 157t21.5 196v-1z
" />
    <glyph glyph-name="I" unicode="I" horiz-adv-x="160" 
d="M48 280q8 18 25 39.5t44 31.5l9 -49q-12 -21 -19.5 -64.5t-13 -90.5t-8.5 -87.5t-5 -55.5l-73 -3q4 16 9 39t9.5 50t7.5 56.5t5 58.5zM97 576q9 -4 18.5 -17t9.5 -35q0 -12 -4 -26.5t-14 -31.5l-30 -26q-8 20 -11.5 37t-3.5 31q0 31 11.5 48.5t23.5 19.5z" />
    <glyph glyph-name="J" unicode="J" horiz-adv-x="252" 
d="M100 626q13 31 28 31q12 0 18.5 -17t6.5 -41q0 -18 -3 -43t-3 -39q0 -26 7 -50q-16 8 -26.5 25.5t-17 37.5t-9 41t-2.5 36zM204 339q-65 0 -115 -9.5t-85 -29.5q-13 -9 -13 -17q0 -9 21 -13q29 7 52.5 13.5t46.5 6.5t46 -10q6 -13 11 -32t8.5 -40.5t5.5 -44t2 -41.5
q0 -52 -6.5 -109.5t-18 -118t-26.5 -121.5t-32 -120q-21 -71 -44 -140.5t-47 -135.5t-47 -126.5t-42 -113.5q0 -21 16 -21q7 0 12 4q37 73 73.5 156.5t70 172t62.5 180t50 180.5t33 173t12 158q0 23 -2 53.5t-7 60t-14 53t-23 32.5z" />
    <glyph glyph-name="K" unicode="K" horiz-adv-x="375" 
d="M0 -5q18 99 29.5 170t19 125t10.5 95t4 79q3 136 31.5 240.5t80.5 186t126.5 143t168.5 111.5q13 -4 13 -13q0 -7 -7 -17q-83 -52 -147 -109.5t-109 -132.5t-70 -173.5t-29 -231.5q-1 -30 -2.5 -61.5t-4 -66t-7 -73t-10.5 -84.5q9 25 27 52t42.5 49.5t54 37t61.5 14.5
q6 0 12.5 -0.5t13.5 -1.5q12 -24 12 -45q0 -8 -3 -19t-13 -11q-13 0 -41 27q-25 -4 -47 -16.5t-38.5 -31t-26 -40.5t-9.5 -45q0 -19 7.5 -36t20.5 -29.5t30 -20t36 -7.5q32 0 59.5 19t43.5 45q8 8 15 11t11 3q6 0 6 -7q0 -6 -8 -22q-52 -78 -133 -92q-13 -4 -33 -4
q-46 0 -75 27t-34 66l-13 -99z" />
    <glyph glyph-name="L" unicode="L" horiz-adv-x="562" 
d="M379 354q-8 -26 -8 -52q0 -36 11.5 -77t28.5 -79t36.5 -70t36.5 -51q40 0 79 22q16 0 16 -29q-34 -15 -57 -25t-48 -10q-5 0 -10 0.5t-10 1.5q-22 0 -55 65t-79 183q-75 -114 -130.5 -179t-87.5 -69q-37 2 -66.5 8.5t-54.5 17.5q-2 4 -2 11q0 14 17 17q29 -9 52.5 -13
t40.5 -5q24 11 44 28.5t39 41.5t39 55.5t44 71.5q20 32 38 71t33 79.5t27 80t20 72.5q22 89 30 151.5t10 95.5q-3 33 -23 33q-18 0 -29.5 -11t-18.5 -28t-9.5 -38.5t-2.5 -42.5q0 -63 21 -159q-4 -14 -13 -14q-5 0 -11 3q-39 106 -39 183q0 25 6 52.5t18.5 50.5t32 37.5
t47.5 14.5q15 0 30 -6.5t27 -17.5t19.5 -27.5t7.5 -35.5q0 -38 -21 -140.5t-76 -267.5z" />
    <glyph glyph-name="M" unicode="M" horiz-adv-x="711" 
d="M511 212q0 -67 -46 -167q34 -1 74 -2.5t89 -3.5q17 28 28 64.5t11 74.5q0 15 -1 32.5t-6 32t-14.5 24t-27.5 9.5q-24 0 -47 -10.5t-61 -31.5q1 -5 1 -11v-11zM461 186q0 30 -12 54.5t-45 24.5q-19 0 -41 -11q-29 -14 -61.5 -35t-70.5 -49q0 -40 -3.5 -72t-10.5 -61
q48 5 100 6.5t111 1.5q7 13 13.5 30.5t10.5 36.5t6.5 38t2.5 36zM304 561q-34 -56 -109 -250q6 -8 12 -22t14 -37q2 -11 3.5 -18.5t3.5 -19.5q42 37 88.5 68t100.5 55q26 -2 45.5 -17.5t35.5 -47.5q32 25 69 41t78 26q15 0 27.5 -9.5t21.5 -23.5t13.5 -32t4.5 -34
q0 -100 -46 -199q26 3 67 28q6 0 8.5 -3t2.5 -6q0 -11 -17.5 -24.5t-34.5 -21.5q-4 -2 -10.5 -3.5t-23 -3t-47 -2t-84.5 -0.5q-32 0 -70 1.5t-90 2.5q-22 0 -46 -0.5t-53 -2t-65.5 -3.5t-84.5 -6q34 72 42 164q-1 67 -31 107q-5 2 -11 3t-14 1q-16 0 -39.5 -5t-55.5 -16
q-24 8 -24 21q0 10 20 21q43 18 79 26.5t62 8.5h11t9 -1q36 94 66 159t50 98q20 32 45.5 53.5t53.5 21.5q14 0 29 -5t27.5 -16t20.5 -28t9 -40q-1 -20 -9 -35t-20 -26t-26 -16.5t-27 -5.5q-24 0 -43 15.5t-19 47.5q0 28 17.5 42t38.5 14q12 0 22 -6.5t15 -25.5
q-13 -29 -20 -29q-2 0 -3 1q0 15 -5.5 21.5t-12.5 6.5q-8 0 -14 -6.5t-7 -17.5q0 -22 23 -29q28 0 38 15.5t10 36.5q0 43 -40 52q-45 -3 -81 -64z" />
    <glyph glyph-name="N" unicode="N" horiz-adv-x="488" 
d="M145 2q7 30 14.5 64.5t13.5 72.5q0 54 -7.5 91.5t-17.5 54.5q-23 10 -49 10q-22 0 -45.5 -6t-50.5 -14q-21 4 -21 13q0 8 13 17q35 20 83 29t112 10q33 87 61 147.5t47 92.5q20 32 46 53.5t54 21.5q14 0 29.5 -5t28 -16t21 -28t9.5 -40q-1 -20 -9 -35t-20.5 -26
t-27 -16.5t-27.5 -5.5q-24 0 -43 15.5t-19 47.5q0 28 17.5 42t38.5 14q12 0 23 -8t16 -27l-25 -25q-5 26 -15 30q-11 -5 -17 -9t-7 -17q0 -22 23 -29q28 0 38 15.5t10 36.5q0 43 -40 52q-45 -3 -81 -64q-17 -28 -43.5 -89t-63.5 -156q16 -29 22 -79l15 20q66 52 143 87
q14 0 30 -10t30 -27t23.5 -40t9.5 -50q0 -20 -5.5 -55.5t-18 -70.5t-32.5 -62t-49 -31q-24 37 -24 55q0 17 13 17q9 0 28 -14q20 27 30.5 57.5t10.5 67.5q0 18 -3 34.5t-9.5 29.5t-17 21t-25.5 8q-20 0 -37 -7.5t-33.5 -18.5t-34 -23.5t-36.5 -22.5q-3 -26 -6 -51.5
t-7 -51.5q-2 -17 -5 -40t-6 -45z" />
    <glyph glyph-name="O" unicode="O" horiz-adv-x="356" 
d="M289 201q0 32 -16.5 59.5t-52.5 49.5q-80 -18 -116.5 -58.5t-36.5 -103.5q0 -75 65 -129q78 28 117.5 71.5t39.5 110.5zM349 197q0 -42 -13 -78.5t-36 -64.5t-54.5 -44t-69.5 -16t-70 12t-55.5 35t-37 56t-13.5 75q8 82 54.5 123.5t118.5 41.5q34 0 66 -9t56.5 -26.5
t39 -44t14.5 -60.5z" />
    <glyph glyph-name="P" unicode="P" horiz-adv-x="539" 
d="M446 172q0 35 -13.5 61t-45.5 26q-19 0 -37 -7.5t-36 -19t-35.5 -24.5t-34.5 -23v-60t-1 -40.5t-2 -28t-2 -21.5q21 1 38 1.5t35 0.5q26 0 44.5 1.5t32.5 7t24 16.5t19 30q14 40 14 80zM200 325q31 -34 40 -96q36 32 75.5 58t86.5 47h1q16 0 32.5 -10t29.5 -26.5
t21 -38.5t8 -46q0 -35 -14.5 -79t-41.5 -98q57 9 101 38q8 -5 8 -11q0 -17 -18.5 -28.5t-42.5 -19t-47.5 -11t-33.5 -3.5q-53 1 -93.5 1.5t-76.5 1.5q-14 -110 -41 -223.5t-64.5 -226.5t-83.5 -222.5t-99 -211.5q-6 -2 -9 -2q-14 0 -19 19q49 115 95.5 233.5t83 241.5
t59 250t22.5 259q0 50 -8 88.5t-18 56.5q-23 10 -49 10q-22 0 -45 -6t-51 -14q-21 4 -21 13q0 7 13 17q36 20 85.5 29.5t114.5 9.5zM150 393q18 29 49.5 41t73.5 12q24 0 49 -2t49 -4.5t45 -4.5t37 -2q21 0 44 5t36 11q-5 -16 -21 -26.5t-36.5 -17t-42 -9t-37.5 -2.5
q-17 0 -38.5 1.5t-42.5 4t-40.5 4t-33.5 1.5q-41 0 -59.5 -3.5t-31.5 -8.5zM351 471q0 29 3.5 48t8 30.5t9.5 16t8 4.5q12 -15 12 -39q0 -13 -3.5 -27.5t-8.5 -28.5z" />
    <glyph glyph-name="Q" unicode="Q" horiz-adv-x="548" 
d="M498 277q10 -10 10 -30q0 -5 -1 -12t-4 -17q-17 -10 -28 -10q-17 0 -17 27q6 35 40 42zM381 615q-26 -44 -59 -114.5t-69 -162.5h18t17 -1q71 187 112 250q15 24 33 42q-8 4 -17 4q-19 0 -35 -18zM345 278q-26 5 -53 7.5t-54 2.5q-54 0 -104 -10q-17 -23 -27.5 -52.5
t-10.5 -59.5q0 -34 15 -65t48 -51q68 7 171 97zM423 565q-17 -27 -41.5 -84t-59.5 -145q29 -2 47.5 -4t20.5 -4q20 8 46 15l4 -9q-36 -31 -44 -157q-16 -272 -91.5 -538t-204.5 -514q-8 -3 -12 -3q-14 0 -16 20q44 105 84 215.5t72.5 223t56 227t34.5 227.5q2 18 2.5 28.5
t2.5 29.5q-44 -43 -88.5 -70t-86.5 -36q-52 3 -93 99q-11 35 -11 65q0 65 45 128q-38 0 -84 -10q-22 0 -22 9t21 24q16 10 40.5 16.5t53.5 11t60.5 6.5t62.5 2q70 197 140 298q22 23 51 23q20 0 43 -12q13 5 24 7.5t25 2.5q18 0 32.5 -7.5t24 -20t14.5 -28.5t5 -32
q0 -30 -18.5 -54t-57.5 -24q-27 0 -46 16t-19 48q7 57 66 65q14 -3 22.5 -16.5t8.5 -26.5q0 -8 -3.5 -13t-11.5 -5q-5 0 -8 1q0 14 -4.5 20.5t-9.5 6.5q-9 0 -18 -11t-10 -24q0 -22 28 -28q23 0 34 15t11 34q0 20 -11 37.5t-30 17.5q-23 0 -43 -15t-38 -48z" />
    <glyph glyph-name="R" unicode="R" horiz-adv-x="485" 
d="M393 336q65 -5 92 -102q-12 -31 -28 -31q-10 0 -22 14q-6 28 -50 55q-20 -8 -44.5 -18.5t-47 -25.5t-40.5 -34t-27 -43q-8 -143 -31.5 -272t-61.5 -253.5t-91 -248t-120 -253.5q-8 -3 -13 -3q-14 0 -15 20q52 127 99.5 250t83.5 247t57 252.5t21 265.5q0 14 -1.5 33.5
t-6 37.5t-13 30.5t-22.5 12.5q-16 0 -43 -4t-65 -13q-16 4 -16 13q0 5 8 13l155 46q20 -4 37 -24t34 -72q42 26 82.5 56.5t88.5 50.5z" />
    <glyph glyph-name="S" unicode="S" horiz-adv-x="644" 
d="M317 338q33 -3 66 -5.5t63.5 -4.5t56.5 -3t45 -1h46q24 0 47 2q32 -3 32 -15t-29 -25q-39 -3 -77.5 -4t-75.5 -1q-57 0 -109.5 3t-103.5 10q-185 -112 -185 -168q0 -19 16.5 -32t50 -23.5t83.5 -19.5t118 -20q52 -8 95.5 -17.5t75 -24.5t49.5 -39.5t18 -62.5
q0 -33 -27.5 -59.5t-70.5 -45.5t-95.5 -29.5t-101.5 -10.5q-24 0 -49.5 2.5t-47.5 10t-36 20.5t-14 35q0 14 9.5 28t40.5 33q-4 -13 -4 -28q0 -38 33 -56t83 -18q36 0 74 8t69.5 21.5t52 30.5t20.5 36q0 34 -21.5 50t-54 24t-71 12t-72.5 14q-75 18 -130.5 26t-93.5 18
t-60 27.5t-32 53.5q0 88 241 208q-46 -5 -86 -17t-87 -32q-20 5 -20 13q0 7 14 19q40 18 71.5 29.5t60.5 17.5t58 8t65 2z" />
    <glyph glyph-name="T" unicode="T" horiz-adv-x="773" 
d="M280 343q20 32 50.5 69t66.5 74.5t75.5 72t77 61t71 42.5t57.5 16q14 0 30 -4t29 -13.5t22 -25t10 -38.5q-1 -20 -9.5 -36.5t-21.5 -28.5t-28 -19t-28 -7q-24 0 -43 15.5t-19 47.5q0 28 17.5 42t38.5 14q14 0 25.5 -12t11.5 -25q0 -16 -20 -23q-3 14 -10 21t-15 7
q-7 0 -14 -10t-8 -22q0 -11 10 -21t21 -13q26 3 38.5 22t12.5 40q0 20 -12 36.5t-36 16.5q-21 0 -45 -9.5t-44 -21.5q-33 -20 -71 -49t-76 -64t-73.5 -76t-64.5 -85q22 0 56.5 -5.5t74.5 -12t82 -11.5t78 -5q25 0 44 3t36 9.5t34.5 17.5t39.5 27q8 7 11.5 8t11.5 1
q-13 -35 -42 -58.5t-61 -37.5t-59 -20.5t-35 -6.5q-27 0 -58 3.5t-61.5 8.5t-60 10.5t-54.5 8.5q-47 -42 -76.5 -78.5t-46.5 -70t-23 -65.5t-6 -66q0 -41 18 -71t47.5 -49.5t67.5 -29.5t78 -10q49 0 92.5 12.5t76.5 38.5t52 66t19 96q0 26 -10 40t-33 14q-20 0 -29.5 -12.5
t-9.5 -28.5q0 -18 11 -32q4 -5 13 -12.5t9 -13.5q0 -3 -4.5 -5.5t-18.5 -4.5q-24 4 -35.5 20.5t-11.5 36.5q0 27 20 51.5t57 24.5q41 0 55.5 -22t14.5 -56q0 -64 -20 -112.5t-55 -81.5t-82 -50t-100 -17q-58 0 -111 14t-93.5 41.5t-64.5 68t-24 94.5q0 60 49 129.5
t152 150.5q-32 3 -62 3q-23 0 -46 -2t-44 -6q-33 -7 -71.5 -19t-83.5 -31q-2 0 -3 -0.5t-2 -0.5q-7 0 -7 6q0 5 5 12.5t8 9.5q23 19 59 34.5t74.5 26.5t74 17t57.5 6z" />
    <glyph glyph-name="U" unicode="U" horiz-adv-x="391" 
d="M299 279q19 38 80 57l10 -50q-15 -9 -24.5 -39.5t-11.5 -64.5q-4 -63 -8 -107.5t-9 -68.5l-79 -7q11 37 18 89q-42 -44 -84 -67.5t-84 -28.5q-54 20 -80 69t-26 105q0 29 7.5 58t22.5 52.5t37.5 39.5t52.5 20q6 -4 11 -11t9 -16t6.5 -18t2.5 -16q0 -14 -10 -14
q-13 0 -38 21q-29 -14 -40 -38t-11 -53q0 -19 3 -42t11.5 -42.5t23.5 -32.5t39 -13t42.5 7.5t35.5 20t35 28t41 30.5z" />
    <glyph glyph-name="V" unicode="V" horiz-adv-x="480" 
d="M308 271q28 41 53.5 56t48.5 17q24 0 44 -4t41 -27q-1 -11 -4.5 -18.5t-12.5 -9.5q-16 8 -38 8q-38 0 -59.5 -21t-39.5 -53q-33 -57 -60.5 -114.5t-55.5 -104.5q-29 65 -53 112.5t-43 82.5q-28 52 -46.5 73t-42.5 21q-15 0 -35 -7q-17 3 -17 26q26 21 44 26t33 5
q12 0 25.5 -14t32 -41t43 -65.5t59.5 -87.5q17 27 37 65t46 75z" />
    <glyph glyph-name="W" unicode="W" horiz-adv-x="633" 
d="M146 287q-45 -58 -45 -122q0 -45 20 -76.5t56 -31.5q23 0 45 12t48 29q-9 31 -9 63q0 67 43 128zM350 289q-37 -46 -37 -106q0 -20 3.5 -41t12 -38t22.5 -28t35 -11q18 0 37 8q54 23 121 81q1 9 2 19l2.5 25t4 36.5t6.5 54.5h-209zM659 357q-43 -62 -49 -170
q-3 -65 -10.5 -129t-18.5 -130q-17 -99 -43 -202.5t-59.5 -206t-75 -202.5t-90.5 -192q-4 -2 -7 -3t-6 -1q-12 0 -15 21q57 128 102.5 263.5t80.5 274.5l17.5 75t20.5 100t18.5 117.5t13.5 127.5q-44 -42 -87.5 -67.5t-85.5 -36.5q-25 2 -44.5 19t-35.5 46q-35 -29 -73 -46
t-76 -21q-23 7 -40.5 23t-29 37t-17.5 45.5t-6 50.5q0 40 15 76.5t45 59.5q-53 -3 -103 -16q-21 3 -21 11q0 10 27 25q16 7 41 12.5t72.5 9t124.5 5t198 1.5q64 0 106 1.5t60 5.5q8 4 20 8t31 8z" />
    <glyph glyph-name="X" unicode="X" horiz-adv-x="525" 
d="M0 269q40 43 89 78.5t108 62.5q15 0 31.5 -9.5t30 -25.5t22 -37.5t8.5 -45.5q0 -68 -47 -162q35 17 68 23.5t78 6.5q40 0 76 -2t62 -2l20 -27q-47 -3 -85.5 -4.5t-69.5 -6.5q-26 -5 -46.5 -13.5t-34 -25t-20.5 -42t-7 -63.5q0 -39 15 -56.5t40 -17.5q27 0 50.5 10.5
t45.5 26.5t44.5 34t46.5 33v-38q-80 -86 -198 -141q-16 0 -32.5 10t-29.5 27.5t-21.5 40t-8.5 46.5q0 65 49 157q-35 -17 -68 -23.5t-78 -6.5q-40 0 -76 2t-63 2l-20 26q35 4 73 4t73 5q24 3 45 10.5t36 22t24 36.5t9 55q0 98 -54 98q-26 0 -49 -11t-44.5 -26.5t-44 -34
t-47.5 -33.5v37z" />
    <glyph glyph-name="Y" unicode="Y" horiz-adv-x="409" 
d="M342 208q-23 40 -48 40q-20 0 -48 -18t-71 -44q64 -117 122 -199q12 54 22.5 108t22.5 113zM325 307q16 0 31 -6.5t26 -17.5t18 -26.5t7 -33.5q-15 -89 -30 -161.5t-29 -137.5q-24 -108 -52 -210t-59.5 -201t-68.5 -195.5t-79 -192.5q-13 -8 -21 -8q-14 0 -17 23
q43 103 75 196.5t59 189.5t51.5 200t52.5 227q-46 15 -75 41q-21 34 -40 71t-36.5 74.5t-33 72.5t-30.5 64q-9 4 -16.5 5t-15.5 1q-9 0 -18.5 -1t-21.5 -2q-16 4 -16 12t14 16q48 15 101 15q7 -3 15.5 -13.5t16.5 -25t15.5 -31t14.5 -31.5q18 10 37 25t39 28.5t41.5 23
t44.5 9.5z" />
    <glyph glyph-name="Z" unicode="Z" horiz-adv-x="334" 
d="M9 175q-15 -21 -15 -33q0 -13 20 -13q24 27 46.5 52t45 44t43.5 30.5t42 11.5q34 0 47.5 -15t13.5 -38q0 -52 -21 -95t-52.5 -82t-68.5 -76.5t-68 -78.5q0 -12 3.5 -16.5t8.5 -4.5q3 0 9 2q15 12 36 28.5t44 32t46 26t42 10.5q17 0 29 -11.5t16 -39.5
q-20 -108 -51.5 -197t-75.5 -173t-101.5 -170t-128.5 -188q0 -25 12 -25q7 0 19 10q62 86 129 181.5t123 196t92 203.5t37 202q-8 41 -24 53.5t-36 12.5q-29 0 -59 -16q50 55 76.5 118t30.5 143q-16 74 -92 74q-35 0 -67.5 -16t-60.5 -40t-51 -51.5t-39 -51.5zM200 474h-14
q0 19 -2 30.5t-4.5 19t-5.5 13t-6 11.5q12 32 27 32q16 0 27 -32q-8 -16 -13 -29.5t-9 -44.5zM162 442q-12 41 -39 43q-1 3 -1 7q0 18 22 20q24 -16 31 -62zM210 449l13 -6q8 19 18.5 31t25.5 16q1 3 1 9q0 8 -5 12t-20 4q-18 -23 -33 -66z" />
    <glyph glyph-name="bracketleft" unicode="[" horiz-adv-x="916" 
d="M64 353q11 -9 24.5 -27t38 -36t64 -31.5t104.5 -13.5q52 0 114 10t123 10q33 0 64.5 -5.5t58.5 -19t47.5 -37.5t32.5 -61q-45 21 -86 28t-83 7t-83.5 -3.5t-86.5 -3.5q-31 0 -67 5t-72 15t-69.5 25t-60.5 35t-44 46t-19 57zM885 65q0 -5 -4.5 -13.5t-12.5 -16.5
t-18 -13.5t-22 -5.5t-22 5.5t-18 13.5t-12.5 16.5t-4.5 13.5t4 13.5t11 17t16.5 14.5t21.5 6t23 -6t19.5 -14.5t13.5 -17t5 -13.5zM883 268q0 -5 -4.5 -13.5t-12.5 -16.5t-18 -13.5t-22 -5.5t-22 5.5t-18 13.5t-12.5 16.5t-4.5 13.5t4 13.5t11 17t16.5 14.5t21.5 6t23 -6
t19.5 -14.5t13.5 -17t5 -13.5z" />
    <glyph glyph-name="backslash" unicode="\" 
 />
    <glyph glyph-name="bracketright" unicode="]" horiz-adv-x="916" 
d="M65 274q0 5 5 13.5t13.5 17t19.5 14.5t23 6t21.5 -6t16.5 -14.5t11 -17t4 -13.5t-4.5 -13.5t-12.5 -16.5t-18 -13.5t-22 -5.5t-22 5.5t-18 13.5t-12.5 16.5t-4.5 13.5zM63 71q0 5 5 13.5t13.5 17t19.5 14.5t23 6t21.5 -6t16.5 -14.5t11 -17t4 -13.5t-4.5 -13.5
t-12.5 -16.5t-18 -13.5t-22 -5.5t-22 5.5t-18 13.5t-12.5 16.5t-4.5 13.5zM884 359q-3 -31 -19.5 -57t-43.5 -46t-60.5 -35t-69.5 -25t-72 -15t-67 -5q-45 0 -86.5 3.5t-83.5 3.5t-83 -7t-86 -28q12 37 32.5 61t47.5 37.5t58.5 19t64.5 5.5q61 0 123 -10t114 -10
q64 0 104 13.5t64.5 31.5t38 36t24.5 27z" />
    <glyph glyph-name="asciicircum" unicode="^" horiz-adv-x="260" 
d="M43 496q34 32 58 65t40 68q7 -32 29.5 -66t56.5 -63l-9 -16q-29 21 -49 40t-28 30q-9 -11 -32.5 -29t-52.5 -42z" />
    <glyph glyph-name="underscore" unicode="_" horiz-adv-x="632" 
d="M51 -55q33 26 79.5 42.5t112.5 16.5q57 0 110.5 -11t105.5 -11q43 0 119 22l4 -8q-95 -61 -138 -61q-56 0 -107 9.5t-96 9.5q-65 0 -108 -4.5t-78 -13.5z" />
    <glyph glyph-name="grave" unicode="`" horiz-adv-x="249" 
d="M45 690l24 37l136 -90l-12 -20z" />
    <glyph glyph-name="a" unicode="a" horiz-adv-x="589" 
d="M87 286q-23 -32 -34 -67t-11 -68q0 -30 11 -65q41 -96 93 -99q18 4 39.5 11.5t44.5 18t46 24t44 30.5q37 -81 87 -84q21 4 46.5 13.5t52 23t52.5 31t48 38.5q1 2 1 6q0 11 -16 13q-24 -20 -48.5 -31.5t-47 -17.5t-42.5 -9t-36 -4q-42 26 -52 58t-10 73q0 29 14.5 56.5
t32.5 50.5q15 3 30 5t36.5 4t53 3t78.5 1q7 10 7 19q0 8 -5 14h-372q-30 0 -62 -1t-62 -3.5t-56.5 -7.5t-47.5 -13q-21 -15 -21 -24t22 -9q46 10 76 10h8zM348 286q-45 -65 -45 -135q0 -8 0.5 -15.5t1.5 -15.5q-42 -32 -81 -50t-68 -20q-42 26 -52 58t-10 73q0 29 14.5 56.5
t32.5 50.5q51 9 97 9q8 0 21 -0.5t29 -1t32.5 -1t31.5 -1.5zM396 474h-14q0 19 -2 30.5t-4.5 19t-5.5 13t-6 11.5q12 32 27 32q16 0 27 -32q-8 -16 -13 -29.5t-9 -44.5zM358 442q-12 41 -39 43q-1 3 -1 7q0 18 22 20q24 -16 31 -62zM406 449l13 -6q8 19 18.5 31t25.5 16
q1 3 1 9q0 8 -5 12t-20 4q-18 -23 -33 -66z" />
    <glyph glyph-name="b" unicode="b" horiz-adv-x="421" 
d="M84 42h211q37 46 37 105q0 20 -2 37t-8.5 32t-18.5 28.5t-33 25.5q-33 -4 -78.5 -47t-99.5 -120zM109 285q-1 -18 -1.5 -28.5t-2.5 -28.5q44 42 89 69t91 37q16 0 34 -16t32 -40t23.5 -51.5t9.5 -49.5q0 -38 -11.5 -71t-34.5 -65q26 0 45.5 2.5t39.5 7.5q22 0 22 -9
q0 -8 -21 -23q-23 -10 -46.5 -15.5t-49.5 -7.5q-84 0 -138.5 -0.5t-87 -1t-46.5 -1t-18 -1.5h1q-20 -8 -46 -15l-4 9q37 33 43 157q4 66 11 129.5t18 129.5q23 140 64.5 281.5t97.5 283.5q24 60 51 117t55 112q7 4 12 4q8 0 11 -6.5t5 -15.5q-45 -105 -84.5 -215.5t-72 -223
t-56 -227t-35.5 -227.5z" />
    <glyph glyph-name="c" unicode="c" horiz-adv-x="290" 
d="M113 13q-25 0 -45.5 9t-34.5 24t-22 35t-8 42q0 16 3.5 32t8.5 35q10 24 28 49.5t42 47t52.5 35.5t60.5 14q6 0 12.5 -0.5t13.5 -1.5q12 -24 12 -45q0 -8 -3 -19t-13 -11q-13 0 -41 27q-25 -4 -47 -16.5t-38.5 -31t-26 -40.5t-9.5 -45q0 -19 7.5 -36t20.5 -29.5t30 -20
t36 -7.5q32 0 59.5 19t43.5 45q8 8 15 11t11 3q6 0 6 -7q0 -6 -8 -22q-52 -78 -133 -92q-13 -4 -33 -4zM275 564q-1 -9 -6.5 -28.5t-14 -39t-19.5 -35t-23 -16.5q10 20 15 43.5t9 46.5q5 32 13 49t15 17q11 0 11 -37z" />
    <glyph glyph-name="d" unicode="d" horiz-adv-x="410" 
d="M342 278q-49 10 -101 10q-27 0 -54 -2.5t-54 -7.5q-19 -20 -28.5 -49t-9.5 -61q0 -21 4.5 -41t14 -35.5t23.5 -25t34 -9.5q23 0 42.5 8.5t37.5 21.5t36.5 28.5t39.5 29.5zM44 151q0 32 10 64t27 64q-30 0 -76 -10q-22 0 -22 9t21 24q13 8 38 14t55.5 10t64.5 6t67 2
q36 0 66.5 -2t49.5 -7q37 415 95 539q45 94 124 164q4 2 11 2q11 0 11 -11q0 -6 -5 -16q-33 -42 -57 -83.5t-41 -83.5q-21 -75 -41.5 -215.5t-40.5 -351.5q-11 -117 -20 -204t-18 -144q-14 -92 -41.5 -194.5t-63.5 -207t-78.5 -205t-86.5 -187.5q-8 -5 -14 -5q-13 0 -14 23
q49 109 91.5 229.5t75.5 243t55.5 243t33.5 230.5q-45 -43 -88 -69t-91 -35q-17 0 -34 16t-31.5 39.5t-23.5 50.5t-9 50v8z" />
    <glyph glyph-name="e" unicode="e" horiz-adv-x="385" 
d="M385 27q-16 -140 -67 -226q-52 -85 -171 -95q-80 2 -125.5 43.5t-58.5 128.5q0 92 93 215q12 16 22.5 28.5t24.5 28.5q-11 2 -23 15t-22 31t-16.5 38t-6.5 36q0 28 11.5 63.5t30 74t43.5 78.5t52 77t54.5 70t51.5 57q48 48 102 91t116 84q10 -1 13 -4.5t3 -9.5t-1 -9
q-59 -43 -108.5 -85t-91.5 -84q-33 -34 -70 -84.5t-69 -104t-53 -104.5t-21 -87q0 -29 9.5 -56t29.5 -49q37 35 81.5 72t101.5 74q15 -3 15 -13q0 -7 -6 -16q-72 -57 -128.5 -115t-99.5 -121q-70 -103 -70 -160q0 -62 33.5 -104t93.5 -50q87 8 127 75q39 64 56 171
q-30 13 -30 38q0 7 3 15l67 -21z" />
    <glyph glyph-name="f" unicode="f" horiz-adv-x="451" 
d="M78 195q2 28 7 50.5t23 45.5q-38 0 -84 -10q-21 0 -21 9q0 7 21 24q23 10 48 16t47 6q103 0 163.5 0.5t93.5 4t46.5 10.5t23.5 20l-7 -83h-259q-17 -22 -27 -48.5t-10 -55.5q0 -24 5.5 -47t17 -41t30 -29t44.5 -11q35 0 71.5 13.5t77.5 36.5q7 -10 7 -20q0 -11 -7 -23
q-96 -64 -195 -66q-18 1 -33 11t-31 35q-13 -123 -38 -239.5t-62 -229.5t-86 -224.5t-109 -224.5q-8 -2 -11 -2q-5 0 -9 4t-6 15q54 126 99 248.5t79.5 246.5t57 251t30.5 264q2 18 2 27q0 10 1 16zM324 474h-14q0 19 -2 30.5t-4.5 19t-5.5 13t-6 11.5q12 32 27 32
q16 0 27 -32q-8 -16 -13 -29.5t-9 -44.5zM286 442q-12 41 -39 43q-1 3 -1 7q0 18 22 20q24 -16 31 -62zM334 449l13 -6q8 19 18.5 31t25.5 16q1 3 1 9q0 8 -5 12t-20 4q-18 -23 -33 -66z" />
    <glyph glyph-name="g" unicode="g" horiz-adv-x="343" 
d="M328 336q9 -18 9 -43q0 -17 -2 -46.5t-6 -61.5t-10 -61t-13 -45q-10 -23 -28.5 -39.5t-41.5 -27t-48.5 -15.5t-50.5 -5q-37 0 -62.5 16t-41.5 44t-23 67t-7 86q0 64 11 139t28.5 151.5t39 151t42.5 137.5t38 111t27 72q24 60 51 117t55 112q10 4 12 4q8 0 11 -7t5 -15
q-45 -105 -84.5 -215.5t-72 -223t-56 -227t-35.5 -227.5q-3 -17 -5 -36t-2 -39q0 -27 4 -53t14 -47t25.5 -34.5t39.5 -16.5q11 0 25.5 0.5t29.5 4.5t30 12.5t26 24.5q9 13 15 31.5t9 38.5t4.5 38.5t1.5 31.5q0 16 -5 24.5t-14 13t-21 6t-25 4.5q-17 8 -17 16q0 7 18 18
l100 13v0z" />
    <glyph glyph-name="h" unicode="h" horiz-adv-x="375" 
d="M277 338q17 0 33.5 -10.5t29 -28.5t20.5 -41t8 -47q0 -39 -12 -78t-34 -88q-10 -21 -26 -34.5t-35 -16.5q-24 37 -24 55q0 17 13 17q10 0 30 -15q22 25 30 67.5t8 84.5q0 27 -15.5 45t-41.5 18q-23 0 -44 -9t-41.5 -22.5t-40 -29.5t-39.5 -30q-4 -36 -6.5 -55t-4 -34
t-4 -31.5t-6.5 -47.5l-75 -12q18 99 29.5 170t19 125t10.5 95t4 79q2 90 24.5 167t60.5 142.5t88.5 120t109 101t121.5 85t126 71.5q13 -6 13 -14q0 -6 -7 -16q-55 -35 -111 -72t-108.5 -80t-98 -93t-80.5 -111t-56 -134.5t-24 -162.5q-2 -61 -6 -122t-13 -124q37 36 79 64
t96 52z" />
    <glyph glyph-name="i" unicode="i" horiz-adv-x="160" 
d="M48 280q8 18 25 39.5t44 31.5l9 -49q-12 -21 -19.5 -64.5t-13 -90.5t-8.5 -87.5t-5 -55.5l-73 -3q4 16 9 39t9.5 50t7.5 56.5t5 58.5zM97 576q9 -4 18.5 -17t9.5 -35q0 -12 -4 -26.5t-14 -31.5l-30 -26q-8 20 -11.5 37t-3.5 31q0 31 11.5 48.5t23.5 19.5z" />
    <glyph glyph-name="j" unicode="j" horiz-adv-x="251" 
d="M108 630q13 31 28 31q12 0 18.5 -17t6.5 -41q0 -18 -3 -43t-3 -39q0 -26 7 -50q-16 8 -26.5 25.5t-17 37.5t-9 41t-2.5 36zM200 339q-65 0 -115 -9.5t-85 -29.5q-13 -9 -13 -17q0 -9 21 -13q29 7 52.5 13.5t46.5 6.5t46 -10q6 -13 11 -32t8.5 -40.5t5.5 -44t2 -41.5
q0 -52 -5.5 -109.5t-16 -118t-25 -121.5t-31.5 -120q-21 -71 -44 -140.5t-47 -135.5t-47 -126.5t-42 -113.5q3 -23 15 -23q5 0 13 6q37 73 73.5 156.5t69 172t61 180t49 180.5t32 173t11.5 158q0 23 -2 53.5t-7 60t-14 53t-23 32.5z" />
    <glyph glyph-name="k" unicode="k" horiz-adv-x="363" 
d="M0 -5q18 99 29.5 170t19 125t10.5 95t4 79q3 136 31.5 240.5t80.5 186t126.5 143t168.5 111.5q16 -1 16 -11q0 -8 -10 -19q-83 -52 -147 -109.5t-109 -132.5t-70 -173.5t-29 -231.5q-1 -30 -2.5 -61.5t-4 -66t-7 -73t-10.5 -84.5q9 25 27 52t42.5 49.5t54 37t61.5 14.5
q6 0 12.5 -0.5t13.5 -1.5q12 -24 12 -45q0 -8 -3 -19t-13 -11q-13 0 -41 27q-25 -4 -47 -16.5t-38.5 -31t-26 -40.5t-9.5 -45q0 -19 7.5 -36t20.5 -29.5t30 -20t36 -7.5q32 0 59.5 19t43.5 45q8 8 15 11t11 3q6 0 6 -7q0 -6 -8 -22q-52 -78 -133 -92q-13 -4 -33 -4
q-46 0 -75 27t-34 66l-13 -99z" />
    <glyph glyph-name="l" unicode="l" horiz-adv-x="551" 
d="M376 354q-8 -26 -8 -52q0 -36 11 -77t28 -80t36 -71.5t36 -51.5q40 0 79 22q9 -5 9 -15q0 -5 -2.5 -11t-6.5 -11q-17 -8 -28.5 -13t-20.5 -8t-18.5 -4.5t-21.5 -1.5q-5 0 -10 0.5t-10 1.5q-22 0 -54 66.5t-78 184.5q-75 -114 -130 -176t-87 -66q-37 2 -61 6t-49 15
q-6 7 -6 16q0 8 8 12q29 -9 53.5 -10.5t41.5 -2.5q26 12 46.5 30t41 44t42.5 61t50 81q18 29 33.5 65.5t28.5 74t23.5 73.5t17.5 65q22 89 30 151.5t10 95.5q-3 33 -23 33q-18 0 -29.5 -11t-18.5 -28t-9.5 -38.5t-2.5 -42.5q0 -63 21 -159q-4 -14 -14 -14q-4 0 -10 3
q-39 106 -39 183q0 25 6 52.5t18.5 50.5t32 37.5t47.5 14.5q15 0 30 -6.5t27 -17.5t19.5 -27.5t7.5 -35.5q0 -38 -21 -140.5t-76 -267.5z" />
    <glyph glyph-name="m" unicode="m" horiz-adv-x="705" 
d="M189 325q-65 0 -115 -9.5t-85 -29.5q-13 -9 -13 -17q0 -9 24 -13q27 8 48.5 13.5t42.5 5.5q24 0 51 -9q15 -37 21 -74.5t6 -76.5q0 -49 -7.5 -99t-17.5 -103q-37 -195 -96 -394t-140 -382q1 -23 14 -23q6 0 14 6q55 104 99.5 213.5t80 221.5t62 225.5t47.5 224.5
q42 1 83.5 1.5t91.5 0.5q45 0 92 -2t98 -2q31 0 58 5t47 13.5t31 18.5t11 21q0 6 -11 8q-41 -25 -67 -28q46 103 46 199v13t-1 13q-8 39 -26 54.5t-42 15.5q-17 0 -35.5 -6t-37 -15t-37 -20.5t-35.5 -22.5q-15 33 -34 46.5t-40 13.5q-24 0 -49 -12.5t-49.5 -30.5
t-47.5 -36.5t-41 -30.5q-5 35 -15.5 60t-25.5 43zM229 39q3 27 4 56.5t1 81.5q22 13 42 28t39.5 28t40 22t44.5 9q19 0 33 -10t20 -34q0 -28 -5 -59t-11 -57t-11.5 -43l-5.5 -17v1q-53 0 -100.5 -1t-90.5 -5zM660 183q0 -36 -10.5 -77t-27.5 -67q-49 2 -89 3.5t-75 2.5
q23 50 34 89t11 77v11q0 6 -1 12q25 13 51 28t54 15q18 0 28.5 -9t16 -22.5t7 -30.5t1.5 -32zM214 370q23 30 62.5 42.5t91.5 12.5q30 0 61.5 -2t61.5 -5t56 -5t46 -2q27 0 56 5.5t45 11.5q-7 -17 -26.5 -28t-45 -17.5t-52 -9t-47.5 -2.5q-22 0 -48.5 1.5t-53.5 4t-51.5 4
t-41.5 1.5q-26 0 -44 -1t-31 -2.5t-22 -3.5t-17 -5zM461 448q0 29 3.5 48t8 30.5t9.5 16t8 4.5q12 -15 12 -39q0 -13 -3.5 -27.5t-8.5 -28.5z" />
    <glyph glyph-name="n" unicode="n" horiz-adv-x="499" 
d="M-7 256q-21 4 -21 13q0 8 13 17q35 20 84.5 29.5t115.5 9.5q32 -34 41 -107q37 36 80.5 66t95.5 53q25 -6 42.5 -19t28.5 -31.5t16.5 -41t5.5 -47.5q0 -23 -6 -56.5t-19 -65t-33 -55.5t-48 -28q-24 37 -24 55q0 17 13 17q10 0 30 -15q9 11 16 26t11 31.5t6 33.5t2 32
q0 37 -12.5 63.5t-43.5 26.5q-22 0 -42 -9t-39 -22t-37.5 -28t-38.5 -27q-17 -281 -93 -541.5t-205 -515.5q-10 -7 -17 -7q-5 0 -8 5t-3 19q48 115 91.5 237t77.5 246.5t58 250.5t33 250q0 50 -8 88.5t-18 56.5q-23 10 -49 10q-22 0 -45 -6t-48 -14h-3zM309 470h-14
q0 19 -2 30.5t-4.5 19t-5.5 13t-6 11.5q12 32 27 32q16 0 27 -32q-8 -16 -13 -29.5t-9 -44.5zM271 438q-12 41 -39 43q-1 3 -1 7q0 18 22 20q24 -16 31 -62zM319 445l13 -6q8 19 18.5 31t25.5 16q1 3 1 9q0 8 -5 12t-20 4q-18 -23 -33 -66z" />
    <glyph glyph-name="o" unicode="o" horiz-adv-x="360" 
d="M293 201q0 32 -16.5 59.5t-52.5 49.5q-80 -18 -116.5 -58.5t-36.5 -103.5q0 -75 65 -129q78 28 117.5 71.5t39.5 110.5zM353 197q0 -42 -13 -78.5t-36 -64.5t-54.5 -44t-69.5 -16t-70 12t-55.5 35t-37 56t-13.5 75q8 82 54.5 123.5t118.5 41.5q34 0 66 -9t56.5 -26.5
t39 -44t14.5 -60.5z" />
    <glyph glyph-name="p" unicode="p" horiz-adv-x="539" 
d="M446 172q0 35 -13.5 61t-45.5 26q-19 0 -37 -7.5t-36 -19t-35.5 -24.5t-34.5 -23v-60t-1 -40.5t-2 -28t-2 -21.5q21 1 38 1.5t35 0.5q26 0 44.5 1.5t32.5 7t24 16.5t19 30q14 40 14 80zM200 325q31 -34 40 -96q36 32 75.5 58t86.5 47h1q16 0 32.5 -10t29.5 -26.5
t21 -38.5t8 -46q0 -35 -14.5 -79t-41.5 -98q57 9 101 38q8 -5 8 -11q0 -17 -18.5 -28.5t-42.5 -19t-47.5 -11t-33.5 -3.5q-53 1 -93.5 1.5t-76.5 1.5q-14 -110 -41 -223.5t-64.5 -226.5t-83.5 -222.5t-99 -211.5q-8 -2 -12 -2q-5 0 -9.5 4t-6.5 15q49 115 95.5 233.5
t83 241.5t59 250t22.5 259q0 50 -8 88.5t-18 56.5q-23 10 -49 10q-22 0 -45 -6t-51 -14q-21 4 -21 13q0 7 13 17q36 20 85.5 29.5t114.5 9.5zM150 393q18 29 49.5 41t73.5 12q24 0 49 -2t49 -4.5t45 -4.5t37 -2q21 0 44 5t36 11q-5 -16 -21 -26.5t-36.5 -17t-42 -9
t-37.5 -2.5q-17 0 -38.5 1.5t-42.5 4t-40.5 4t-33.5 1.5q-41 0 -59.5 -3.5t-31.5 -8.5zM351 471q0 29 3.5 48t8 30.5t9.5 16t8 4.5q12 -15 12 -39q0 -13 -3.5 -27.5t-8.5 -28.5z" />
    <glyph glyph-name="q" unicode="q" horiz-adv-x="394" 
d="M329 278q-26 5 -53 7.5t-54 2.5q-54 0 -104 -10q-17 -23 -27.5 -52.5t-10.5 -59.5q0 -34 15 -65t48 -51q68 7 171 97zM223 338q30 0 57.5 -1t48 -2.5t33 -3.5t13.5 -3h-1q20 8 46 15l4 -9q-36 -31 -44 -157q-16 -272 -91.5 -538t-204.5 -514q-8 -5 -15 -5q-11 0 -13 22
q44 105 84 215.5t72.5 223t56 227t34.5 227.5q2 18 2.5 28.5t2.5 29.5q-44 -43 -88.5 -70t-86.5 -36q-52 3 -93 99q-11 35 -11 65q0 65 45 128q-38 0 -84 -10q-22 0 -22 9t21 24q18 10 44.5 17t57.5 11.5t65 6t67 1.5zM227 474h-14q0 19 -2 30.5t-4.5 19t-5.5 13t-6 11.5
q12 32 27 32q16 0 27 -32q-8 -16 -13 -29.5t-9 -44.5zM189 442q-12 41 -39 43q-1 3 -1 7q0 18 22 20q24 -16 31 -62zM237 449l13 -6q8 19 18.5 31t25.5 16q1 3 1 9q0 8 -5 12t-20 4q-18 -23 -33 -66z" />
    <glyph glyph-name="r" unicode="r" horiz-adv-x="472" 
d="M391 336q65 -5 92 -102q-12 -31 -28 -31q-10 0 -22 14q-6 28 -50 55q-20 -8 -44.5 -18.5t-47 -25.5t-40.5 -34t-27 -43q-8 -143 -31.5 -272t-61.5 -253.5t-91 -248t-120 -253.5q-8 -5 -14 -5q-13 0 -14 22q52 127 99.5 250t83.5 247t57 252.5t21 265.5q0 14 -1.5 33.5
t-6 37.5t-13 30.5t-22.5 12.5q-16 0 -43 -4t-65 -13q-16 4 -16 13q0 5 8 13l155 46q20 -4 37 -24t34 -72q42 26 82.5 56.5t88.5 50.5z" />
    <glyph glyph-name="s" unicode="s" horiz-adv-x="644" 
d="M317 338q33 -3 66 -5.5t63.5 -4.5t56.5 -3t45 -1h46q24 0 47 2q32 -3 32 -15t-29 -25q-39 -3 -77.5 -4t-75.5 -1q-57 0 -109.5 3t-103.5 10q-185 -112 -185 -168q0 -19 16.5 -32t50 -23.5t83.5 -19.5t118 -20q52 -8 95.5 -17.5t75 -24.5t49.5 -39.5t18 -62.5
q0 -33 -27.5 -59.5t-70.5 -45.5t-95.5 -29.5t-101.5 -10.5q-24 0 -49.5 2.5t-47.5 10t-36 20.5t-14 35q0 14 9.5 28t40.5 33q-4 -13 -4 -28q0 -38 33 -56t83 -18q36 0 74 8t69.5 21.5t52 30.5t20.5 36q0 34 -21.5 50t-54 24t-71 12t-72.5 14q-75 18 -130.5 26t-93.5 18
t-60 27.5t-32 53.5q0 88 241 208q-46 -5 -86 -17t-87 -32q-20 5 -20 13q0 7 14 19q40 18 71.5 29.5t60.5 17.5t58 8t65 2z" />
    <glyph glyph-name="t" unicode="t" horiz-adv-x="750" 
d="M269 343q20 32 50.5 69t66.5 74.5t75.5 72t77 61t71 42.5t57.5 16q14 0 30 -4t29 -13.5t22 -25t10 -38.5q-1 -20 -9.5 -36.5t-21.5 -28.5t-28 -19t-28 -7q-24 0 -43 15.5t-19 47.5q0 28 17.5 42t38.5 14q14 0 25.5 -12t11.5 -25q0 -16 -20 -23q-3 14 -10 21t-15 7
q-7 0 -14 -10t-8 -22q0 -11 10 -21t21 -13q26 3 38.5 22t12.5 40q0 20 -12 36.5t-36 16.5q-21 0 -45 -9.5t-44 -21.5q-33 -20 -71 -49t-76 -64t-73.5 -76t-64.5 -85q22 0 56.5 -5.5t74.5 -12t82 -11.5t78 -5q25 0 44 3t36 9.5t34.5 17.5t39.5 27q8 7 11.5 8t11.5 1
q-13 -35 -42 -58.5t-61 -37.5t-59 -20.5t-35 -6.5q-27 0 -58 3.5t-61.5 8.5t-60 10.5t-54.5 8.5q-47 -42 -76.5 -78.5t-46.5 -70t-23 -65.5t-6 -66q0 -41 18 -71t47.5 -49.5t67.5 -29.5t78 -10q49 0 92.5 12.5t76.5 38.5t52 66t19 96q0 26 -10 40t-33 14q-20 0 -29.5 -12.5
t-9.5 -28.5q0 -18 11 -32q4 -5 13 -12.5t9 -13.5q0 -3 -4.5 -5.5t-18.5 -4.5q-24 4 -35.5 20.5t-11.5 36.5q0 27 20 51.5t57 24.5q41 0 55.5 -22t14.5 -56q0 -64 -20 -112.5t-55 -81.5t-82 -50t-100 -17q-58 0 -111 14t-93.5 41.5t-64.5 68t-24 94.5q0 60 49 129.5
t152 150.5q-32 3 -62 3q-23 0 -46 -2t-44 -6q-33 -7 -71.5 -19t-83.5 -31q-2 0 -3 -0.5t-2 -0.5q-7 0 -7 6q0 5 5 12.5t8 9.5q23 19 59 34.5t74.5 26.5t74 17t57.5 6z" />
    <glyph glyph-name="u" unicode="u" horiz-adv-x="384" 
d="M301 279q19 38 80 57l10 -50q-15 -9 -24.5 -39.5t-11.5 -64.5q-4 -63 -8 -107.5t-9 -68.5l-79 -7q11 37 18 89q-42 -44 -84 -67.5t-84 -28.5q-54 20 -80 69t-26 105q0 29 7.5 58t22.5 52.5t37.5 39.5t52.5 20q6 -4 11 -11t9 -16t6.5 -18t2.5 -16q0 -14 -10 -14
q-13 0 -38 21q-29 -14 -40 -38t-11 -53q0 -19 3 -42t11.5 -42.5t23.5 -32.5t39 -13t42.5 7.5t35.5 20t35 28t41 30.5z" />
    <glyph glyph-name="v" unicode="v" horiz-adv-x="480" 
d="M308 271q28 41 53.5 56t48.5 17q24 0 44 -4t41 -27q-2 -21 -17 -28q-9 5 -18.5 6.5t-18.5 1.5q-20 0 -34 -5t-24.5 -14.5t-20 -23.5t-20.5 -32q-34 -57 -61.5 -114t-55.5 -104q-29 65 -53 112.5t-43 82.5q-28 52 -46.5 73t-42.5 21q-15 0 -35 -7q-8 2 -12.5 6.5
t-4.5 19.5q26 21 44 26t33 5q12 0 25.5 -14t32 -41t43 -65.5t59.5 -87.5q17 27 37 65t46 75z" />
    <glyph glyph-name="w" unicode="w" horiz-adv-x="634" 
d="M148 287q-45 -58 -45 -122q0 -45 20 -76.5t56 -31.5q23 0 45 12t48 29q-9 31 -9 63q0 67 43 128zM352 289q-37 -46 -37 -106q0 -20 3.5 -41t12 -38t22.5 -28t35 -11q18 0 37 8q54 23 121 81q1 9 2 19l2.5 25t4 36.5t6.5 54.5h-209zM661 357q-43 -62 -49 -170
q-3 -65 -10.5 -129t-18.5 -130q-17 -99 -43 -202.5t-59.5 -206t-75 -202.5t-90.5 -192q-6 -2 -9 -2q-14 0 -19 19q57 128 102.5 263.5t80.5 274.5l17.5 75t20.5 100t18.5 117.5t13.5 127.5q-44 -42 -87.5 -67.5t-85.5 -36.5q-25 2 -44.5 19t-35.5 46q-35 -29 -73 -46
t-76 -21q-23 7 -40.5 23t-29 37t-17.5 45.5t-6 50.5q0 40 15 76.5t45 59.5q-53 -3 -103 -16q-21 3 -21 11q0 10 27 25q16 7 41 12.5t72.5 9t124.5 5t198 1.5q64 0 106 1.5t60 5.5q8 4 20 8t31 8z" />
    <glyph glyph-name="x" unicode="x" horiz-adv-x="525" 
d="M0 269q40 43 89 78.5t108 62.5q15 0 31.5 -9.5t30 -25.5t22 -37.5t8.5 -45.5q0 -68 -47 -162q35 17 68 23.5t78 6.5q40 0 76 -2t62 -2l20 -27q-47 -3 -85.5 -4.5t-69.5 -6.5q-26 -5 -46.5 -13.5t-34 -25t-20.5 -42t-7 -63.5q0 -39 15 -56.5t40 -17.5q27 0 50.5 10.5
t45.5 26.5t44.5 34t46.5 33v-38q-80 -86 -198 -141q-16 0 -32.5 10t-29.5 27.5t-21.5 40t-8.5 46.5q0 65 49 157q-35 -17 -68 -23.5t-78 -6.5q-40 0 -76 2t-63 2l-20 26q35 4 73 4t73 5q24 3 45 10.5t36 22t24 36.5t9 55q0 98 -54 98q-26 0 -49 -11t-44.5 -26.5t-44 -34
t-47.5 -33.5v37z" />
    <glyph glyph-name="y" unicode="y" horiz-adv-x="400" 
d="M211 -228q2 -15 4 -36.5t4 -41.5q14 49 24.5 101.5t24.5 115.5q0 12 -3 24.5t-8 24t-10.5 20.5t-11.5 13q0 -34 -8.5 -86.5t-15.5 -134.5zM336 233q-3 40 -39 40q-11 0 -22 -3.5t-25 -11t-33.5 -19.5t-47.5 -28q64 -117 122 -199q12 54 22.5 108t22.5 113zM177 -242
q0 5 2.5 31t6 63t9.5 80.5t14 84.5q-42 67 -73.5 132.5t-62.5 125.5q-2 2 -6.5 3.5t-17.5 1.5q-8 0 -18.5 -0.5t-27.5 -1.5l-9 3t-3 6q0 7 8 19q22 6 40.5 10t35.5 4q27 0 48.5 -15t33.5 -59q18 10 37 25.5t39.5 29t42.5 23.5t45 10q30 0 55 -25.5t25 -73.5
q-5 -59 -22.5 -150t-43.5 -197.5t-58.5 -219.5t-66.5 -217t-68 -189.5t-63 -136.5q-5 -3 -9 -5.5t-9 -2.5q-12 0 -20 23q29 66 53 132t45 135q8 27 17 58.5t18 65.5t18 68.5t18 66.5q-14 20 -23.5 46t-9.5 46z" />
    <glyph glyph-name="z" unicode="z" horiz-adv-x="310" 
d="M-3 175q-15 -21 -15 -33q0 -13 20 -13q24 27 46.5 52t45 44t43.5 30.5t42 11.5q34 0 47.5 -15t13.5 -38q0 -52 -21 -95t-52.5 -82t-68.5 -76.5t-68 -78.5q2 -9 6.5 -14t14.5 -5q15 12 36 28.5t44 32t46 26t42 10.5q17 0 29 -11.5t16 -39.5q-20 -108 -51.5 -197
t-75.5 -173t-101.5 -170t-128.5 -188q0 -25 16 -25q6 0 12 3q72 102 140.5 203t122.5 200t87 196t34 191q-8 41 -24 53.5t-36 12.5q-29 0 -59 -16q50 55 76.5 118t30.5 143q-16 74 -92 74q-35 0 -67.5 -16t-60.5 -40t-51 -51.5t-39 -51.5zM188 474h-14q0 19 -2 30.5t-4.5 19
t-5.5 13t-6 11.5q12 32 27 32q16 0 27 -32q-8 -16 -13 -29.5t-9 -44.5zM150 442q-12 41 -39 43q-1 3 -1 7q0 18 22 20q24 -16 31 -62zM198 449l13 -6q8 19 18.5 31t25.5 16q1 3 1 9q0 8 -5 12t-20 4q-18 -23 -33 -66z" />
    <glyph glyph-name="asciitilde" unicode="~" horiz-adv-x="612" 
d="M49 350q-1 5 -1 8v8q0 32 13.5 52.5t37 32.5t54 16.5t63.5 4.5q31 0 63 -3t60.5 -6t52.5 -6t39 -3q30 0 60.5 7.5t78.5 24.5q-15 -26 -29.5 -42t-29.5 -25t-31 -12t-35 -3q-38 0 -69.5 2.5t-61.5 6.5t-62.5 7.5t-72.5 5.5q-45 -9 -75.5 -29t-44.5 -49z" />
    <glyph glyph-name="dieresis" unicode="&#xa8;" horiz-adv-x="297" 
d="M81 451q9 -4 18.5 -17t9.5 -35q0 -12 -4 -26.5t-14 -31.5l-30 -26q-8 20 -11.5 37t-3.5 31q0 31 11.5 48.5t23.5 19.5zM226 451q9 -4 18.5 -17t9.5 -35q0 -12 -4 -26.5t-14 -31.5l-30 -26q-8 20 -11.5 37t-3.5 31q0 31 11.5 48.5t23.5 19.5z" />
    <glyph glyph-name="copyright" unicode="&#xa9;" horiz-adv-x="1502" 
d="M1415 710q5 0 7 2t2 4q0 4 -4 5q-1 1 -6 1h-7v-12h8zM1401 727h13q13 0 14 -5q2 -2 2 -6t-3 -7q-2 -2 -8 -4l4 -2q2 -2 5 -8l5 -7h-8l-3 6q-5 8 -7 9q-1 1 -5 1h-3v-16h-6v39zM1416 739q-7 0 -14 -4t-11 -12q-4 -7 -4 -15q0 -15 15 -27q7 -4 14 -4q8 0 15 4.5t11 11.5
t4 15q0 13 -9 22t-21 9zM1416 745q20 0 31 -19q5 -8 5 -18q0 -9 -4.5 -18t-13.5 -14q-10 -5 -18 -5t-17 5t-14 14q-4 8 -4 18q0 15 10.5 26t24.5 11zM1342 58v11h11v-11h-11zM945 58v66h9v-10q6 11 12 11q8 0 12 -4l-4 -10l-6 2l-2 1q-8 0 -9 -9q-1 -1 -1 -14v-33h-11z
M1182 58v90h11v-90h-11zM988 58v55h-10v11h10v15q3 5 6 7.5t11 2.5q9 0 10 -1l-2 -12q-2 2 -7 2q-8 0 -8 -10v-4h13v-11h-13v-55h-10zM887 90q0 -23 18 -23q17 0 17 23q0 24 -17 24q-18 0 -18 -24zM1028 90q0 -23 17 -23q18 0 18 23q0 24 -18 24q-17 0 -17 -24zM1330 80
q-6 -24 -27 -24q-27 0 -27 34q0 35 27 35q19 0 25 -21l-10 -1q-9 11 -15 11q-16 0 -16 -24q0 -23 16 -23q14 0 16 15zM1213 58v66h11v-10q6 11 19 11q9 0 13 -4.5t7 -12.5q1 -1 1 -11v-39h-11v38q0 18 -13 18q-16 0 -16 -23v-33h-11zM1086 58v90h10v-50l23 26h16l-25 -26
l27 -40h-14l-20 32l-7 -7v-25h-10zM795 58v90h10l46 -72v72h11v-90h-12l-45 70v-70h-10zM1017 90q0 18 8 26.5t20 8.5t20.5 -8.5t8.5 -25.5q0 -20 -9 -27.5t-20 -7.5q-28 0 -28 34zM876 90q0 18 8 26.5t21 8.5q12 0 20 -8.5t8 -25.5q0 -20 -8.5 -27.5t-19.5 -7.5
q-29 0 -29 34zM1013 492q-24 -2 -42.5 -16.5t-23.5 -40.5q0 -17 12.5 -29.5t37.5 -12.5q40 0 62.5 18t22.5 40q0 25 -22 48t-54 29zM1007 584q58 -20 82 -56t24 -102q0 -18 -9.5 -33t-23.5 -26t-32 -17t-34 -6q-8 0 -12 1q-4 -7 -14 -7q-29 3 -44.5 16t-23 29t-9 31.5
t-1.5 22.5q-1 5 -1 12q0 17 7.5 35.5t19.5 34t26 27t26 13.5l11 -13zM363 432q-24 -2 -42.5 -16.5t-23.5 -40.5q0 -17 12.5 -29.5t37.5 -12.5q40 0 62.5 18t22.5 40q0 25 -22 48t-54 29zM458 557l1.5 -2.5t5 -9.5t9 -20.5t13.5 -36.5q8 -12 8 -32v-10t-1 -11q4 13 6 25t5 23
t7 22.5t12 24.5q9 8 24 10.5t50 2.5l8 -13q6 16 12 16q5 0 5 -19q0 -11 -4 -24t-15 -19q-17 -3 -27 -5.5t-16.5 -5.5t-11.5 -7.5t-12 -11.5q-2 -24 -11 -47t-9 -49q0 -5 0.5 -9t1.5 -9q-2 -14 -8.5 -24t-21.5 -15q-4 5 -6 11t-5 13q-10 46 -14.5 69t-5.5 42q0 9 -2.5 21.5
t-6 26t-6 26t-2.5 20.5q0 5 5 14.5t12 12.5zM355 522q54 -21 80 -62t26 -96q0 -18 -9.5 -33t-23.5 -26t-32 -17t-34 -6q-8 0 -12 1q-4 -7 -14 -7q-29 3 -44.5 16t-23 29t-9 31.5t-1.5 22.5q-1 5 -1 12q0 17 7.5 35.5t19.5 34t26 27t26 13.5l11 -13zM213 724q19 -5 31 -23.5
t19 -44.5t9.5 -56.5t2.5 -58.5q0 -26 -1.5 -47t-3.5 -32q-2 -14 -8.5 -30.5t-13.5 -34.5t-12 -37.5t-5 -39.5v-10q0 -5 2 -16q0 -18 -9 -18q-10 0 -24.5 17t-24.5 34q-19 32 -33.5 70.5t-32.5 82.5v-27q0 -2 -0.5 -14.5t-2 -31.5t-4.5 -42.5t-7 -46.5q0 -3 -2.5 -13.5
t-7.5 -22t-12 -21.5t-15 -13q-4 4 -6 12.5t-2 15.5q0 6 1 8q5 59 8.5 101.5t5.5 76.5t3 63t1 61q0 23 5 38t13 15t13.5 -6.5t9.5 -16.5t8 -22.5t9 -23.5q8 -27 13.5 -45t10 -33t10.5 -32t16 -42q4 -9 7.5 -19t11.5 -19q7 15 11.5 25t8 20.5t6 24t6.5 35.5q6 34 6 65
q0 34 -8.5 64.5t-28.5 59.5q-7 12 -7 26q0 7 2.5 13t10.5 9zM1173 515q46 38 74 74.5t47 75.5q9 20 19 37.5t18 17.5l19 -48q-6 -15 -11 -30.5t-11 -30.5t-15 -30t-22 -28q-21 -21 -48.5 -49t-47.5 -62q-7 0 -14 -16q12 0 32.5 -9t42.5 -20t41.5 -22t28.5 -16
q9 -20 14.5 -32t8 -18t3 -8t0.5 -3q0 -6 -6 -6q-14 0 -32 7.5t-37.5 17.5t-38 19.5t-31.5 14.5q-11 4 -19.5 7.5t-18.5 7.5q-2 -33 -4.5 -50t-2.5 -27q-3 -25 -2 -46t-4 -21q-3 0 -11 13t-24 45q0 3 -0.5 32.5t-0.5 68.5v52q0 27 2 50q1 14 1.5 29.5t0.5 32.5q0 45 -1.5 94
t-2.5 85q4 21 11 21q6 0 13.5 -18t13.5 -42.5t10 -49t5 -36.5v-84v0zM512 629q36 30 61 76.5t40 98.5t22 104t7 93q17 -45 27 -111.5t10 -138.5q0 -31 -2 -56t-7 -61q29 16 52.5 20t40.5 4q35 0 59 -18t53 -46q-25 5 -46 13t-45 8q-21 0 -47 -8.5t-65 -32.5l-6 -69l39 44
q28 31 74 31q21 0 43 -8.5t39 -25.5t28 -42t11 -57q-4 -44 -21 -78t-42 -59.5t-55 -45t-60 -35.5q-35 -19 -67 -35t-56.5 -36.5t-39 -48.5t-14.5 -70q0 -33 16 -61t41.5 -48.5t57 -32t62.5 -11.5q-13 -5 -23.5 -6t-23.5 -1q-36 0 -69.5 14t-59 37t-41 53.5t-16.5 64.5
q1 45 25.5 75t59.5 51.5t74 39t70 38.5q32 14 56.5 36.5t40.5 49t24 55t8 55.5q0 37 -17.5 62t-55.5 33q-22 0 -37 -4.5t-26.5 -12.5t-21.5 -20.5t-22 -28.5q-5 -6 -8 -25.5t-12 -45.5q-32 -97 -56.5 -144.5t-41.5 -56.5q28 54 44 116t23 116q7 55 15 132l-9 1
q-11 0 -26 -2.5t-31.5 -6.5t-33 -8.5t-29.5 -8.5q0 14 14.5 27t35 23.5t43 18t39.5 10.5q1 33 2 51.5t2 28.5t1.5 13t0.5 5q2 18 3.5 40t1.5 43q0 9 -0.5 17t-1.5 16q-2 -23 -7 -53t-19 -60.5t-41 -59t-74 -47.5l10 12v0z" />
    <glyph glyph-name="guillemotleft" unicode="&#xab;" horiz-adv-x="636" 
d="M527 343q7 0 19.5 -1.5t26.5 -5.5t26.5 -10.5t20.5 -16.5v-28q-19 6 -35.5 10t-33.5 4q-36 0 -61 -14.5t-45.5 -36.5t-40.5 -48t-44.5 -48t-58 -36.5t-81.5 -14.5q-44 0 -94.5 7t-107.5 16v38q74 0 118.5 3.5t70 8.5t37.5 12t22 15q29 22 55.5 48t51.5 42q34 23 69 39.5
t85 16.5zM18 199v38h100q38 8 65.5 31.5t46.5 56.5t30.5 72t18.5 78q9 52 21 102.5t33.5 90.5t57.5 64.5t93 24.5q4 0 21.5 -0.5t39 -4t42.5 -11t33 -21.5v-29q-35 13 -65 13q-33 0 -56.5 -15.5t-40.5 -42t-29.5 -62.5t-23.5 -77q-17 -61 -37.5 -117.5t-52 -100t-77 -69.5
t-110.5 -26q-48 0 -79 1.5t-31 3.5z" />
    <glyph glyph-name="cedilla" unicode="&#xb8;" horiz-adv-x="304" 
d="M54 -203q27 18 45.5 29t30 19.5t17 16.5t5.5 21l-42 143l67 20l46 -153q0 -66 -165 -105z" />
    <glyph glyph-name="guillemotright" unicode="&#xbb;" horiz-adv-x="636" 
d="M620 193q0 -2 -31 -3.5t-79 -1.5q-65 0 -110.5 26t-77 69.5t-52.5 100t-37 117.5q-11 41 -23.5 77t-29.5 62.5t-40.5 42t-56.5 15.5q-30 0 -65 -13v29q12 14 33 21.5t42.5 11t38.5 4t22 0.5q57 0 93 -24.5t57.5 -64.5t33.5 -90.5t21 -102.5q7 -39 18.5 -78t30.5 -72
t46.5 -56.5t65.5 -31.5h100v-38v0zM111 337q50 0 85 -16.5t69 -39.5q25 -16 51.5 -42t55.5 -48q10 -8 22 -15t37.5 -12t70 -8.5t118.5 -3.5v-38q-57 -9 -107.5 -16t-94.5 -7q-48 0 -81.5 14.5t-58 36.5t-44.5 48t-40.5 48t-45.5 36.5t-61 14.5q-17 0 -33.5 -4t-35.5 -10v28
q7 10 20 16.5t27 10.5t26.5 5.5t19.5 1.5z" />
    <glyph glyph-name="Agrave" unicode="&#xc0;" horiz-adv-x="589" 
d="M131 508l24 37l136 -90l-12 -20zM352 293q-15 1 -31.5 1.5t-32.5 1t-29 1t-21 0.5q-46 0 -97 -9q-18 -23 -32.5 -50.5t-14.5 -56.5q0 -41 10 -73t52 -58q29 2 68 20t81 50q-1 8 -1.5 15.5t-0.5 15.5q0 70 45 135zM79 286q-30 0 -76 -10q-22 0 -22 9t21 24q21 8 47.5 13
t56.5 7.5t62 3.5t62 1h372l4 -8t2 -8q0 -7 -8 -17q-47 0 -78.5 -1t-53 -3t-36.5 -4t-30 -5q-18 -23 -32.5 -50.5t-14.5 -56.5q0 -41 10 -73t52 -58q16 1 36 4t42.5 9t47 17.5t48.5 31.5q2 1 4 1q11 0 11 -20q-22 -21 -48 -38.5t-52.5 -31t-52 -23t-46.5 -13.5q-50 3 -87 84
q-21 -17 -44 -30.5t-46 -24t-44.5 -18t-39.5 -11.5q-52 3 -93 99q-11 35 -11 65q0 33 11 68t34 67h-8z" />
    <glyph glyph-name="Aacute" unicode="&#xc1;" horiz-adv-x="589" 
d="M87 286q-23 -32 -34 -67t-11 -68q0 -30 11 -65q41 -96 93 -99q18 4 39.5 11.5t44.5 18t46 24t44 30.5q37 -81 87 -84q21 4 46.5 13.5t52 23t52.5 31t48 38.5v4q0 9 -3 12t-8 3h-4q-24 -20 -48.5 -31.5t-47 -17.5t-42.5 -9t-36 -4q-42 26 -52 58t-10 73q0 29 14.5 56.5
t32.5 50.5q15 3 30 5t36.5 4t53 3t78.5 1q11 6 11 14t-9 19h-372q-30 0 -62 -1t-62 -3.5t-56.5 -7.5t-47.5 -13q-21 -15 -21 -24t22 -9q46 10 76 10h8zM348 286q-45 -65 -45 -135q0 -8 0.5 -15.5t1.5 -15.5q-42 -32 -81 -50t-68 -20q-42 26 -52 58t-10 73q0 29 14.5 56.5
t32.5 50.5q51 9 97 9q8 0 21 -0.5t29 -1t32.5 -1t31.5 -1.5zM206 437l-12 20l136 90l24 -37z" />
    <glyph glyph-name="Acircumflex" unicode="&#xc2;" horiz-adv-x="589" 
d="M87 286q-23 -32 -34 -67t-11 -68q0 -30 11 -65q41 -96 93 -99q18 4 39.5 11.5t44.5 18t46 24t44 30.5q37 -81 87 -84q21 4 46.5 13.5t52 23t52.5 31t48 38.5q2 6 2 8q0 11 -17 11q-24 -20 -48.5 -31.5t-47 -17.5t-42.5 -9t-36 -4q-42 26 -52 58t-10 73q0 29 14.5 56.5
t32.5 50.5q15 3 30 5t36.5 4t53 3t78.5 1q9 9 9 17t-7 16h-372q-30 0 -62 -1t-62 -3.5t-56.5 -7.5t-47.5 -13q-21 -15 -21 -24t22 -9q46 10 76 10h8zM348 286q-45 -65 -45 -135q0 -8 0.5 -15.5t1.5 -15.5q-42 -32 -81 -50t-68 -20q-42 26 -52 58t-10 73q0 29 14.5 56.5
t32.5 50.5q51 9 97 9q8 0 21 -0.5t29 -1t32.5 -1t31.5 -1.5zM159 415q34 32 58 65t40 68q7 -32 29.5 -66t56.5 -63l-9 -16q-29 21 -49 40t-28 30q-9 -11 -32.5 -29t-52.5 -42z" />
    <glyph glyph-name="Atilde" unicode="&#xc3;" horiz-adv-x="589" 
d="M87 286q-23 -32 -34 -67t-11 -68q0 -30 11 -65q41 -96 93 -99q18 4 39.5 11.5t44.5 18t46 24t44 30.5q37 -81 87 -84q21 4 46.5 13.5t52 23t52.5 31t48 38.5q3 7 3 11q0 9 -11 9l-7 -1q-24 -20 -48.5 -31.5t-47 -17.5t-42.5 -9t-36 -4q-42 26 -52 58t-10 73
q0 29 14.5 56.5t32.5 50.5q15 3 30 5t36.5 4t53 3t78.5 1q9 7 9 15q0 7 -7 18h-372q-30 0 -62 -1t-62 -3.5t-56.5 -7.5t-47.5 -13q-21 -15 -21 -24t22 -9q46 10 76 10h8zM348 286q-45 -65 -45 -135q0 -8 0.5 -15.5t1.5 -15.5q-42 -32 -81 -50t-68 -20q-42 26 -52 58t-10 73
q0 29 14.5 56.5t32.5 50.5q51 9 97 9q8 0 21 -0.5t29 -1t32.5 -1t31.5 -1.5zM133 417q26 107 68 107q6 0 26.5 -3.5t56.5 -11.5q32 -7 52 -10.5t29 -3.5q15 2 66 56l6 -3q-45 -96 -85 -96q-17 0 -84 15q-26 6 -44 8.5t-29 2.5q-8 0 -13.5 -3.5t-11 -11t-12.5 -20t-19 -29.5z
" />
    <glyph glyph-name="Adieresis" unicode="&#xc4;" horiz-adv-x="589" 
d="M87 286q-23 -32 -34 -67t-11 -68q0 -30 11 -65q41 -96 93 -99q18 4 39.5 11.5t44.5 18t46 24t44 30.5q37 -81 87 -84q21 4 46.5 13.5t52 23t52.5 31t48 38.5q2 6 2 9q0 11 -11 11l-6 -1q-24 -20 -48.5 -31.5t-47 -17.5t-42.5 -9t-36 -4q-42 26 -52 58t-10 73
q0 29 14.5 56.5t32.5 50.5q15 3 30 5t36.5 4t53 3t78.5 1q13 9 13 17t-11 16h-372q-30 0 -62 -1t-62 -3.5t-56.5 -7.5t-47.5 -13q-21 -15 -21 -24t22 -9q46 10 76 10h8zM348 286q-45 -65 -45 -135q0 -8 0.5 -15.5t1.5 -15.5q-42 -32 -81 -50t-68 -20q-42 26 -52 58t-10 73
q0 29 14.5 56.5t32.5 50.5q51 9 97 9q8 0 21 -0.5t29 -1t32.5 -1t31.5 -1.5zM171 548q9 -4 18.5 -17t9.5 -35q0 -12 -4 -26.5t-14 -31.5l-30 -26q-8 20 -11.5 37t-3.5 31q0 31 11.5 48.5t23.5 19.5zM316 548q9 -4 18.5 -17t9.5 -35q0 -12 -4 -26.5t-14 -31.5l-30 -26
q-8 20 -11.5 37t-3.5 31q0 31 11.5 48.5t23.5 19.5z" />
    <glyph glyph-name="Ccedilla" unicode="&#xc7;" horiz-adv-x="290" 
d="M202 443q-12 41 -39 43q-1 3 -1 7q0 18 22 20q24 -16 31 -62zM250 450q15 43 33 66q15 0 20 -4t5 -12q0 -6 -1 -9q-15 -4 -25.5 -16t-18.5 -31l-13 6v0zM226 475q0 19 -2 30.5t-4.5 19t-5.5 13t-6 11.5q12 32 27 32q16 0 27 -32q-8 -16 -13 -29.5t-9 -44.5h-14zM113 13
q-25 0 -45.5 9t-34.5 24t-22 35t-8 42q0 16 3.5 32t8.5 35q10 24 28 49.5t42 47t52.5 35.5t60.5 14q6 0 12.5 -0.5t13.5 -1.5q12 -24 12 -45q0 -8 -3 -19t-13 -11q-13 0 -41 27q-25 -4 -47 -16.5t-38.5 -31t-26 -40.5t-9.5 -45q0 -19 7.5 -36t20.5 -29.5t30 -20t36 -7.5
q32 0 59.5 19t43.5 45q8 8 15 11t11 3q6 0 6 -7q0 -6 -8 -22q-40 -61 -97 -82l41 -134q0 -66 -165 -105l-4 9q27 18 45.5 29t30 19.5t17 16.5t5.5 21l-38 130h-1v0z" />
    <glyph glyph-name="Egrave" unicode="&#xc8;" horiz-adv-x="387" 
d="M133 827l24 37l136 -90l-12 -20zM387 27q-16 -140 -67 -226q-52 -85 -171 -95q-80 2 -125.5 43.5t-58.5 128.5q0 92 93 215q12 16 22.5 28.5t24.5 28.5q-11 2 -23 15t-22 31t-16.5 38t-6.5 36q0 28 11.5 63.5t30 74t43.5 78.5t52 77t54.5 70t51.5 57q48 48 102 91t116 84
q8 -1 13 -4t5 -9q0 -4 -3 -10q-59 -43 -108.5 -85t-91.5 -84q-33 -34 -70 -84.5t-69 -104t-53 -104.5t-21 -87q0 -29 9.5 -56t29.5 -49q37 35 81.5 72t101.5 74q12 -5 12 -15q0 -5 -3 -14q-72 -57 -128.5 -115t-99.5 -121q-70 -103 -70 -160q0 -62 33.5 -104t93.5 -50
q87 8 127 75q39 64 56 171q-30 13 -30 38q0 7 3 15l67 -21z" />
    <glyph glyph-name="Eacute" unicode="&#xc9;" horiz-adv-x="387" 
d="M292 824l-24 37l-136 -90l12 -20zM387 27q-16 -140 -67 -226q-52 -85 -171 -95q-80 2 -125.5 43.5t-58.5 128.5q0 92 93 215q12 16 22.5 28.5t24.5 28.5q-11 2 -23 15t-22 31t-16.5 38t-6.5 36q0 28 11.5 63.5t30 74t43.5 78.5t52 77t54.5 70t51.5 57q48 48 102 91
t116 84q17 -3 17 -15q0 -2 -2 -8q-59 -43 -108.5 -85t-91.5 -84q-33 -34 -70 -84.5t-69 -104t-53 -104.5t-21 -87q0 -29 9.5 -56t29.5 -49q37 35 81.5 72t101.5 74q13 -6 13 -16q0 -3 -1 -6t-3 -7q-72 -57 -128.5 -115t-99.5 -121q-70 -103 -70 -160q0 -62 33.5 -104
t93.5 -50q87 8 127 75q39 64 56 171q-30 13 -30 38q0 7 3 15l67 -21z" />
    <glyph glyph-name="Ecircumflex" unicode="&#xca;" horiz-adv-x="390" 
d="M386 33l-67 21q-3 -8 -3 -15q0 -25 30 -38q-17 -107 -56 -171q-40 -67 -127 -75q-60 8 -93.5 50t-33.5 104q0 57 70 160q43 63 99.5 121t128.5 115q4 10 4 14q0 10 -13 15q-57 -37 -101.5 -74t-81.5 -72q-20 22 -29.5 49t-9.5 56q0 36 21 87t53 104.5t69 104t70 84.5
q42 42 91.5 84t108.5 85q5 7 5 11q0 9 -20 12q-62 -41 -116 -84t-102 -91q-24 -24 -51.5 -57t-54.5 -70t-52 -77t-43.5 -78.5t-30 -74t-11.5 -63.5q0 -16 6.5 -36t16.5 -38t22 -31t23 -15q-14 -16 -24.5 -28.5t-22.5 -28.5q-93 -123 -93 -215q13 -87 58.5 -128.5
t125.5 -43.5q119 10 171 95q51 86 67 226zM107 733q34 32 58 65t40 68q7 -32 29.5 -66t56.5 -63l-9 -16q-29 21 -49 40t-28 30q-9 -11 -32.5 -29t-52.5 -42z" />
    <glyph glyph-name="Edieresis" unicode="&#xcb;" horiz-adv-x="390" 
d="M290 865q-12 -2 -23.5 -19.5t-11.5 -48.5q0 -14 3.5 -31t11.5 -37l30 26q10 17 14 31.5t4 26.5q0 22 -9.5 35t-18.5 17zM145 865q-12 -2 -23.5 -19.5t-11.5 -48.5q0 -14 3.5 -31t11.5 -37l30 26q10 17 14 31.5t4 26.5q0 22 -9.5 35t-18.5 17zM390 27q-16 -140 -67 -226
q-52 -85 -171 -95q-80 2 -125.5 43.5t-58.5 128.5q0 92 93 215q12 16 22.5 28.5t24.5 28.5q-11 2 -23 15t-22 31t-16.5 38t-6.5 36q0 28 11.5 63.5t30 74t43.5 78.5t52 77t54.5 70t51.5 57q48 48 102 91t116 84q18 -9 18 -16q0 -4 -3 -7q-59 -43 -108.5 -85t-91.5 -84
q-33 -34 -70 -84.5t-69 -104t-53 -104.5t-21 -87q0 -29 9.5 -56t29.5 -49q37 35 81.5 72t101.5 74q12 -6 12 -16q0 -6 -3 -13q-72 -57 -128.5 -115t-99.5 -121q-70 -103 -70 -160q0 -62 33.5 -104t93.5 -50q87 8 127 75q39 64 56 171q-30 13 -30 38q0 7 3 15l67 -21z" />
    <glyph glyph-name="Igrave" unicode="&#xcc;" horiz-adv-x="160" 
d="M0 508l24 37l136 -90l-12 -20zM38 205q-2 -29 -5 -58.5t-7.5 -56.5t-9.5 -50t-9 -39l73 3q2 15 5 55.5t8.5 87.5t13 90.5t19.5 64.5l-9 49q-27 -10 -44 -31.5t-25 -39.5z" />
    <glyph glyph-name="Iacute" unicode="&#xcd;" horiz-adv-x="160" 
d="M48 280q8 18 25 39.5t44 31.5l9 -49q-12 -21 -19.5 -64.5t-13 -90.5t-8.5 -87.5t-5 -55.5l-73 -3q4 16 9 39t9.5 50t7.5 56.5t5 58.5zM17 435l-12 20l136 90l24 -37z" />
    <glyph glyph-name="Icircumflex" unicode="&#xce;" horiz-adv-x="182" 
d="M61 280q8 18 25 39.5t44 31.5l9 -49q-12 -21 -19.5 -64.5t-13 -90.5t-8.5 -87.5t-5 -55.5l-73 -3q4 16 9 39t9.5 50t7.5 56.5t5 58.5zM0 412q34 32 58 65t40 68q7 -32 29.5 -66t56.5 -63l-9 -16q-29 21 -49 40t-28 30q-9 -11 -32.5 -29t-52.5 -42z" />
    <glyph glyph-name="Idieresis" unicode="&#xcf;" horiz-adv-x="200" 
d="M62 280q8 18 25 39.5t44 31.5l9 -49q-12 -21 -19.5 -64.5t-13 -90.5t-8.5 -87.5t-5 -55.5l-73 -3q4 16 9 39t9.5 50t7.5 56.5t5 58.5zM41 544q9 -4 18.5 -17t9.5 -35q0 -12 -4 -26.5t-14 -31.5l-30 -26q-8 20 -11.5 37t-3.5 31q0 31 11.5 48.5t23.5 19.5zM186 544
q9 -4 18.5 -17t9.5 -35q0 -12 -4 -26.5t-14 -31.5l-30 -26q-8 20 -11.5 37t-3.5 31q0 31 11.5 48.5t23.5 19.5z" />
    <glyph glyph-name="Ograve" unicode="&#xd2;" horiz-adv-x="360" 
d="M95 509l24 37l136 -90l-12 -20zM293 201q0 32 -16.5 59.5t-52.5 49.5q-80 -18 -116.5 -58.5t-36.5 -103.5q0 -75 65 -129q78 28 117.5 71.5t39.5 110.5zM353 197q0 -42 -13 -78.5t-36 -64.5t-54.5 -44t-69.5 -16t-70 12t-55.5 35t-37 56t-13.5 75q8 82 54.5 123.5
t118.5 41.5q34 0 66 -9t56.5 -26.5t39 -44t14.5 -60.5z" />
    <glyph glyph-name="Oacute" unicode="&#xd3;" horiz-adv-x="360" 
d="M353 197q0 34 -14.5 60.5t-39 44t-56.5 26.5t-66 9q-72 0 -118.5 -41.5t-54.5 -123.5q0 -42 13.5 -75t37 -56t55.5 -35t70 -12t69.5 16t54.5 44t36 64.5t13 78.5zM293 201q0 -67 -39.5 -110.5t-117.5 -71.5q-65 54 -65 129q0 63 36.5 103.5t116.5 58.5q36 -22 52.5 -49.5
t16.5 -59.5zM110 383l-12 20l136 90l24 -37z" />
    <glyph glyph-name="Ocircumflex" unicode="&#xd4;" horiz-adv-x="360" 
d="M353 197q0 34 -14.5 60.5t-39 44t-56.5 26.5t-66 9q-72 0 -118.5 -41.5t-54.5 -123.5q0 -42 13.5 -75t37 -56t55.5 -35t70 -12t69.5 16t54.5 44t36 64.5t13 78.5zM293 201q0 -67 -39.5 -110.5t-117.5 -71.5q-65 54 -65 129q0 63 36.5 103.5t116.5 58.5q36 -22 52.5 -49.5
t16.5 -59.5zM87 415q34 32 58 65t40 68q7 -32 29.5 -66t56.5 -63l-9 -16q-29 21 -49 40t-28 30q-9 -11 -32.5 -29t-52.5 -42z" />
    <glyph glyph-name="Otilde" unicode="&#xd5;" horiz-adv-x="360" 
d="M353 197q0 34 -14.5 60.5t-39 44t-56.5 26.5t-66 9q-72 0 -118.5 -41.5t-54.5 -123.5q0 -42 13.5 -75t37 -56t55.5 -35t70 -12t69.5 16t54.5 44t36 64.5t13 78.5zM293 201q0 -67 -39.5 -110.5t-117.5 -71.5q-65 54 -65 129q0 63 36.5 103.5t116.5 58.5q36 -22 52.5 -49.5
t16.5 -59.5zM27 411q26 107 68 107q6 0 26.5 -3.5t56.5 -11.5q32 -7 52 -10.5t29 -3.5q15 2 66 56l6 -3q-45 -96 -85 -96q-17 0 -84 15q-26 6 -44 8.5t-29 2.5q-8 0 -13.5 -3.5t-11 -11t-12.5 -20t-19 -29.5z" />
    <glyph glyph-name="Odieresis" unicode="&#xd6;" horiz-adv-x="360" 
d="M353 197q0 34 -14.5 60.5t-39 44t-56.5 26.5t-66 9q-72 0 -118.5 -41.5t-54.5 -123.5q0 -42 13.5 -75t37 -56t55.5 -35t70 -12t69.5 16t54.5 44t36 64.5t13 78.5zM293 201q0 -67 -39.5 -110.5t-117.5 -71.5q-65 54 -65 129q0 63 36.5 103.5t116.5 58.5q36 -22 52.5 -49.5
t16.5 -59.5zM110 544q9 -4 18.5 -17t9.5 -35q0 -12 -4 -26.5t-14 -31.5l-30 -26q-8 20 -11.5 37t-3.5 31q0 31 11.5 48.5t23.5 19.5zM255 544q9 -4 18.5 -17t9.5 -35q0 -12 -4 -26.5t-14 -31.5l-30 -26q-8 20 -11.5 37t-3.5 31q0 31 11.5 48.5t23.5 19.5z" />
    <glyph glyph-name="Ugrave" unicode="&#xd9;" horiz-adv-x="391" 
d="M78 509l24 37l136 -90l-12 -20zM282 147q-23 -15 -41 -30.5t-35 -28t-35.5 -20t-42.5 -7.5t-39 13t-23.5 32.5t-11.5 42.5t-3 42q0 29 11 53t40 38q25 -21 38 -21q10 0 10 14q0 7 -2.5 16t-6.5 18t-9 16t-11 11q-30 -4 -52.5 -20t-37.5 -39.5t-22.5 -52.5t-7.5 -58
q0 -56 26 -105t80 -69q42 5 84 28.5t84 67.5q-7 -52 -18 -89l79 7q5 24 9 68.5t8 107.5q2 34 11.5 64.5t24.5 39.5l-10 50q-61 -19 -80 -57z" />
    <glyph glyph-name="Uacute" unicode="&#xda;" horiz-adv-x="391" 
d="M299 279q19 38 80 57l10 -50q-15 -9 -24.5 -39.5t-11.5 -64.5q-4 -63 -8 -107.5t-9 -68.5l-79 -7q11 37 18 89q-42 -44 -84 -67.5t-84 -28.5q-54 20 -80 69t-26 105q0 29 7.5 58t22.5 52.5t37.5 39.5t52.5 20q6 -4 11 -11t9 -16t6.5 -18t2.5 -16q0 -14 -10 -14
q-13 0 -38 21q-29 -14 -40 -38t-11 -53q0 -19 3 -42t11.5 -42.5t23.5 -32.5t39 -13t42.5 7.5t35.5 20t35 28t41 30.5zM227 438l-12 20l136 90l24 -37z" />
    <glyph glyph-name="Ucircumflex" unicode="&#xdb;" horiz-adv-x="391" 
d="M299 279q19 38 80 57l10 -50q-15 -9 -24.5 -39.5t-11.5 -64.5q-4 -63 -8 -107.5t-9 -68.5l-79 -7q11 37 18 89q-42 -44 -84 -67.5t-84 -28.5q-54 20 -80 69t-26 105q0 29 7.5 58t22.5 52.5t37.5 39.5t52.5 20q6 -4 11 -11t9 -16t6.5 -18t2.5 -16q0 -14 -10 -14
q-13 0 -38 21q-29 -14 -40 -38t-11 -53q0 -19 3 -42t11.5 -42.5t23.5 -32.5t39 -13t42.5 7.5t35.5 20t35 28t41 30.5zM137 414q34 32 58 65t40 68q7 -32 29.5 -66t56.5 -63l-9 -16q-29 21 -49 40t-28 30q-9 -11 -32.5 -29t-52.5 -42z" />
    <glyph glyph-name="Udieresis" unicode="&#xdc;" horiz-adv-x="384" 
d="M301 279q19 38 80 57l10 -50q-15 -9 -24.5 -39.5t-11.5 -64.5q-4 -63 -8 -107.5t-9 -68.5l-79 -7q11 37 18 89q-42 -44 -84 -67.5t-84 -28.5q-54 20 -80 69t-26 105q0 29 7.5 58t22.5 52.5t37.5 39.5t52.5 20q6 -4 11 -11t9 -16t6.5 -18t2.5 -16q0 -14 -10 -14
q-13 0 -38 21q-29 -14 -40 -38t-11 -53q0 -19 3 -42t11.5 -42.5t23.5 -32.5t39 -13t42.5 7.5t35.5 20t35 28t41 30.5zM158 547q9 -4 18.5 -17t9.5 -35q0 -12 -4 -26.5t-14 -31.5l-30 -26q-8 20 -11.5 37t-3.5 31q0 31 11.5 48.5t23.5 19.5zM303 547q9 -4 18.5 -17t9.5 -35
q0 -12 -4 -26.5t-14 -31.5l-30 -26q-8 20 -11.5 37t-3.5 31q0 31 11.5 48.5t23.5 19.5z" />
    <glyph glyph-name="Yacute" unicode="&#xdd;" horiz-adv-x="409" 
d="M342 208q-23 40 -48 40q-20 0 -48 -18t-71 -44q64 -117 122 -199q12 54 22.5 108t22.5 113zM325 307q16 0 31 -6.5t26 -17.5t18 -26.5t7 -33.5q-15 -89 -30 -161.5t-29 -137.5q-24 -108 -52 -210t-59.5 -201t-68.5 -195.5t-79 -192.5q-11 -6 -18 -6q-14 0 -20 21
q43 103 75 196.5t59 189.5t51.5 200t52.5 227q-46 15 -75 41q-43 68 -74 132.5t-61 123.5q-9 4 -16.5 5t-15.5 1q-9 0 -18.5 -1t-21.5 -2q-16 4 -16 12t14 16q48 15 101 15q15 -6 29 -25.5t28 -49.5q18 10 37 25t39 28.5t41.5 23t44.5 9.5zM201 437l-12 20l136 90l24 -37z
" />
    <glyph glyph-name="germandbls" unicode="&#xdf;" horiz-adv-x="309" 
d="M90 45q22 19 42 38.5t35.5 41t24.5 47t9 55.5q0 29 -15.5 46.5t-52.5 25.5q-5 -44 -11 -94t-17 -102zM142 454q0 -24 -1 -49t-3 -53q20 13 38.5 29t33 34.5t23 39t8.5 42.5q0 38 -22.5 52.5t-51.5 14.5q-16 0 -31 -3q6 -48 6 -107zM299 495q-3 -45 -38.5 -85t-101.5 -76
q55 0 81.5 -28t26.5 -76q0 -32 -20.5 -67t-50 -67t-62.5 -57.5t-57 -38.5q-11 -33 -29 -85t-38 -106t-39.5 -101t-32.5 -70q-11 -7 -15 -7q-6 0 -6 8q0 3 2 11q35 89 63.5 192t48.5 206.5t31 201.5t11 176q0 48 -1.5 95.5t-9.5 86.5q-11 24 -49 30l-1 10l62 25
q23 -5 38.5 -31t19.5 -56q33 15 70 15q19 0 37 -5.5t31 -18t21 -32.5t8 -50z" />
    <glyph glyph-name="agrave" unicode="&#xe0;" horiz-adv-x="589" 
d="M131 508l24 37l136 -90l-12 -20zM352 293q-15 1 -31.5 1.5t-32.5 1t-29 1t-21 0.5q-46 0 -97 -9q-18 -23 -32.5 -50.5t-14.5 -56.5q0 -41 10 -73t52 -58q29 2 68 20t81 50q-1 8 -1.5 15.5t-0.5 15.5q0 70 45 135zM79 286q-30 0 -76 -10q-22 0 -22 9t21 24q21 8 47.5 13
t56.5 7.5t62 3.5t62 1h372q11 -7 11 -14q0 -9 -13 -19q-47 0 -78.5 -1t-53 -3t-36.5 -4t-30 -5q-18 -23 -32.5 -50.5t-14.5 -56.5q0 -41 10 -73t52 -58q16 1 36 4t42.5 9t47 17.5t48.5 31.5q2 1 4 1h5q9 0 9 -8q0 -5 -3 -12q-22 -21 -48 -38.5t-52.5 -31t-52 -23
t-46.5 -13.5q-50 3 -87 84q-21 -17 -44 -30.5t-46 -24t-44.5 -18t-39.5 -11.5q-52 3 -93 99q-11 35 -11 65q0 33 11 68t34 67h-8z" />
    <glyph glyph-name="aacute" unicode="&#xe1;" horiz-adv-x="589" 
d="M87 286q-23 -32 -34 -67t-11 -68q0 -30 11 -65q41 -96 93 -99q18 4 39.5 11.5t44.5 18t46 24t44 30.5q37 -81 87 -84q21 4 46.5 13.5t52 23t52.5 31t48 38.5q3 6 3 11q0 9 -10 9q-5 0 -8 -1q-24 -20 -48.5 -31.5t-47 -17.5t-42.5 -9t-36 -4q-42 26 -52 58t-10 73
q0 29 14.5 56.5t32.5 50.5q15 3 30 5t36.5 4t53 3t78.5 1q13 6 13 15q0 8 -11 18h-372q-30 0 -62 -1t-62 -3.5t-56.5 -7.5t-47.5 -13q-21 -15 -21 -24t22 -9q46 10 76 10h8zM348 286q-45 -65 -45 -135q0 -8 0.5 -15.5t1.5 -15.5q-42 -32 -81 -50t-68 -20q-42 26 -52 58
t-10 73q0 29 14.5 56.5t32.5 50.5q51 9 97 9q8 0 21 -0.5t29 -1t32.5 -1t31.5 -1.5zM206 437l-12 20l136 90l24 -37z" />
    <glyph glyph-name="acircumflex" unicode="&#xe2;" horiz-adv-x="589" 
d="M87 286q-23 -32 -34 -67t-11 -68q0 -30 11 -65q41 -96 93 -99q18 4 39.5 11.5t44.5 18t46 24t44 30.5q37 -81 87 -84q21 4 46.5 13.5t52 23t52.5 31t48 38.5q1 4 1.5 6.5t0.5 4.5q0 9 -9 9q-5 0 -8 -1q-24 -20 -48.5 -31.5t-47 -17.5t-42.5 -9t-36 -4q-42 26 -52 58
t-10 73q0 29 14.5 56.5t32.5 50.5q15 3 30 5t36.5 4t53 3t78.5 1q13 10 13 18t-11 15h-372q-30 0 -62 -1t-62 -3.5t-56.5 -7.5t-47.5 -13q-21 -15 -21 -24t22 -9q46 10 76 10h8zM348 286q-45 -65 -45 -135q0 -8 0.5 -15.5t1.5 -15.5q-42 -32 -81 -50t-68 -20q-42 26 -52 58
t-10 73q0 29 14.5 56.5t32.5 50.5q51 9 97 9q8 0 21 -0.5t29 -1t32.5 -1t31.5 -1.5zM159 415q34 32 58 65t40 68q7 -32 29.5 -66t56.5 -63l-9 -16q-29 21 -49 40t-28 30q-9 -11 -32.5 -29t-52.5 -42z" />
    <glyph glyph-name="atilde" unicode="&#xe3;" horiz-adv-x="589" 
d="M87 286q-23 -32 -34 -67t-11 -68q0 -30 11 -65q41 -96 93 -99q18 4 39.5 11.5t44.5 18t46 24t44 30.5q37 -81 87 -84q21 4 46.5 13.5t52 23t52.5 31t48 38.5q0 14 -2 17.5t-5 3.5q-2 0 -8 -2q-24 -20 -48.5 -31.5t-47 -17.5t-42.5 -9t-36 -4q-42 26 -52 58t-10 73
q0 29 14.5 56.5t32.5 50.5q15 3 30 5t36.5 4t53 3t78.5 1q11 6 11 15q0 7 -9 18h-372q-30 0 -62 -1t-62 -3.5t-56.5 -7.5t-47.5 -13q-21 -15 -21 -24t22 -9q46 10 76 10h8zM348 286q-45 -65 -45 -135q0 -8 0.5 -15.5t1.5 -15.5q-42 -32 -81 -50t-68 -20q-42 26 -52 58
t-10 73q0 29 14.5 56.5t32.5 50.5q51 9 97 9q8 0 21 -0.5t29 -1t32.5 -1t31.5 -1.5zM133 417q26 107 68 107q6 0 26.5 -3.5t56.5 -11.5q32 -7 52 -10.5t29 -3.5q15 2 66 56l6 -3q-45 -96 -85 -96q-17 0 -84 15q-26 6 -44 8.5t-29 2.5q-8 0 -13.5 -3.5t-11 -11t-12.5 -20
t-19 -29.5z" />
    <glyph glyph-name="adieresis" unicode="&#xe4;" horiz-adv-x="589" 
d="M87 286q-23 -32 -34 -67t-11 -68q0 -30 11 -65q41 -96 93 -99q18 4 39.5 11.5t44.5 18t46 24t44 30.5q37 -81 87 -84q21 4 46.5 13.5t52 23.5t52.5 32t48 40q0 14 -15 16q-24 -20 -48.5 -31.5t-47 -17.5t-42.5 -9t-36 -4q-42 26 -52 58t-10 73q0 29 14.5 56.5t32.5 50.5
q15 3 30 5t36.5 4t53 3t78.5 1q11 7 11 16q0 5 -2.5 8.5t-6.5 8.5h-372q-30 0 -62 -1t-62 -3.5t-56.5 -7.5t-47.5 -13q-21 -15 -21 -24t22 -9q46 10 76 10h8zM348 286q-45 -65 -45 -135q0 -8 0.5 -15.5t1.5 -15.5q-42 -32 -81 -50t-68 -20q-42 26 -52 58t-10 73
q0 29 14.5 56.5t32.5 50.5q51 9 97 9q8 0 21 -0.5t29 -1t32.5 -1t31.5 -1.5zM171 548q9 -4 18.5 -17t9.5 -35q0 -12 -4 -26.5t-14 -31.5l-30 -26q-8 20 -11.5 37t-3.5 31q0 31 11.5 48.5t23.5 19.5zM316 548q9 -4 18.5 -17t9.5 -35q0 -12 -4 -26.5t-14 -31.5l-30 -26
q-8 20 -11.5 37t-3.5 31q0 31 11.5 48.5t23.5 19.5z" />
    <glyph glyph-name="ccedilla" unicode="&#xe7;" horiz-adv-x="290" 
d="M202 443q-12 41 -39 43q-1 3 -1 7q0 18 22 20q24 -16 31 -62zM250 450q15 43 33 66q15 0 20 -4t5 -12q0 -6 -1 -9q-15 -4 -25.5 -16t-18.5 -31l-13 6v0zM226 475q0 19 -2 30.5t-4.5 19t-5.5 13t-6 11.5q12 32 27 32q16 0 27 -32q-8 -16 -13 -29.5t-9 -44.5h-14zM113 13
q-25 0 -45.5 9t-34.5 24t-22 35t-8 42q0 16 3.5 32t8.5 35q10 24 28 49.5t42 47t52.5 35.5t60.5 14q6 0 12.5 -0.5t13.5 -1.5q12 -24 12 -45q0 -8 -3 -19t-13 -11q-13 0 -41 27q-25 -4 -47 -16.5t-38.5 -31t-26 -40.5t-9.5 -45q0 -19 7.5 -36t20.5 -29.5t30 -20t36 -7.5
q32 0 59.5 19t43.5 45q8 8 15 11t11 3q6 0 6 -7q0 -6 -8 -22q-40 -61 -97 -82l41 -134q0 -66 -165 -105l-4 9q27 18 45.5 29t30 19.5t17 16.5t5.5 21l-38 130h-1v0z" />
    <glyph glyph-name="egrave" unicode="&#xe8;" horiz-adv-x="387" 
d="M133 827l24 37l136 -90l-12 -20zM387 27q-16 -140 -67 -226q-52 -85 -171 -95q-80 2 -125.5 43.5t-58.5 128.5q0 92 93 215q12 16 22.5 28.5t24.5 28.5q-11 2 -23 15t-22 31t-16.5 38t-6.5 36q0 28 11.5 63.5t30 74t43.5 78.5t52 77t54.5 70t51.5 57q48 48 102 91t116 84
q11 0 15 -2.5t4 -7.5q0 -6 -4 -13q-59 -43 -108.5 -85t-91.5 -84q-33 -34 -70 -84.5t-69 -104t-53 -104.5t-21 -87q0 -29 9.5 -56t29.5 -49q37 35 81.5 72t101.5 74q15 -5 15 -14q0 -6 -6 -15q-72 -57 -128.5 -115t-99.5 -121q-70 -103 -70 -160q0 -62 33.5 -104t93.5 -50
q87 8 127 75q39 64 56 171q-30 13 -30 38q0 7 3 15l67 -21z" />
    <glyph glyph-name="eacute" unicode="&#xe9;" horiz-adv-x="387" 
d="M292 824l-24 37l-136 -90l12 -20zM387 27q-16 -140 -67 -226q-52 -85 -171 -95q-80 2 -125.5 43.5t-58.5 128.5q0 92 93 215q12 16 22.5 28.5t24.5 28.5q-11 2 -23 15t-22 31t-16.5 38t-6.5 36q0 28 11.5 63.5t30 74t43.5 78.5t52 77t54.5 70t51.5 57q48 48 102 91
t116 84q21 -5 21 -12q0 -5 -6 -11q-59 -43 -108.5 -85t-91.5 -84q-33 -34 -70 -84.5t-69 -104t-53 -104.5t-21 -87q0 -29 9.5 -56t29.5 -49q37 35 81.5 72t101.5 74q16 -5 16 -14q0 -4 -2 -7t-4 -7l-1 -1q-72 -57 -128.5 -115t-99.5 -121q-70 -103 -70 -160q0 -62 33.5 -104
t93.5 -50q87 8 127 75q39 64 56 171q-30 13 -30 38q0 7 3 15l67 -21z" />
    <glyph glyph-name="ecircumflex" unicode="&#xea;" horiz-adv-x="390" 
d="M386 33l-67 21q-3 -8 -3 -15q0 -25 30 -38q-17 -107 -56 -171q-40 -67 -127 -75q-60 8 -93.5 50t-33.5 104q0 57 70 160q43 63 99.5 121t128.5 115q6 9 6 15q0 11 -15 14q-57 -37 -101.5 -74t-81.5 -72q-20 22 -29.5 49t-9.5 56q0 36 21 87t53 104.5t69 104t70 84.5
q42 42 91.5 84t108.5 85q3 6 3 11t-3.5 8t-14.5 4q-62 -41 -116 -84t-102 -91q-24 -24 -51.5 -57t-54.5 -70t-52 -77t-43.5 -78.5t-30 -74t-11.5 -63.5q0 -16 6.5 -36t16.5 -38t22 -31t23 -15q-14 -16 -24.5 -28.5t-22.5 -28.5q-93 -123 -93 -215q13 -87 58.5 -128.5
t125.5 -43.5q119 10 171 95q51 86 67 226zM107 733q34 32 58 65t40 68q7 -32 29.5 -66t56.5 -63l-9 -16q-29 21 -49 40t-28 30q-9 -11 -32.5 -29t-52.5 -42z" />
    <glyph glyph-name="edieresis" unicode="&#xeb;" horiz-adv-x="387" 
d="M287 865q-12 -2 -23.5 -19.5t-11.5 -48.5q0 -14 3.5 -31t11.5 -37l30 26q10 17 14 31.5t4 26.5q0 22 -9.5 35t-18.5 17zM142 865q-12 -2 -23.5 -19.5t-11.5 -48.5q0 -14 3.5 -31t11.5 -37l30 26q10 17 14 31.5t4 26.5q0 22 -9.5 35t-18.5 17zM387 27q-16 -140 -67 -226
q-52 -85 -171 -95q-80 2 -125.5 43.5t-58.5 128.5q0 92 93 215q12 16 22.5 28.5t24.5 28.5q-11 2 -23 15t-22 31t-16.5 38t-6.5 36q0 28 11.5 63.5t30 74t43.5 78.5t52 77t54.5 70t51.5 57q48 48 102 91t116 84q22 0 22 -9q0 -6 -7 -14q-59 -43 -108.5 -85t-91.5 -84
q-33 -34 -70 -84.5t-69 -104t-53 -104.5t-21 -87q0 -29 9.5 -56t29.5 -49q37 35 81.5 72t101.5 74q5 -2 9.5 -5.5t4.5 -9.5q0 -4 -5 -14q-72 -57 -128.5 -115t-99.5 -121q-70 -103 -70 -160q0 -62 33.5 -104t93.5 -50q87 8 127 75q39 64 56 171q-30 13 -30 38q0 7 3 15
l67 -21z" />
    <glyph glyph-name="igrave" unicode="&#xec;" horiz-adv-x="160" 
d="M0 508l24 37l136 -90l-12 -20zM38 205q-2 -29 -5 -58.5t-7.5 -56.5t-9.5 -50t-9 -39l73 3q2 15 5 55.5t8.5 87.5t13 90.5t19.5 64.5l-9 49q-27 -10 -44 -31.5t-25 -39.5z" />
    <glyph glyph-name="iacute" unicode="&#xed;" horiz-adv-x="160" 
d="M48 280q8 18 25 39.5t44 31.5l9 -49q-12 -21 -19.5 -64.5t-13 -90.5t-8.5 -87.5t-5 -55.5l-73 -3q4 16 9 39t9.5 50t7.5 56.5t5 58.5zM17 435l-12 20l136 90l24 -37z" />
    <glyph glyph-name="icircumflex" unicode="&#xee;" horiz-adv-x="182" 
d="M61 280q8 18 25 39.5t44 31.5l9 -49q-12 -21 -19.5 -64.5t-13 -90.5t-8.5 -87.5t-5 -55.5l-73 -3q4 16 9 39t9.5 50t7.5 56.5t5 58.5zM0 412q34 32 58 65t40 68q7 -32 29.5 -66t56.5 -63l-9 -16q-29 21 -49 40t-28 30q-9 -11 -32.5 -29t-52.5 -42z" />
    <glyph glyph-name="idieresis" unicode="&#xef;" horiz-adv-x="200" 
d="M62 280q8 18 25 39.5t44 31.5l9 -49q-12 -21 -19.5 -64.5t-13 -90.5t-8.5 -87.5t-5 -55.5l-73 -3q4 16 9 39t9.5 50t7.5 56.5t5 58.5zM39 546q9 -4 18.5 -17t9.5 -35q0 -12 -4 -26.5t-14 -31.5l-30 -26q-8 20 -11.5 37t-3.5 31q0 31 11.5 48.5t23.5 19.5zM184 546
q9 -4 18.5 -17t9.5 -35q0 -12 -4 -26.5t-14 -31.5l-30 -26q-8 20 -11.5 37t-3.5 31q0 31 11.5 48.5t23.5 19.5z" />
    <glyph glyph-name="ograve" unicode="&#xf2;" horiz-adv-x="360" 
d="M95 509l24 37l136 -90l-12 -20zM293 201q0 32 -16.5 59.5t-52.5 49.5q-80 -18 -116.5 -58.5t-36.5 -103.5q0 -75 65 -129q78 28 117.5 71.5t39.5 110.5zM353 197q0 -42 -13 -78.5t-36 -64.5t-54.5 -44t-69.5 -16t-70 12t-55.5 35t-37 56t-13.5 75q8 82 54.5 123.5
t118.5 41.5q34 0 66 -9t56.5 -26.5t39 -44t14.5 -60.5z" />
    <glyph glyph-name="oacute" unicode="&#xf3;" horiz-adv-x="360" 
d="M353 197q0 34 -14.5 60.5t-39 44t-56.5 26.5t-66 9q-72 0 -118.5 -41.5t-54.5 -123.5q0 -42 13.5 -75t37 -56t55.5 -35t70 -12t69.5 16t54.5 44t36 64.5t13 78.5zM293 201q0 -67 -39.5 -110.5t-117.5 -71.5q-65 54 -65 129q0 63 36.5 103.5t116.5 58.5q36 -22 52.5 -49.5
t16.5 -59.5zM110 438l-12 20l136 90l24 -37z" />
    <glyph glyph-name="ocircumflex" unicode="&#xf4;" horiz-adv-x="360" 
d="M353 197q0 34 -14.5 60.5t-39 44t-56.5 26.5t-66 9q-72 0 -118.5 -41.5t-54.5 -123.5q0 -42 13.5 -75t37 -56t55.5 -35t70 -12t69.5 16t54.5 44t36 64.5t13 78.5zM293 201q0 -67 -39.5 -110.5t-117.5 -71.5q-65 54 -65 129q0 63 36.5 103.5t116.5 58.5q36 -22 52.5 -49.5
t16.5 -59.5zM87 415q34 32 58 65t40 68q7 -32 29.5 -66t56.5 -63l-9 -16q-29 21 -49 40t-28 30q-9 -11 -32.5 -29t-52.5 -42z" />
    <glyph glyph-name="otilde" unicode="&#xf5;" horiz-adv-x="360" 
d="M353 197q0 34 -14.5 60.5t-39 44t-56.5 26.5t-66 9q-72 0 -118.5 -41.5t-54.5 -123.5q0 -42 13.5 -75t37 -56t55.5 -35t70 -12t69.5 16t54.5 44t36 64.5t13 78.5zM293 201q0 -67 -39.5 -110.5t-117.5 -71.5q-65 54 -65 129q0 63 36.5 103.5t116.5 58.5q36 -22 52.5 -49.5
t16.5 -59.5zM27 411q26 107 68 107q6 0 26.5 -3.5t56.5 -11.5q32 -7 52 -10.5t29 -3.5q15 2 66 56l6 -3q-45 -96 -85 -96q-17 0 -84 15q-26 6 -44 8.5t-29 2.5q-8 0 -13.5 -3.5t-11 -11t-12.5 -20t-19 -29.5z" />
    <glyph glyph-name="odieresis" unicode="&#xf6;" horiz-adv-x="360" 
d="M353 197q0 34 -14.5 60.5t-39 44t-56.5 26.5t-66 9q-72 0 -118.5 -41.5t-54.5 -123.5q0 -42 13.5 -75t37 -56t55.5 -35t70 -12t69.5 16t54.5 44t36 64.5t13 78.5zM293 201q0 -67 -39.5 -110.5t-117.5 -71.5q-65 54 -65 129q0 63 36.5 103.5t116.5 58.5q36 -22 52.5 -49.5
t16.5 -59.5zM117 548q9 -4 18.5 -17t9.5 -35q0 -12 -4 -26.5t-14 -31.5l-30 -26q-8 20 -11.5 37t-3.5 31q0 31 11.5 48.5t23.5 19.5zM262 548q9 -4 18.5 -17t9.5 -35q0 -12 -4 -26.5t-14 -31.5l-30 -26q-8 20 -11.5 37t-3.5 31q0 31 11.5 48.5t23.5 19.5z" />
    <glyph glyph-name="ugrave" unicode="&#xf9;" horiz-adv-x="391" 
d="M78 509l24 37l136 -90l-12 -20zM282 147q-23 -15 -41 -30.5t-35 -28t-35.5 -20t-42.5 -7.5t-39 13t-23.5 32.5t-11.5 42.5t-3 42q0 29 11 53t40 38q25 -21 38 -21q10 0 10 14q0 7 -2.5 16t-6.5 18t-9 16t-11 11q-30 -4 -52.5 -20t-37.5 -39.5t-22.5 -52.5t-7.5 -58
q0 -56 26 -105t80 -69q42 5 84 28.5t84 67.5q-7 -52 -18 -89l79 7q5 24 9 68.5t8 107.5q2 34 11.5 64.5t24.5 39.5l-10 50q-61 -19 -80 -57z" />
    <glyph glyph-name="uacute" unicode="&#xfa;" horiz-adv-x="391" 
d="M299 279q19 38 80 57l10 -50q-15 -9 -24.5 -39.5t-11.5 -64.5q-4 -63 -8 -107.5t-9 -68.5l-79 -7q11 37 18 89q-42 -44 -84 -67.5t-84 -28.5q-54 20 -80 69t-26 105q0 29 7.5 58t22.5 52.5t37.5 39.5t52.5 20q6 -4 11 -11t9 -16t6.5 -18t2.5 -16q0 -14 -10 -14
q-13 0 -38 21q-29 -14 -40 -38t-11 -53q0 -19 3 -42t11.5 -42.5t23.5 -32.5t39 -13t42.5 7.5t35.5 20t35 28t41 30.5zM227 438l-12 20l136 90l24 -37z" />
    <glyph glyph-name="ucircumflex" unicode="&#xfb;" horiz-adv-x="391" 
d="M299 279q19 38 80 57l10 -50q-15 -9 -24.5 -39.5t-11.5 -64.5q-4 -63 -8 -107.5t-9 -68.5l-79 -7q11 37 18 89q-42 -44 -84 -67.5t-84 -28.5q-54 20 -80 69t-26 105q0 29 7.5 58t22.5 52.5t37.5 39.5t52.5 20q6 -4 11 -11t9 -16t6.5 -18t2.5 -16q0 -14 -10 -14
q-13 0 -38 21q-29 -14 -40 -38t-11 -53q0 -19 3 -42t11.5 -42.5t23.5 -32.5t39 -13t42.5 7.5t35.5 20t35 28t41 30.5zM137 414q34 32 58 65t40 68q7 -32 29.5 -66t56.5 -63l-9 -16q-29 21 -49 40t-28 30q-9 -11 -32.5 -29t-52.5 -42z" />
    <glyph glyph-name="udieresis" unicode="&#xfc;" horiz-adv-x="384" 
d="M301 279q19 38 80 57l10 -50q-15 -9 -24.5 -39.5t-11.5 -64.5q-4 -63 -8 -107.5t-9 -68.5l-79 -7q11 37 18 89q-42 -44 -84 -67.5t-84 -28.5q-54 20 -80 69t-26 105q0 29 7.5 58t22.5 52.5t37.5 39.5t52.5 20q6 -4 11 -11t9 -16t6.5 -18t2.5 -16q0 -14 -10 -14
q-13 0 -38 21q-29 -14 -40 -38t-11 -53q0 -19 3 -42t11.5 -42.5t23.5 -32.5t39 -13t42.5 7.5t35.5 20t35 28t41 30.5zM158 547q9 -4 18.5 -17t9.5 -35q0 -12 -4 -26.5t-14 -31.5l-30 -26q-8 20 -11.5 37t-3.5 31q0 31 11.5 48.5t23.5 19.5zM301 547q9 -4 18.5 -17t9.5 -35
q0 -12 -4 -26.5t-14 -31.5l-30 -26q-8 20 -11.5 37t-3.5 31q0 31 11.5 48.5t23.5 19.5z" />
    <glyph glyph-name="yacute" unicode="&#xfd;" horiz-adv-x="400" 
d="M177 -242q0 -20 9.5 -46t23.5 -46q-9 -32 -18 -66.5t-18 -68.5t-18 -65.5t-17 -58.5q-21 -69 -45 -135t-53 -132l38 -15q29 51 63 136.5t68 189.5t66.5 217t58.5 219.5t43.5 197.5t22.5 150q0 48 -25 73.5t-55 25.5q-23 0 -45 -10t-42.5 -23.5t-39.5 -29t-37 -25.5
q-12 44 -33.5 59t-48.5 15q-17 0 -35.5 -4t-40.5 -10q-8 -12 -8 -19q0 -5 3 -6l9 -3q17 1 27.5 1.5t18.5 0.5q13 0 17.5 -1.5t6.5 -3.5q31 -60 62.5 -125.5t73.5 -132.5q-8 -41 -14 -84.5t-9.5 -80.5t-6 -63t-2.5 -31zM336 233q-12 -59 -22.5 -113t-22.5 -108
q-58 82 -122 199q28 16 47.5 28t33.5 19.5t25 11t22 3.5q36 0 39 -40zM211 -228q7 82 15.5 134.5t8.5 86.5q6 -4 11.5 -13t10.5 -20.5t8 -24t3 -24.5q-14 -63 -24.5 -115.5t-24.5 -101.5q-2 20 -4 41.5t-4 36.5zM197 435l-12 20l136 90l24 -37z" />
    <glyph glyph-name="ydieresis" unicode="&#xff;" horiz-adv-x="400" 
d="M177 -242q0 -20 9.5 -46t23.5 -46q-9 -32 -18 -66.5t-18 -68.5t-18 -65.5t-17 -58.5q-21 -69 -45 -135t-53 -132l38 -15q29 51 63 136.5t68 189.5t66.5 217t58.5 219.5t43.5 197.5t22.5 150q0 48 -25 73.5t-55 25.5q-23 0 -45 -10t-42.5 -23.5t-39.5 -29t-37 -25.5
q-12 44 -33.5 59t-48.5 15q-17 0 -35.5 -4t-40.5 -10q-8 -12 -8 -19q0 -5 3 -6l9 -3q17 1 27.5 1.5t18.5 0.5q13 0 17.5 -1.5t6.5 -3.5q31 -60 62.5 -125.5t73.5 -132.5q-8 -41 -14 -84.5t-9.5 -80.5t-6 -63t-2.5 -31zM336 233q-12 -59 -22.5 -113t-22.5 -108
q-58 82 -122 199q28 16 47.5 28t33.5 19.5t25 11t22 3.5q36 0 39 -40zM211 -228q7 82 15.5 134.5t8.5 86.5q6 -4 11.5 -13t10.5 -20.5t8 -24t3 -24.5q-14 -63 -24.5 -115.5t-24.5 -101.5q-2 20 -4 41.5t-4 36.5zM153 545q9 -4 18.5 -17t9.5 -35q0 -12 -4 -26.5t-14 -31.5
l-30 -26q-8 20 -11.5 37t-3.5 31q0 31 11.5 48.5t23.5 19.5zM301 545q9 -4 18.5 -17t9.5 -35q0 -12 -4 -26.5t-14 -31.5l-30 -26q-8 20 -11.5 37t-3.5 31q0 31 11.5 48.5t23.5 19.5z" />
    <glyph glyph-name="Scaron" unicode="&#x160;" horiz-adv-x="644" 
d="M268 629q29 -24 52.5 -42t32.5 -29q8 11 28 30t49 40l9 -16q-34 -29 -56.5 -63t-29.5 -66q-16 35 -40 68t-58 65zM317 338q33 -3 66 -5.5t63.5 -4.5t56.5 -3t45 -1h46q24 0 47 2q32 -3 32 -15t-29 -25q-39 -3 -77.5 -4t-75.5 -1q-57 0 -109.5 3t-103.5 10
q-185 -112 -185 -168q0 -19 16.5 -32t50 -23.5t83.5 -19.5t118 -20q52 -8 95.5 -17.5t75 -24.5t49.5 -39.5t18 -62.5q0 -33 -27.5 -59.5t-70.5 -45.5t-95.5 -29.5t-101.5 -10.5q-24 0 -49.5 2.5t-47.5 10t-36 20.5t-14 35q0 14 9.5 28t40.5 33q-4 -13 -4 -28q0 -38 33 -56
t83 -18q36 0 74 8t69.5 21.5t52 30.5t20.5 36q0 34 -21.5 50t-54 24t-71 12t-72.5 14q-75 18 -130.5 26t-93.5 18t-60 27.5t-32 53.5q0 88 241 208q-46 -5 -86 -17t-87 -32q-20 5 -20 13q0 7 14 19q40 18 71.5 29.5t60.5 17.5t58 8t65 2z" />
    <glyph glyph-name="scaron" unicode="&#x161;" horiz-adv-x="644" 
d="M268 629q29 -24 52.5 -42t32.5 -29q8 11 28 30t49 40l9 -16q-34 -29 -56.5 -63t-29.5 -66q-16 35 -40 68t-58 65zM317 338q33 -3 66 -5.5t63.5 -4.5t56.5 -3t45 -1h46q24 0 47 2q32 -3 32 -15t-29 -25q-39 -3 -77.5 -4t-75.5 -1q-57 0 -109.5 3t-103.5 10
q-185 -112 -185 -168q0 -19 16.5 -32t50 -23.5t83.5 -19.5t118 -20q52 -8 95.5 -17.5t75 -24.5t49.5 -39.5t18 -62.5q0 -33 -27.5 -59.5t-70.5 -45.5t-95.5 -29.5t-101.5 -10.5q-24 0 -49.5 2.5t-47.5 10t-36 20.5t-14 35q0 14 9.5 28t40.5 33q-4 -13 -4 -28q0 -38 33 -56
t83 -18q36 0 74 8t69.5 21.5t52 30.5t20.5 36q0 34 -21.5 50t-54 24t-71 12t-72.5 14q-75 18 -130.5 26t-93.5 18t-60 27.5t-32 53.5q0 88 241 208q-46 -5 -86 -17t-87 -32q-20 5 -20 13q0 7 14 19q40 18 71.5 29.5t60.5 17.5t58 8t65 2z" />
    <glyph glyph-name="Ydieresis" unicode="&#x178;" horiz-adv-x="409" 
d="M342 208q-23 40 -48 40q-20 0 -48 -18t-71 -44q64 -117 122 -199q12 54 22.5 108t22.5 113zM325 307q16 0 31 -6.5t26 -17.5t18 -26.5t7 -33.5q-15 -89 -30 -161.5t-29 -137.5q-24 -108 -52 -210t-59.5 -201t-68.5 -195.5t-79 -192.5q-8 -3 -15 -3t-12.5 3.5t-10.5 14.5
q43 103 75 196.5t59 189.5t51.5 200t52.5 227q-46 15 -75 41q-43 68 -74 132.5t-61 123.5q-9 4 -16.5 5t-15.5 1q-9 0 -18.5 -1t-21.5 -2q-16 4 -16 12t14 16q48 15 101 15q15 -6 29 -25.5t28 -49.5q18 10 37 25t39 28.5t41.5 23t44.5 9.5zM165 547q9 -4 18.5 -17t9.5 -35
q0 -12 -4 -26.5t-14 -31.5l-30 -26q-8 20 -11.5 37t-3.5 31q0 31 11.5 48.5t23.5 19.5zM308 547q9 -4 18.5 -17t9.5 -35q0 -12 -4 -26.5t-14 -31.5l-30 -26q-8 20 -11.5 37t-3.5 31q0 31 11.5 48.5t23.5 19.5z" />
    <glyph glyph-name="tilde" unicode="&#x2dc;" horiz-adv-x="545" 
d="M34 194q39 165 105 165q9 0 40 -5.5t87 -17.5q99 -21 124 -21q22 2 102 85l9 -5q-69 -147 -131 -147q-15 0 -46 6t-83 17q-40 9 -68 13t-44 4q-13 0 -21 -5.5t-16.5 -17t-19.5 -30t-29 -45.5z" />
    <glyph glyph-name="quoteleft" unicode="&#x2018;" horiz-adv-x="249" 
d="M193 727l12 -20l-136 -90l-24 37z" />
    <glyph glyph-name="quoteright" unicode="&#x2019;" horiz-adv-x="249" 
d="M57 617l-12 20l136 90l24 -37z" />
    <glyph glyph-name="quotesinglbase" unicode="&#x201a;" horiz-adv-x="274" 
d="M35 42l-12 20l136 90l24 -37z" />
    <glyph glyph-name="quotedblleft" unicode="&#x201c;" horiz-adv-x="368" 
d="M321 727l12 -20l-136 -90l-24 37zM193 726l12 -20l-136 -90l-24 37z" />
    <glyph glyph-name="quotedblright" unicode="&#x201d;" horiz-adv-x="368" 
d="M57 617l-12 20l136 90l24 -37zM185 618l-12 20l136 90l24 -37z" />
    <glyph glyph-name="quotedblbase" unicode="&#x201e;" horiz-adv-x="340" 
d="M35 42l-12 20l136 90l24 -37zM158 45l-12 20l136 90l24 -37z" />
    <glyph glyph-name="guilsinglleft" unicode="&#x2039;" horiz-adv-x="916" 
d="M42 174q0 11 17 18.5t40 7.5t40 -7.5t17 -18.5t-17 -18.5t-40 -7.5t-40 7.5t-17 18.5zM870 238q-19 4 -35.5 6t-32.5 2q-37 0 -67 -8.5t-58.5 -22t-57 -28.5t-61.5 -28.5t-72 -22t-88 -8.5q-44 0 -94.5 7t-107.5 16v38q16 -1 31 -1h29q52 0 90 3.5t69 10t59.5 15.5
t61.5 21q17 6 43 14.5t57 16.5t65 13.5t67 5.5q28 0 54 -5t48 -17v-28z" />
    <glyph glyph-name="guilsinglright" unicode="&#x203a;" horiz-adv-x="916" 
d="M42 266q22 12 48 17t54 5q33 0 67 -5.5t65 -13.5t57 -16.5t43 -14.5q33 -12 61.5 -21t59.5 -15.5t69 -10t90 -3.5h29t31 1v-38q-57 -9 -107.5 -16t-94.5 -7q-49 0 -88 8.5t-72 22t-61.5 28.5t-57 28.5t-59 22t-66.5 8.5q-16 0 -32.5 -2t-35.5 -6v28zM870 174
q0 -11 -17 -18.5t-40 -7.5t-40 7.5t-17 18.5t17 18.5t40 7.5t40 -7.5t17 -18.5z" />
    <glyph glyph-name="Norfok" unicode="&#xf000;" horiz-adv-x="1502" 
d="M1415 710q5 0 7 2t2 4q0 4 -4 5q-1 1 -6 1h-7v-12h8zM1401 727h13q13 0 14 -5q2 -2 2 -6t-3 -7q-2 -2 -8 -4l4 -2q2 -2 5 -8l5 -7h-8l-3 6q-5 8 -7 9q-1 1 -5 1h-3v-16h-6v39zM1416 739q-7 0 -14 -4t-11 -12q-4 -7 -4 -15q0 -15 15 -27q7 -4 14 -4q8 0 15 4.5t11 11.5
t4 15q0 13 -9 22t-21 9zM1416 745q20 0 31 -19q5 -8 5 -18q0 -9 -4.5 -18t-13.5 -14q-10 -5 -18 -5t-17 5t-14 14q-4 8 -4 18q0 15 10.5 26t24.5 11zM1342 58v11h11v-11h-11zM945 58v66h9v-10q6 11 12 11q8 0 12 -4l-4 -10l-6 2l-2 1q-8 0 -9 -9q-1 -1 -1 -14v-33h-11z
M1182 58v90h11v-90h-11zM988 58v55h-10v11h10v15q3 5 6 7.5t11 2.5q9 0 10 -1l-2 -12q-2 2 -7 2q-8 0 -8 -10v-4h13v-11h-13v-55h-10zM887 90q0 -23 18 -23q17 0 17 23q0 24 -17 24q-18 0 -18 -24zM1028 90q0 -23 17 -23q18 0 18 23q0 24 -18 24q-17 0 -17 -24zM1330 80
q-6 -24 -27 -24q-27 0 -27 34q0 35 27 35q19 0 25 -21l-10 -1q-9 11 -15 11q-16 0 -16 -24q0 -23 16 -23q14 0 16 15zM1213 58v66h11v-10q6 11 19 11q9 0 13 -4.5t7 -12.5q1 -1 1 -11v-39h-11v38q0 18 -13 18q-16 0 -16 -23v-33h-11zM1086 58v90h10v-50l23 26h16l-25 -26
l27 -40h-14l-20 32l-7 -7v-25h-10zM795 58v90h10l46 -72v72h11v-90h-12l-45 70v-70h-10zM1017 90q0 18 8 26.5t20 8.5t20.5 -8.5t8.5 -25.5q0 -20 -9 -27.5t-20 -7.5q-28 0 -28 34zM876 90q0 18 8 26.5t21 8.5q12 0 20 -8.5t8 -25.5q0 -20 -8.5 -27.5t-19.5 -7.5
q-29 0 -29 34zM1013 492q-24 -2 -42.5 -16.5t-23.5 -40.5q0 -17 12.5 -29.5t37.5 -12.5q40 0 62.5 18t22.5 40q0 25 -22 48t-54 29zM1007 584q58 -20 82 -56t24 -102q0 -18 -9.5 -33t-23.5 -26t-32 -17t-34 -6q-8 0 -12 1q-4 -7 -14 -7q-29 3 -44.5 16t-23 29t-9 31.5
t-1.5 22.5q-1 5 -1 12q0 17 7.5 35.5t19.5 34t26 27t26 13.5l11 -13zM363 432q-24 -2 -42.5 -16.5t-23.5 -40.5q0 -17 12.5 -29.5t37.5 -12.5q40 0 62.5 18t22.5 40q0 25 -22 48t-54 29zM458 557l1.5 -2.5t5 -9.5t9 -20.5t13.5 -36.5q8 -12 8 -32v-10t-1 -11q4 13 6 25t5 23
t7 22.5t12 24.5q9 8 24 10.5t50 2.5l8 -13q6 16 12 16q5 0 5 -19q0 -11 -4 -24t-15 -19q-17 -3 -27 -5.5t-16.5 -5.5t-11.5 -7.5t-12 -11.5q-2 -24 -11 -47t-9 -49q0 -5 0.5 -9t1.5 -9q-2 -14 -8.5 -24t-21.5 -15q-4 5 -6 11t-5 13q-10 46 -14.5 69t-5.5 42q0 9 -2.5 21.5
t-6 26t-6 26t-2.5 20.5q0 5 5 14.5t12 12.5zM355 522q54 -21 80 -62t26 -96q0 -18 -9.5 -33t-23.5 -26t-32 -17t-34 -6q-8 0 -12 1q-4 -7 -14 -7q-29 3 -44.5 16t-23 29t-9 31.5t-1.5 22.5q-1 5 -1 12q0 17 7.5 35.5t19.5 34t26 27t26 13.5l11 -13zM213 724q19 -5 31 -23.5
t19 -44.5t9.5 -56.5t2.5 -58.5q0 -26 -1.5 -47t-3.5 -32q-2 -14 -8.5 -30.5t-13.5 -34.5t-12 -37.5t-5 -39.5v-10q0 -5 2 -16q0 -18 -9 -18q-10 0 -24.5 17t-24.5 34q-19 32 -33.5 70.5t-32.5 82.5v-27q0 -2 -0.5 -14.5t-2 -31.5t-4.5 -42.5t-7 -46.5q0 -3 -2.5 -13.5
t-7.5 -22t-12 -21.5t-15 -13q-4 4 -6 12.5t-2 15.5q0 6 1 8q5 59 8.5 101.5t5.5 76.5t3 63t1 61q0 23 5 38t13 15t13.5 -6.5t9.5 -16.5t8 -22.5t9 -23.5q8 -27 13.5 -45t10 -33t10.5 -32t16 -42q4 -9 7.5 -19t11.5 -19q7 15 11.5 25t8 20.5t6 24t6.5 35.5q6 34 6 65
q0 34 -8.5 64.5t-28.5 59.5q-7 12 -7 26q0 7 2.5 13t10.5 9zM1173 515q46 38 74 74.5t47 75.5q9 20 19 37.5t18 17.5l19 -48q-6 -15 -11 -30.5t-11 -30.5t-15 -30t-22 -28q-21 -21 -48.5 -49t-47.5 -62q-7 0 -14 -16q12 0 32.5 -9t42.5 -20t41.5 -22t28.5 -16
q9 -20 14.5 -32t8 -18t3 -8t0.5 -3q0 -6 -6 -6q-14 0 -32 7.5t-37.5 17.5t-38 19.5t-31.5 14.5q-11 4 -19.5 7.5t-18.5 7.5q-2 -33 -4.5 -50t-2.5 -27q-3 -25 -2 -46t-4 -21q-3 0 -11 13t-24 45q0 3 -0.5 32.5t-0.5 68.5v52q0 27 2 50q1 14 1.5 29.5t0.5 32.5q0 45 -1.5 94
t-2.5 85q4 21 11 21q6 0 13.5 -18t13.5 -42.5t10 -49t5 -36.5v-84v0zM512 629q36 30 61 76.5t40 98.5t22 104t7 93q17 -45 27 -111.5t10 -138.5q0 -31 -2 -56t-7 -61q29 16 52.5 20t40.5 4q35 0 59 -18t53 -46q-25 5 -46 13t-45 8q-21 0 -47 -8.5t-65 -32.5l-6 -69l39 44
q28 31 74 31q21 0 43 -8.5t39 -25.5t28 -42t11 -57q-4 -44 -21 -78t-42 -59.5t-55 -45t-60 -35.5q-35 -19 -67 -35t-56.5 -36.5t-39 -48.5t-14.5 -70q0 -33 16 -61t41.5 -48.5t57 -32t62.5 -11.5q-13 -5 -23.5 -6t-23.5 -1q-36 0 -69.5 14t-59 37t-41 53.5t-16.5 64.5
q1 45 25.5 75t59.5 51.5t74 39t70 38.5q32 14 56.5 36.5t40.5 49t24 55t8 55.5q0 37 -17.5 62t-55.5 33q-22 0 -37 -4.5t-26.5 -12.5t-21.5 -20.5t-22 -28.5q-5 -6 -8 -25.5t-12 -45.5q-32 -97 -56.5 -144.5t-41.5 -56.5q28 54 44 116t23 116q7 55 15 132l-9 1
q-11 0 -26 -2.5t-31.5 -6.5t-33 -8.5t-29.5 -8.5q0 14 14.5 27t35 23.5t43 18t39.5 10.5q1 33 2 51.5t2 28.5t1.5 13t0.5 5q2 18 3.5 40t1.5 43q0 9 -0.5 17t-1.5 16q-2 -23 -7 -53t-19 -60.5t-41 -59t-74 -47.5l10 12v0z" />
    </font>
</defs>
</svg>
