<?xml version="1.0" standalone="no"?>
<!DOCTYPE svg PUBLIC "-//W3C//DTD SVG 1.1//EN" "http://www.w3.org/Graphics/SVG/1.1/DTD/svg11.dtd" >
<svg xmlns="http://www.w3.org/2000/svg" xmlns:xlink="http://www.w3.org/1999/xlink" version="1.1">
<metadata>
Created by FontForge 20170731 at Sun Jul  2 20:42:09 2023
 By Aleksey,,,
CC-BY 4.0 Creative Commons Attribution - AurekFonts
</metadata>
<defs>
<font id="ProtobeshAF" horiz-adv-x="485" >
  <font-face 
    font-family="Protobesh AF"
    font-weight="400"
    font-stretch="normal"
    units-per-em="2048"
    panose-1="2 0 5 3 0 0 0 0 0 0"
    ascent="1638"
    descent="-410"
    x-height="1164"
    cap-height="1278"
    bbox="40 -531 2257 1836"
    underline-thickness="102"
    underline-position="-307"
    unicode-range="U+0020-007A"
  />
<missing-glyph 
d="M82 685l154 123q76 -33 169 -102l-161 -155q-72 75 -162 134z" />
    <glyph glyph-name=".notdef" 
d="M82 685l154 123q76 -33 169 -102l-161 -155q-72 75 -162 134z" />
    <glyph glyph-name=".null" horiz-adv-x="0" 
 />
    <glyph glyph-name="nonmarkingreturn" horiz-adv-x="682" 
 />
    <glyph glyph-name="space" unicode=" " horiz-adv-x="1228" 
 />
    <glyph glyph-name="exclam" unicode="!" horiz-adv-x="1603" 
d="M672 934q43 0 89 -5t79.5 -11t79 -18t65.5 -18t62 -20t47 -15q9 -3 31.5 -10t32 -10t28 -8t30 -7t27 -4t30.5 -2q55 0 100.5 12t72 29t45 33.5t25.5 28.5l6 12q-1 -7 -2.5 -19t-9 -46.5t-18.5 -65.5t-32.5 -69t-48 -65.5t-67.5 -46.5t-89 -19q-63 0 -128 16.5t-96.5 30
t-102.5 47.5q-82 39 -151 60t-155 21q-85 0 -172 -16t-150.5 -38.5t-114.5 -45t-77 -38.5l-26 -16q29 43 50 70.5t54.5 65t64 61.5t76 50t94 41t113 25t138.5 10z" />
    <glyph glyph-name="quotedbl" unicode="&#x22;" 
d="M82 685l154 123q76 -33 169 -102l-161 -155q-72 75 -162 134z" />
    <glyph glyph-name="quotesingle" unicode="'" 
d="M82 685l154 123q76 -33 169 -102l-161 -155q-72 75 -162 134z" />
    <glyph glyph-name="asterisk" unicode="*" horiz-adv-x="1261" 
d="M982 441q9 44 27.5 133t27.5 134q2 9 5.5 26t5.5 26q-2 -1 -5.5 -3t-5.5 -3l-99 -51q-9 -5 -30 -15t-32 -16q-6 -3 -17 -9t-17 -9q-3 -1 -9.5 -4.5t-9.5 -5.5q-1 0 -1 -0.5t-1 -0.5q4 -19 12 -58.5t12 -59.5q26 -119 52 -220q14 -57 33 -118v4.5t1 3.5zM851 12
q16 25 46 77q-24 72 -35 109q-22 76 -55 217q-11 47 -25 116q-24 -88 -35 -132q-40 -157 -53 -209q-14 -57 -55 -226q-19 -79 -55 -237q-4 -21 -13.5 -61t-14.5 -61q0 -1 -0.5 -3t-0.5 -3q177 220 296 413zM260 323q86 -311 212 -675l-1 1q-2 21 -5.5 63t-5.5 63
q-4 40 -11.5 120.5t-11.5 121.5q-4 38 -11.5 115t-11.5 116q-3 32 -7 68t-9 80t-8 68q-11 102 -16 145q-5 -3 -15 -8t-18.5 -9t-16.5 -8q-78 -38 -118 -55q23 -94 54 -206zM372 965q-46 -119 -140 -357q6 3 23.5 10.5t26.5 12.5t27 14.5t27 13.5q5 2 15 6.5t14 7.5l6 3
q6 18 13 41q23 70 64 228q34 135 66 270q17 75 64 289q-2 -4 -5.5 -13.5t-5.5 -14.5q-91 -243 -195 -511zM657 1638q-9 -43 -35 -164q-6 -30 -54 -245q-17 -75 -53 -225q-43 -168 -52 -201q-17 -61 -36 -123h59h44q21 0 63 -0.5t63 -0.5h60h30q2 0 8 -0.5t8 -0.5h1l-1 2v2
q-11 62 -29 188q-10 70 -26 212q-16 148 -23 222q-14 158 -20 237q-3 30 -7 97zM515 -346q24 108 37 162q32 143 55 235q9 37 27.5 111.5t27.5 111.5q17 69 53 207q15 60 38 142q-84 1 -253 1h-29h-41h-15q0 -1 0.5 -3t0.5 -3q7 -57 22 -193q7 -62 22 -208q15 -141 23 -223
q9 -85 22 -233q2 -18 5.5 -53.5t4.5 -53.5zM832 1345q-79 198 -137 347v-6q1 -14 3.5 -41t3.5 -40l12 -159q8 -97 28 -305q10 -96 16 -144q0 -2 0.5 -5.5t0.5 -4.5t1 -3v-8t1 -8l3 -18t2 -17q2 -11 5 -33.5t4 -33.5q11 -80 19 -127q2 -9 5 -29t4 -29q9 5 27.5 14.5
t27.5 13.5l111 57q14 7 42 22t42 22l6 3q1 1 1 3.5v4.5q-30 55 -64 131q-54 119 -164 393zM1094 819q5 -10 5 -20q0 -11 -3 -24q-2 -8 -5.5 -24.5t-4.5 -24.5q-13 -63 -39 -188.5t-39 -188.5q-6 -30 -18.5 -90t-18.5 -90q-2 -8 -7 -39t-10 -47q-1 -4 -5 -10t-11 -18.5
t-10 -19.5q-6 -10 -47 -77q-60 -96 -106 -160q-102 -146 -250 -325q-3 -4 -7 -4q-7 0 -15 10.5t-10 18.5q-46 126 -84 241q-39 116 -95.5 310.5t-98 340.5t-48.5 165l-3 9q0 3 2 11v1l1 2q62 154 92 231q62 159 184 479q23 60 64.5 170t75.5 200t64 170q3 8 8 8q13 0 26 -30
l36 -90q24 -60 71.5 -181t71.5 -182q44 -112 67 -167q6 -14 17.5 -40.5t16.5 -39.5q2 -7 8 -20t8 -19q1 -2 3 -7t3 -7l3 -6l3 -9q29 -67 57 -125q5 -11 48 -94z" />
    <glyph glyph-name="comma" unicode="," horiz-adv-x="493" 
d="M82 917l154 122q76 -33 169 -102l-161 -155q-75 78 -162 135zM89 434l155 123q74 -32 168 -102l-161 -155q-72 75 -162 134z" />
    <glyph glyph-name="hyphen" unicode="-" 
d="M82 685l154 123q76 -33 169 -102l-161 -155q-72 75 -162 134z" />
    <glyph glyph-name="period" unicode="." horiz-adv-x="501" 
d="M98 304l154 122q76 -33 169 -102l-162 -155q-77 80 -161 135zM98 704l154 123q76 -33 169 -102l-162 -155q-74 77 -161 134zM82 1081l154 123q76 -33 169 -102l-161 -155q-72 75 -162 134z" />
    <glyph glyph-name="colon" unicode=":" horiz-adv-x="493" 
d="M82 917l154 122q76 -33 169 -102l-161 -155q-75 78 -162 135zM89 434l155 123q74 -32 168 -102l-161 -155q-72 75 -162 134z" />
    <glyph glyph-name="semicolon" unicode=";" horiz-adv-x="493" 
d="M82 917l154 122q76 -33 169 -102l-161 -155q-75 78 -162 135zM89 434l155 123q74 -32 168 -102l-161 -155q-72 75 -162 134z" />
    <glyph glyph-name="question" unicode="?" horiz-adv-x="716" 
d="M433 758q42 -26 79.5 -58.5t77.5 -79.5t63.5 -109.5t23.5 -130.5q0 -38 -10.5 -80.5t-35 -89t-60.5 -84t-92.5 -61.5t-125.5 -24q-61 0 -115.5 30.5t-88.5 73.5t-60 86.5t-37 74.5l-11 30l84 43q3 -8 8 -22.5t25 -50t43.5 -63t64.5 -50t87 -22.5q47 0 78.5 35.5
t31.5 93.5q0 62 -25.5 128t-62.5 115.5t-74 90t-63 62.5l-25 21q10 8 27 22.5t60 60t76 91.5t60 113t27 129q0 58 -31.5 93.5t-78.5 35.5q-46 0 -86.5 -21.5t-65.5 -52t-43 -60.5t-26 -52l-7 -21l-84 42q3 6 7.5 16.5t20.5 41.5t34 59t46.5 62t58 58.5t68 41.5t77.5 17
q131 0 217 -72.5t86 -164.5q0 -202 -223 -398z" />
    <glyph glyph-name="A" unicode="A" horiz-adv-x="2295" 
d="M1731 676q0 33 -16.5 64.5t-61 66.5t-113 62.5t-182 49.5t-258.5 31q-233 -27 -376.5 -114t-143.5 -211q1 -38 93 -100t229 -111.5t245 -49.5q83 0 189 37t191.5 87t144.5 103.5t59 84.5zM2124 1117q133 -97 133 -175q0 -88 -185 -88q-91 0 -370 63q116 -110 116 -230
q0 -50 -78 -138.5t-184.5 -171t-223 -144t-185.5 -61.5q-121 0 -280 78t-272 188t-113 195v1q0 164 155 290q-77 -21 -149.5 -54.5t-121.5 -66.5t-87 -63.5t-55 -49.5l-18 -18l-165 148q5 7 14.5 19.5t44.5 48.5t76.5 68.5t111.5 72.5t147.5 69t186 48.5t226.5 19.5
q343 0 589 -92q123 -14 278 -43q82 -15 110 -15q135 0 135 64q0 32 -24 76.5t-48 72.5l-24 28q143 -55 260 -140z" />
    <glyph glyph-name="B" unicode="B" horiz-adv-x="2222" 
d="M832 143q62 76 142 146q-281 80 -503 163q-60 -32 -95 -71t-35 -66t117 -65.5t374 -106.5zM334 728q0 -40 41.5 -84t113.5 -83.5t147 -74t163 -66t139.5 -48t98.5 -30.5q147 118 328 214q14 42 14 92q0 65 -53.5 155t-137 173t-199.5 141.5t-227 58.5q-91 0 -173 -42
t-136.5 -107.5t-86.5 -144.5t-32 -154zM2002 740l181 -198q-386 -27 -674 -142.5t-599 -355.5q-1 0 -34.5 9t-79 21.5t-109 30t-128 36.5t-132.5 39t-126.5 39t-105 35.5t-73.5 30t-27 20.5q0 29 80 85.5t175 109.5q-309 130 -309 216q0 62 30.5 139t89.5 154.5t136 141.5
t179.5 104.5t209.5 40.5q95 0 195 -32t184 -84.5t159.5 -120.5t128.5 -138.5t83.5 -139.5t30.5 -123q0 -23 -2 -53q295 135 537 135z" />
    <glyph glyph-name="C" unicode="C" horiz-adv-x="1411" 
d="M638 462q65 0 106 0.5t90.5 2.5t79.5 6t64.5 11t54.5 17t41.5 24.5t32.5 33.5t21 43.5t13.5 55t3.5 68.5q0 128 -61 244.5t-167 189t-228 72.5q-78 0 -159.5 -48t-141 -119t-97.5 -152.5t-38 -146.5q0 -63 18.5 -109.5t42 -73.5t77.5 -50t91 -32.5t116 -27.5q26 -6 40 -9
zM1372 617q0 -43 -9 -75t-25 -56t-47 -40t-67 -26.5t-95 -16.5t-119.5 -8t-150.5 -3q275 -119 275 -340q0 -67 -58 -91t-176 -24q-120 0 -222 16t-162.5 39t-104 46t-60.5 39l-17 16l79 47q4 -3 11.5 -9t35 -22.5t58.5 -30t83 -28.5t108 -23q76 -10 138 -10q72 0 111.5 12.5
t39.5 32.5q0 84 -57 144.5t-141 87.5t-182 27q-151 0 -260 18.5t-169.5 46.5t-94.5 73t-43.5 85.5t-9.5 96.5q0 73 28 161.5t85.5 179t133.5 165t183 121.5t223 47q101 0 203.5 -45t186 -120t149.5 -165.5t102.5 -187.5t36.5 -180z" />
    <glyph glyph-name="D" unicode="D" horiz-adv-x="1454" 
d="M747 81q78 0 143 44.5t107 117.5t69 153t40 166q-154 -72 -379 -72q-201 0 -363 58q22 -218 120.5 -342.5t262.5 -124.5zM718 1132q-153 0 -256 -88.5t-122 -267.5q171 -69 387 -69t381 55q-4 116 -60.5 201.5t-142 127t-187.5 41.5zM1414 988q0 -10 -2 -27t-15.5 -65.5
t-36 -94t-70 -101.5t-110.5 -97q-14 -345 -131 -559t-274 -214q-133 0 -241.5 101.5t-171 271t-75.5 377.5q-51 25 -95.5 56t-71 57t-45.5 49t-27 36l-7 13v221q3 -5 8 -13.5t25.5 -34.5t45.5 -50t68.5 -55.5t93.5 -56.5q8 89 38 190.5t83 181.5q54 84 142 132t189 48
q99 0 184 -48.5t142 -128t90.5 -179t37.5 -204.5q50 23 91.5 51.5t65 52.5t40.5 45t23 33z" />
    <glyph glyph-name="E" unicode="E" horiz-adv-x="1288" 
d="M1067 608q37 40 37 87q0 31 -16.5 65.5t-39.5 63t-58.5 61.5t-61.5 53.5t-61 46.5q-404 -277 -593 -634q27 -56 92.5 -96.5t152.5 -40.5q3 0 9 0.5t9 0.5q104 5 172 49t68 117q0 94 -78 139q-63 31 -135 94q-7 6 -7 17q0 30 40.5 66t70.5 38q6 0 11 -3q71 -64 157 -110.5
t152 -46.5h9q43 3 70 33zM1248 709v-14q0 -61 -47 -113q-95 -103 -266 -112q-4 0 -12.5 -0.5t-12.5 -0.5q-30 0 -68 5q12 -45 14 -87v-15q0 -67 -29.5 -132t-86.5 -122.5t-152.5 -97.5t-216.5 -50q-3 0 -8.5 -0.5t-8.5 -0.5q-63 0 -113.5 30.5t-50.5 62.5q0 57 29 173
q-86 -203 -126 -452l-50 -21q-2 40 -2 62q0 264 111.5 535.5t326.5 526.5t512 462l146 -198q-57 -32 -111 -63q207 -207 222 -378z" />
    <glyph glyph-name="F" unicode="F" horiz-adv-x="1374" 
d="M1252 1176q32 -39 53 -110t25 -122l5 -52q-3 3 -9 8.5t-31 18.5t-58 23t-92.5 18.5t-130.5 8.5q-23 0 -77 -2q-167 -9 -274.5 -45.5t-217.5 -111.5q-112 -75 -180.5 -160t-71.5 -170q0 -2 -0.5 -5.5t-0.5 -5.5q0 -60 23 -110l390 156l54 -40l-455 -250q-3 1 -9 2.5
t-23 10t-32.5 20t-34 34.5t-32 51t-23 72t-9.5 96q0 85 34.5 175.5t95.5 174t150.5 158t193 129.5t229 87.5t254.5 32.5q93 0 153.5 -21.5t100.5 -70.5z" />
    <glyph glyph-name="G" unicode="G" horiz-adv-x="1605" 
d="M957 610q308 -364 609 -457l-198 -105q-82 36 -168 103t-158 142t-149.5 173t-134 179.5t-119.5 179.5q-115 179 -144 216q-53 66 -106 76q-13 2 -28 2q-39 0 -74.5 -14.5t-61 -37.5t-46.5 -51t-34.5 -56t-23 -51t-13.5 -37l-4 -15l-63 23q2 8 5.5 22.5t18 56.5t31.5 80
t47 84.5t64 80t82.5 56.5t102.5 23q74 0 137.5 -59t138.5 -200q48 -89 132 -210l493 486l219 -220z" />
    <glyph glyph-name="H" unicode="H" horiz-adv-x="1968" 
d="M1653 386q37 -10 65 -10q79 0 79 81q0 58 -18 127t-51.5 141t-85 139t-113 119.5t-141.5 84t-166 31.5q-99 0 -192 -38q83 -89 146 -177q163 -224 217 -426zM1311 345l-603 163q5 -74 32.5 -136.5t66.5 -103.5t86.5 -70t91.5 -41.5t82 -12.5q108 0 176 53t68 148z
M861 947q-119 -124 -146 -303l525 -144q-97 181 -237 322q-51 52 -142 125zM1247 1291q102 0 206.5 -62.5t187.5 -160.5t149 -212.5t102 -226t36 -192.5q0 -108 -35 -158t-106 -52h-4q-35 0 -92 15l-282 76q-2 -32 -13.5 -71t-38 -83.5t-63 -80.5t-95 -60t-127.5 -24
q-210 0 -336.5 148t-134.5 390l-554 150l-6 142l571 -157q36 182 153 346q-49 35 -100 68.5t-77 49.5l-27 16l176 182q77 -58 180 -157q150 114 330 114z" />
    <glyph glyph-name="I" unicode="I" horiz-adv-x="1800" 
d="M1672 1046q4 -3 9.5 -9t21 -23.5t27 -35.5t21 -43.5t9.5 -49.5q0 -73 -41 -113t-117 -40q-59 0 -172 59t-265 179q-79 63 -143 96.5t-134 50.5v-905h614l-54 -102h-1407l21 102h551v933q-95 -1 -153.5 -25t-110.5 -76q-58 -58 -101.5 -161t-57.5 -177l-15 -74l-73 23
q0 11 1 29.5t12 74.5t30 109.5t60.5 123.5t97.5 126q40 40 63 60t59.5 43.5t75 33t96 16.5t136.5 7q121 0 269.5 -68.5t290.5 -185.5q164 -134 239 -134q36 0 63.5 16t41 39t22.5 46t11 39z" />
    <glyph glyph-name="J" unicode="J" horiz-adv-x="784" 
d="M40 1088q4 9 11 24.5t33.5 54.5t57.5 68.5t83 54t109 24.5q174 0 261 -92t87 -258v-880l-237 -22q16 728 16 842q0 127 -44.5 200.5t-129.5 73.5q-31 0 -62.5 -17t-53.5 -41t-39.5 -48t-25.5 -41l-9 -17z" />
    <glyph glyph-name="K" unicode="K" horiz-adv-x="1548" 
d="M558 901q-77 0 -128 -45.5t-51 -104.5q0 -145 188 -299q141 -96 300 -255q69 -69 121 -133t70 -94l17 -29l-158 -74q-9 13 -30 38t-108 109.5t-201 177.5q-152 124 -223.5 166.5t-127.5 42.5q-32 0 -61 -28t-29 -76q0 -28 6.5 -57.5t12.5 -44.5l7 -15l-69 -66
q-6 9 -15 24.5t-23.5 62t-14.5 91.5q0 104 75 183t199 80q-38 105 -38 224q0 98 67.5 186.5t175.5 99.5q-50 33 -143 78q-54 26 -112.5 45t-89.5 25l-31 6l-22 151q181 -31 336 -120.5t392 -300.5q148 -111 349 -361q89 -111 166.5 -233.5t110.5 -189.5l33 -67l-106 -80
q-18 29 -51 78.5t-136.5 191t-208.5 266.5q-291 347 -449 347z" />
    <glyph glyph-name="L" unicode="L" horiz-adv-x="2009" 
d="M1195 497q9 6 30.5 20.5t32 21.5t29 20t28.5 21t24 20t21.5 20.5t15.5 19t11 20t3 18.5q0 93 -100.5 158t-247.5 82h-27l-5 -582q59 76 185 161zM702 501q130 -80 214 -164l-19 579q-103 -7 -184 -35t-123 -65t-63 -71.5t-21 -62.5q0 -61 196 -181zM1723 792q-9 8 -27 20
t-90.5 41t-162.5 47q-38 8 -67 10q128 -71 128 -215q0 -15 -5 -30.5t-16 -31.5t-21.5 -30t-30.5 -32.5t-34 -30.5t-40 -32t-40 -30.5t-42.5 -31t-40.5 -29.5q-203 -149 -226 -331l-2 -191l-76 1l-7 217q-28 69 -92 139.5t-181 160.5q-20 15 -61 45.5t-62 46.5t-51.5 42.5
t-45.5 45t-26.5 42.5t-11.5 46q0 87 75 181q-18 -3 -33 -7q-240 -51 -298 -51q-95 0 -95 87q0 57 57 117q62 69 118 113.5t81 54.5l25 10q-68 -96 -68 -156q0 -30 22.5 -48t66.5 -18q22 0 34 2q60 8 174.5 44t173.5 43q75 33 165 54l-14 429l144 29l-3 -437q58 5 109 5
q247 0 529 -77q76 -21 154.5 -56t118.5 -60l41 -25z" />
    <glyph glyph-name="M" unicode="M" horiz-adv-x="1329" 
d="M1186 120q27 2 52.5 9t37.5 13l13 6q-35 -74 -109.5 -117.5t-153.5 -45.5h-4q-79 0 -129.5 45.5t-50.5 134.5q0 55 13 107q36 145 50.5 206t33 180.5t18.5 214.5q0 151 -68 236t-201 85q-200 0 -315 -130t-115 -342q0 -296 107 -573l-209 -102q-115 262 -115 502
q0 215 75 379t222 257.5t346 93.5q234 0 367.5 -122t133.5 -369q0 -75 -41 -249q-52 -218 -52 -316q0 -56 23.5 -80t60.5 -24q2 0 5.5 0.5t4.5 0.5z" />
    <glyph glyph-name="N" unicode="N" horiz-adv-x="1732" 
d="M1625 807q69 -160 69 -298q0 -125 -54 -211.5t-131 -86.5q-97 0 -178 16.5t-139 41t-117 70.5t-99.5 87t-98.5 108q-55 -74 -116 -129t-144 -100.5t-193 -69.5t-245 -24q-138 0 -138 298q0 138 69 298q34 78 81.5 141t90.5 98.5t82 59.5t62 32l23 8l42 -46q-5 -2 -13 -6
t-33 -21t-48.5 -39.5t-54.5 -64.5t-56 -93q-79 -161 -79 -293q0 -79 23 -125.5t69 -46.5q65 0 121 15t98 39t76.5 63t58 77t42.5 92t30 97.5t19.5 103.5t12.5 100t8 96q1 13 32 20.5t73 7.5t72 -7.5t30 -20.5q0 -146 25.5 -264t66 -192.5t93.5 -125t104.5 -71t101.5 -20.5
q55 0 95 20q57 29 57 147q0 70 -19.5 151t-47.5 137q-29 59 -65.5 109t-68 79.5t-58.5 50.5t-42 29l-16 8l45 46q11 -5 29 -14t69.5 -44t97.5 -76t99 -110t87 -147z" />
    <glyph glyph-name="O" unicode="O" horiz-adv-x="1396" 
d="M503 261q71 -13 152 -13q177 0 288 54q-121 142 -431 447q-79 -3 -142 -29t-101 -65.5t-57.5 -84.5t-19.5 -92q0 -67 87 -130t224 -87zM759 1169q-106 0 -157.5 -43.5t-51.5 -114.5q0 -58 46 -110q45 -52 129 -142t157 -176.5t166 -212.5q41 38 74.5 106t33.5 153
q0 122 -53 246.5t-146.5 209t-197.5 84.5zM1358 -149l-59 -70q-10 21 -31 59t-95.5 152.5t-161.5 225.5q-122 -94 -236.5 -127.5t-300.5 -33.5q-188 0 -310.5 109.5t-122.5 263.5q0 84 28 152.5t71 111t99 72.5t107 43t100 16q-40 65 -40 147q0 122 98 214t262 92
q94 0 185 -61.5t155 -157t103.5 -213.5t39.5 -228q0 -192 -146 -326q63 -92 126.5 -202.5t96.5 -174.5z" />
    <glyph glyph-name="P" unicode="P" horiz-adv-x="1583" 
d="M1347 407q29 55 29 123q0 89 -48.5 186.5t-127 176.5t-188 130.5t-220.5 51.5q-125 0 -234 -51.5t-179 -131.5t-110 -174.5t-40 -184.5q0 -58 19 -110q17 -46 53 -77t87.5 -46t102 -21t114.5 -6q43 0 118.5 3.5t102.5 3.5q23 0 78.5 -1.5t85.5 -1.5q133 0 224.5 26.5
t132.5 103.5zM811 1187q116 0 230.5 -55t202.5 -142.5t157 -191.5t105.5 -208t36.5 -185q0 -80 -39 -122q-61 -67 -117 -88t-171 -21q-33 0 -162 2t-231 2q-80 0 -214 -9t-190 -9q-127 0 -211.5 32.5t-139.5 121.5q-27 44 -27 118q0 84 33.5 184.5t101.5 201t158.5 183
t215.5 134.5t261 52z" />
    <glyph glyph-name="Q" unicode="Q" horiz-adv-x="1738" 
d="M336 1150q5 7 15 19t46 42t77.5 52.5t109 41.5t141.5 19q145 0 237 -82.5t92 -190.5q0 -95 -58 -173t-155 -149q-49 -36 -121 -88t-119.5 -86t-105 -77t-94.5 -74.5t-70 -63.5t-49 -58t-16 -46q0 -29 12.5 -42t28.5 -13q10 0 37 40t39.5 57t43 53.5t64 67t91.5 79.5
t138 111q251 195 502 195q100 0 191.5 -36.5t153 -92.5t97.5 -121.5t36 -124.5q0 -132 -102.5 -228.5t-232.5 -96.5q-48 0 -96 9t-72 17l-24 9l53 86q66 -27 116 -27q106 0 161 60t55 164t-120 185t-290 81q-106 0 -200 -47.5t-250 -183.5q-45 -39 -129 -146.5t-124 -181.5
q-36 -66 -93.5 -135t-92.5 -69q-28 0 -81.5 60t-95 129.5t-41.5 97.5q0 34 25 74.5t62 78t100.5 86.5t118 86.5t136.5 91.5q129 85 253 182q62 49 102.5 113t40.5 116q0 91 -53 147t-156 56q-53 0 -118.5 -34.5t-104.5 -68.5l-39 -34z" />
    <glyph glyph-name="R" unicode="R" horiz-adv-x="1429" 
d="M1203 1198q64 0 107 -55.5t61.5 -141t18.5 -196.5q0 -59 -20.5 -122t-50 -110t-59.5 -85.5t-50 -58.5l-21 -20l-73 25q7 8 19 21t43 53t54.5 77.5t42.5 87t19 88.5q0 16 -2.5 38.5t-12 56t-24 60.5t-41 47t-60.5 22h-3q-69 0 -278 -133v-51q0 -345 -28 -769l-172 -11
q13 302 13 507q0 149 -4 277q-189 98 -379 98q-50 0 -76.5 -29t-27.5 -76q0 -10 -1 -36.5t-1 -41.5q0 -133 50 -199q43 -57 94.5 -103.5t82.5 -64.5l30 -18l-67 -40q-6 2 -16 6t-40 21.5t-59.5 40t-69 63t-72.5 89.5q-89 132 -89 363q0 168 251 168q132 0 382 -39
q-5 115 -17 307l198 43q10 -165 14 -288q231 129 334 129z" />
    <glyph glyph-name="S" unicode="S" horiz-adv-x="1581" 
d="M1541 1192q-36 -25 -327 -228q86 -166 86 -358q0 -71 -21 -143t-47 -112q-41 -63 -115 -110t-164.5 -73.5t-168.5 -42t-166 -28t-117 -19.5q-3 -1 -17 -3.5t-20.5 -4.5t-15 -7t-11.5 -12q-4 -12 -4 -17q0 -30 32 -53t80 -23q37 0 71.5 9.5t49.5 18.5l16 10
q-2 -5 -6 -13.5t-19 -30t-33 -37.5t-49 -29.5t-66 -13.5q-87 0 -146.5 70t-59.5 161q0 39 14 78q21 58 63.5 89.5t87.5 43.5q36 9 95 20t110.5 19.5t114 23t113.5 30.5t100.5 42.5t83.5 58.5t55 79.5t21 104.5q0 100 -42 204q-257 -183 -463.5 -344t-402.5 -342l-61 53
q367 338 887 714q-71 122 -183 198.5t-240 76.5q-59 0 -111.5 -20.5t-90.5 -53.5t-69.5 -72.5t-52 -79t-34.5 -72.5t-20 -54l-6 -20l-231 -53q0 116 50.5 212.5t135 159.5t193.5 98t227 35q151 0 289.5 -78t231.5 -214q141 100 261 180z" />
    <glyph glyph-name="T" unicode="T" horiz-adv-x="1536" 
d="M1487 1083q9 -44 9 -103q0 -63 -13 -115q-20 -80 -71 -135.5t-124 -55.5q-95 0 -181 40t-180 117l-337 -547l-75 14l354 583q-32 28 -48 43q-237 -383 -358 -587q-67 -114 -67 -185q0 -41 32 -69t66 -28q79 0 129.5 53.5t50.5 132.5q0 43 -18 88q6 -7 15 -19t24.5 -48
t15.5 -71q0 -56 -26.5 -109.5t-85 -92.5t-137.5 -39q-80 0 -145.5 54t-65.5 125q0 79 22 151.5t74 168.5q93 171 335 610q-125 123 -174 161q-101 77 -198 77q-56 0 -99 -13.5t-59 -26.5l-15 -13l-96 54q3 4 8.5 11t27.5 24t48 30t71.5 24t96.5 11q55 0 86.5 -2t72 -14
t67.5 -27t77.5 -53t97.5 -79t131 -118q90 -81 131 -122q72 -72 111.5 -105.5t92 -56t114.5 -22.5q36 0 66 32.5t46.5 78.5t28 92.5t15.5 79.5l4 32z" />
    <glyph glyph-name="U" unicode="U" horiz-adv-x="1173" 
d="M846 180q81 0 126.5 77t45.5 193q0 97 -20 177q-159 3 -431 3q-188 0 -413 -3q10 -82 70 -157t143.5 -126t177 -89.5t172.5 -56.5t129 -18zM462 1164q-116 0 -201 -111.5t-104 -295.5q244 6 430 6q175 0 367 -6q-25 59 -65 129q-36 65 -71.5 112.5t-71.5 77t-67.5 48
t-71 27t-70 11t-75.5 2.5zM972 939q83 -149 122 -288.5t39 -321.5q0 -146 -54 -238t-150 -92q-43 0 -111.5 16t-151.5 47t-170 73.5t-168.5 100.5t-145.5 122t-102.5 143t-38.5 160q0 126 40 250.5t102 216.5t140.5 149t153.5 57q51 0 95 -10t94.5 -36t98 -69.5t101 -114
t106.5 -165.5z" />
    <glyph glyph-name="V" unicode="V" horiz-adv-x="1447" 
d="M857 1207q76 -18 147.5 -51t125 -71.5t100.5 -81.5t79 -82.5t55 -71.5t34 -51l10 -19l-107 -76q-9 11 -26 30.5t-68.5 71.5t-103 95t-123.5 87.5t-137 63.5q-103 30 -164 30q-91 0 -127.5 -31t-36.5 -77q0 -22 10.5 -40t34.5 -35t47.5 -30t65.5 -35t72 -40
q229 -135 362 -268q4 -4 4 -9q0 -18 -35 -55q-53 -53 -77 -53q-5 0 -7 2q-113 114 -233 191q-16 10 -45.5 28.5t-37.5 23.5q-69 36 -149 36q-87 0 -155.5 -37t-68.5 -79q0 -13 6 -24t13.5 -19t24 -18t28 -15.5t37 -17t38.5 -18.5q66 -32 108 -55.5t114.5 -77t133.5 -119.5
q-72 -88 -136 -163t-139 -154.5t-108 -114t-128 -129t-112 -111.5l-142 82q71 69 192.5 181.5t196 190t170.5 195.5q-67 65 -213 140q-121 61 -158 89q-91 70 -92 171q0 62 50.5 109t127.5 70.5t166 25.5q-135 120 -135 272q0 80 87 122t220 42h3q113 0 201 -20z" />
    <glyph glyph-name="W" unicode="W" horiz-adv-x="1996" 
d="M1073 783q4 1 15 3.5t17 3.5q-42 148 -65 294q-59 -177 -125 -339q84 23 158 38zM549 287q70 128 125 247q-81 -35 -148 -74q15 -108 23 -173zM212 381q67 59 144 112q-9 54 -46 258q-29 -170 -98 -370zM1855 120q93 -42 164.5 -84.5t96.5 -63.5l25 -22l-42 -25
q-9 7 -30 19.5t-115.5 51.5t-223.5 79q-70 22 -115.5 38.5t-107.5 45t-108.5 65.5t-77.5 83q-105 153 -180 367q-10 -3 -31 -8t-26 -6q-138 -31 -231 -60q-143 -324 -279 -520l-117 51l-56 24q-6 78 -25 204q-119 -92 -225 -223l-110 66q42 93 124.5 408.5t91.5 421.5
l170 -48q48 -195 80 -399q103 56 238 105q143 331 262 732l126 -14v-3l57 -7q6 -274 94 -587q121 8 328 8h137l-87 -86q-220 0 -348 -20q75 -228 168 -357q34 -47 133 -109.5t240 -126.5z" />
    <glyph glyph-name="X" unicode="X" horiz-adv-x="1269" 
d="M416 166q442 -20 813 -156v-142q-447 209 -1137 222l40 82q11 2 29.5 6t76 19t113 32.5t131.5 47.5t141 63t131.5 79t113 96t76 114.5t29.5 133.5q0 89 -32.5 160.5t-84.5 114.5t-112 65.5t-120 22.5q-72 0 -149.5 -17t-137.5 -41t-109 -48t-76 -41l-26 -17v0
q-10 7 -24 18t-37.5 36t-23.5 40q0 70 70.5 175.5t133.5 164.5l88 -46q-60 -64 -138 -232q283 201 489 201q78 0 152 -14.5t146.5 -50t126.5 -88t87 -135.5t33 -186q0 -78 -28 -150.5t-74 -130.5t-112.5 -112t-137 -95t-154 -78.5t-156.5 -63.5t-151 -49z" />
    <glyph glyph-name="Y" unicode="Y" horiz-adv-x="1923" 
d="M953 512q396 -12 614 -38q52 184 77 408q-444 -225 -691 -370zM895 1020q-47 -278 -58 -444q319 198 669 375q-127 24 -202 36t-180 22.5t-200 10.5h-29zM1883 1007q-30 -332 -116 -676q-605 62 -1006 63q-401 -258 -600 -499l-120 39q156 232 684 572l-101 6
q14 313 83 652q277 -15 533.5 -51.5t642.5 -105.5z" />
    <glyph glyph-name="Z" unicode="Z" horiz-adv-x="1943" 
d="M1794 1056q-266 141 -556 141q-112 0 -229 -21q130 -285 318.5 -543.5t454.5 -515.5l-97 -62q-231 203 -388.5 415t-296.5 479q-29 -116 -75 -221.5t-119.5 -219t-149.5 -213t-198 -248.5l-73 90q127 187 197.5 312.5t129.5 291.5t104 388q-317 -97 -702 -342l-73 60
q372 259 678 391t580 132q316 0 606 -182z" />
    <glyph glyph-name="a" unicode="a" horiz-adv-x="2295" 
d="M1731 676q0 33 -16.5 64.5t-61 66.5t-113 62.5t-182 49.5t-258.5 31q-233 -27 -376.5 -114t-143.5 -211q1 -38 93 -100t229 -111.5t245 -49.5q83 0 189 37t191.5 87t144.5 103.5t59 84.5zM2124 1117q133 -97 133 -175q0 -88 -185 -88q-91 0 -370 63q116 -110 116 -230
q0 -50 -78 -138.5t-184.5 -171t-223 -144t-185.5 -61.5q-121 0 -280 78t-272 188t-113 195v1q0 164 155 290q-77 -21 -149.5 -54.5t-121.5 -66.5t-87 -63.5t-55 -49.5l-18 -18l-165 148q5 7 14.5 19.5t44.5 48.5t76.5 68.5t111.5 72.5t147.5 69t186 48.5t226.5 19.5
q343 0 589 -92q123 -14 278 -43q82 -15 110 -15q135 0 135 64q0 32 -24 76.5t-48 72.5l-24 28q143 -55 260 -140z" />
    <glyph glyph-name="b" unicode="b" horiz-adv-x="2222" 
d="M832 143q62 76 142 146q-281 80 -503 163q-60 -32 -95 -71t-35 -66t117 -65.5t374 -106.5zM334 728q0 -40 41.5 -84t113.5 -83.5t147 -74t163 -66t139.5 -48t98.5 -30.5q147 118 328 214q14 42 14 92q0 65 -53.5 155t-137 173t-199.5 141.5t-227 58.5q-91 0 -173 -42
t-136.5 -107.5t-86.5 -144.5t-32 -154zM2002 740l181 -198q-386 -27 -674 -142.5t-599 -355.5q-1 0 -34.5 9t-79 21.5t-109 30t-128 36.5t-132.5 39t-126.5 39t-105 35.5t-73.5 30t-27 20.5q0 29 80 85.5t175 109.5q-309 130 -309 216q0 62 30.5 139t89.5 154.5t136 141.5
t179.5 104.5t209.5 40.5q95 0 195 -32t184 -84.5t159.5 -120.5t128.5 -138.5t83.5 -139.5t30.5 -123q0 -23 -2 -53q295 135 537 135z" />
    <glyph glyph-name="c" unicode="c" horiz-adv-x="1411" 
d="M638 462q65 0 106 0.5t90.5 2.5t79.5 6t64.5 11t54.5 17t41.5 24.5t32.5 33.5t21 43.5t13.5 55t3.5 68.5q0 128 -61 244.5t-167 189t-228 72.5q-78 0 -159.5 -48t-141 -119t-97.5 -152.5t-38 -146.5q0 -63 18.5 -109.5t42 -73.5t77.5 -50t91 -32.5t116 -27.5q26 -6 40 -9
zM1372 617q0 -43 -9 -75t-25 -56t-47 -40t-67 -26.5t-95 -16.5t-119.5 -8t-150.5 -3q275 -119 275 -340q0 -67 -58 -91t-176 -24q-120 0 -222 16t-162.5 39t-104 46t-60.5 39l-17 16l79 47q4 -3 11.5 -9t35 -22.5t58.5 -30t83 -28.5t108 -23q76 -10 138 -10q72 0 111.5 12.5
t39.5 32.5q0 84 -57 144.5t-141 87.5t-182 27q-151 0 -260 18.5t-169.5 46.5t-94.5 73t-43.5 85.5t-9.5 96.5q0 73 28 161.5t85.5 179t133.5 165t183 121.5t223 47q101 0 203.5 -45t186 -120t149.5 -165.5t102.5 -187.5t36.5 -180z" />
    <glyph glyph-name="d" unicode="d" horiz-adv-x="1454" 
d="M747 81q78 0 143 44.5t107 117.5t69 153t40 166q-154 -72 -379 -72q-201 0 -363 58q22 -218 120.5 -342.5t262.5 -124.5zM718 1132q-153 0 -256 -88.5t-122 -267.5q171 -69 387 -69t381 55q-4 116 -60.5 201.5t-142 127t-187.5 41.5zM1414 988q0 -10 -2 -27t-15.5 -65.5
t-36 -94t-70 -101.5t-110.5 -97q-14 -345 -131 -559t-274 -214q-133 0 -241.5 101.5t-171 271t-75.5 377.5q-51 25 -95.5 56t-71 57t-45.5 49t-27 36l-7 13v221q3 -5 8 -13.5t25.5 -34.5t45.5 -50t68.5 -55.5t93.5 -56.5q8 89 38 190.5t83 181.5q54 84 142 132t189 48
q99 0 184 -48.5t142 -128t90.5 -179t37.5 -204.5q50 23 91.5 51.5t65 52.5t40.5 45t23 33z" />
    <glyph glyph-name="e" unicode="e" horiz-adv-x="1288" 
d="M1067 608q37 40 37 87q0 31 -16.5 65.5t-39.5 63t-58.5 61.5t-61.5 53.5t-61 46.5q-404 -277 -593 -634q27 -56 92.5 -96.5t152.5 -40.5q3 0 9 0.5t9 0.5q104 5 172 49t68 117q0 94 -78 139q-63 31 -135 94q-7 6 -7 17q0 30 40.5 66t70.5 38q6 0 11 -3q71 -64 157 -110.5
t152 -46.5h9q43 3 70 33zM1248 709v-14q0 -61 -47 -113q-95 -103 -266 -112q-4 0 -12.5 -0.5t-12.5 -0.5q-30 0 -68 5q12 -45 14 -87v-15q0 -67 -29.5 -132t-86.5 -122.5t-152.5 -97.5t-216.5 -50q-3 0 -8.5 -0.5t-8.5 -0.5q-63 0 -113.5 30.5t-50.5 62.5q0 57 29 173
q-86 -203 -126 -452l-50 -21q-2 40 -2 62q0 264 111.5 535.5t326.5 526.5t512 462l146 -198q-57 -32 -111 -63q207 -207 222 -378z" />
    <glyph glyph-name="f" unicode="f" horiz-adv-x="1374" 
d="M1252 1176q32 -39 53 -110t25 -122l5 -52q-3 3 -9 8.5t-31 18.5t-58 23t-92.5 18.5t-130.5 8.5q-23 0 -77 -2q-167 -9 -274.5 -45.5t-217.5 -111.5q-112 -75 -180.5 -160t-71.5 -170q0 -2 -0.5 -5.5t-0.5 -5.5q0 -60 23 -110l390 156l54 -40l-455 -250q-3 1 -9 2.5
t-23 10t-32.5 20t-34 34.5t-32 51t-23 72t-9.5 96q0 85 34.5 175.5t95.5 174t150.5 158t193 129.5t229 87.5t254.5 32.5q93 0 153.5 -21.5t100.5 -70.5z" />
    <glyph glyph-name="g" unicode="g" horiz-adv-x="1605" 
d="M957 610q308 -364 609 -457l-198 -105q-82 36 -168 103t-158 142t-149.5 173t-134 179.5t-119.5 179.5q-115 179 -144 216q-53 66 -106 76q-13 2 -28 2q-39 0 -74.5 -14.5t-61 -37.5t-46.5 -51t-34.5 -56t-23 -51t-13.5 -37l-4 -15l-63 23q2 8 5.5 22.5t18 56.5t31.5 80
t47 84.5t64 80t82.5 56.5t102.5 23q74 0 137.5 -59t138.5 -200q48 -89 132 -210l493 486l219 -220z" />
    <glyph glyph-name="h" unicode="h" horiz-adv-x="1968" 
d="M1653 386q37 -10 65 -10q79 0 79 81q0 58 -18 127t-51.5 141t-85 139t-113 119.5t-141.5 84t-166 31.5q-99 0 -192 -38q83 -89 146 -177q163 -224 217 -426zM1311 345l-603 163q5 -74 32.5 -136.5t66.5 -103.5t86.5 -70t91.5 -41.5t82 -12.5q108 0 176 53t68 148z
M861 947q-119 -124 -146 -303l525 -144q-97 181 -237 322q-51 52 -142 125zM1247 1291q102 0 206.5 -62.5t187.5 -160.5t149 -212.5t102 -226t36 -192.5q0 -108 -35 -158t-106 -52h-4q-35 0 -92 15l-282 76q-2 -32 -13.5 -71t-38 -83.5t-63 -80.5t-95 -60t-127.5 -24
q-210 0 -336.5 148t-134.5 390l-554 150l-6 142l571 -157q36 182 153 346q-49 35 -100 68.5t-77 49.5l-27 16l176 182q77 -58 180 -157q150 114 330 114z" />
    <glyph glyph-name="i" unicode="i" horiz-adv-x="1800" 
d="M1672 1046q4 -3 9.5 -9t21 -23.5t27 -35.5t21 -43.5t9.5 -49.5q0 -73 -41 -113t-117 -40q-59 0 -172 59t-265 179q-79 63 -143 96.5t-134 50.5v-905h614l-54 -102h-1407l21 102h551v933q-95 -1 -153.5 -25t-110.5 -76q-58 -58 -101.5 -161t-57.5 -177l-15 -74l-73 23
q0 11 1 29.5t12 74.5t30 109.5t60.5 123.5t97.5 126q40 40 63 60t59.5 43.5t75 33t96 16.5t136.5 7q121 0 269.5 -68.5t290.5 -185.5q164 -134 239 -134q36 0 63.5 16t41 39t22.5 46t11 39z" />
    <glyph glyph-name="j" unicode="j" horiz-adv-x="784" 
d="M40 1088q4 9 11 24.5t33.5 54.5t57.5 68.5t83 54t109 24.5q174 0 261 -92t87 -258v-880l-237 -22q16 728 16 842q0 127 -44.5 200.5t-129.5 73.5q-31 0 -62.5 -17t-53.5 -41t-39.5 -48t-25.5 -41l-9 -17z" />
    <glyph glyph-name="k" unicode="k" horiz-adv-x="1548" 
d="M558 901q-77 0 -128 -45.5t-51 -104.5q0 -145 188 -299q141 -96 300 -255q69 -69 121 -133t70 -94l17 -29l-158 -74q-9 13 -30 38t-108 109.5t-201 177.5q-152 124 -223.5 166.5t-127.5 42.5q-32 0 -61 -28t-29 -76q0 -28 6.5 -57.5t12.5 -44.5l7 -15l-69 -66
q-6 9 -15 24.5t-23.5 62t-14.5 91.5q0 104 75 183t199 80q-38 105 -38 224q0 98 67.5 186.5t175.5 99.5q-50 33 -143 78q-54 26 -112.5 45t-89.5 25l-31 6l-22 151q181 -31 336 -120.5t392 -300.5q148 -111 349 -361q89 -111 166.5 -233.5t110.5 -189.5l33 -67l-106 -80
q-18 29 -51 78.5t-136.5 191t-208.5 266.5q-291 347 -449 347z" />
    <glyph glyph-name="l" unicode="l" horiz-adv-x="2009" 
d="M1195 497q9 6 30.5 20.5t32 21.5t29 20t28.5 21t24 20t21.5 20.5t15.5 19t11 20t3 18.5q0 93 -100.5 158t-247.5 82h-27l-5 -582q59 76 185 161zM702 501q130 -80 214 -164l-19 579q-103 -7 -184 -35t-123 -65t-63 -71.5t-21 -62.5q0 -61 196 -181zM1723 792q-9 8 -27 20
t-90.5 41t-162.5 47q-38 8 -67 10q128 -71 128 -215q0 -15 -5 -30.5t-16 -31.5t-21.5 -30t-30.5 -32.5t-34 -30.5t-40 -32t-40 -30.5t-42.5 -31t-40.5 -29.5q-203 -149 -226 -331l-2 -191l-76 1l-7 217q-28 69 -92 139.5t-181 160.5q-20 15 -61 45.5t-62 46.5t-51.5 42.5
t-45.5 45t-26.5 42.5t-11.5 46q0 87 75 181q-18 -3 -33 -7q-240 -51 -298 -51q-95 0 -95 87q0 57 57 117q62 69 118 113.5t81 54.5l25 10q-68 -96 -68 -156q0 -30 22.5 -48t66.5 -18q22 0 34 2q60 8 174.5 44t173.5 43q75 33 165 54l-14 429l144 29l-3 -437q58 5 109 5
q247 0 529 -77q76 -21 154.5 -56t118.5 -60l41 -25z" />
    <glyph glyph-name="m" unicode="m" horiz-adv-x="1329" 
d="M1186 120q27 2 52.5 9t37.5 13l13 6q-35 -74 -109.5 -117.5t-153.5 -45.5h-4q-79 0 -129.5 45.5t-50.5 134.5q0 55 13 107q36 145 50.5 206t33 180.5t18.5 214.5q0 151 -68 236t-201 85q-200 0 -315 -130t-115 -342q0 -296 107 -573l-209 -102q-115 262 -115 502
q0 215 75 379t222 257.5t346 93.5q234 0 367.5 -122t133.5 -369q0 -75 -41 -249q-52 -218 -52 -316q0 -56 23.5 -80t60.5 -24q2 0 5.5 0.5t4.5 0.5z" />
    <glyph glyph-name="n" unicode="n" horiz-adv-x="1732" 
d="M1625 807q69 -160 69 -298q0 -125 -54 -211.5t-131 -86.5q-97 0 -178 16.5t-139 41t-117 70.5t-99.5 87t-98.5 108q-55 -74 -116 -129t-144 -100.5t-193 -69.5t-245 -24q-138 0 -138 298q0 138 69 298q34 78 81.5 141t90.5 98.5t82 59.5t62 32l23 8l42 -46q-5 -2 -13 -6
t-33 -21t-48.5 -39.5t-54.5 -64.5t-56 -93q-79 -161 -79 -293q0 -79 23 -125.5t69 -46.5q65 0 121 15t98 39t76.5 63t58 77t42.5 92t30 97.5t19.5 103.5t12.5 100t8 96q1 13 32 20.5t73 7.5t72 -7.5t30 -20.5q0 -146 25.5 -264t66 -192.5t93.5 -125t104.5 -71t101.5 -20.5
q55 0 95 20q57 29 57 147q0 70 -19.5 151t-47.5 137q-29 59 -65.5 109t-68 79.5t-58.5 50.5t-42 29l-16 8l45 46q11 -5 29 -14t69.5 -44t97.5 -76t99 -110t87 -147z" />
    <glyph glyph-name="o" unicode="o" horiz-adv-x="1396" 
d="M503 261q71 -13 152 -13q177 0 288 54q-121 142 -431 447q-79 -3 -142 -29t-101 -65.5t-57.5 -84.5t-19.5 -92q0 -67 87 -130t224 -87zM759 1169q-106 0 -157.5 -43.5t-51.5 -114.5q0 -58 46 -110q45 -52 129 -142t157 -176.5t166 -212.5q41 38 74.5 106t33.5 153
q0 122 -53 246.5t-146.5 209t-197.5 84.5zM1358 -149l-59 -70q-10 21 -31 59t-95.5 152.5t-161.5 225.5q-122 -94 -236.5 -127.5t-300.5 -33.5q-188 0 -310.5 109.5t-122.5 263.5q0 84 28 152.5t71 111t99 72.5t107 43t100 16q-40 65 -40 147q0 122 98 214t262 92
q94 0 185 -61.5t155 -157t103.5 -213.5t39.5 -228q0 -192 -146 -326q63 -92 126.5 -202.5t96.5 -174.5z" />
    <glyph glyph-name="p" unicode="p" horiz-adv-x="1583" 
d="M1347 407q29 55 29 123q0 89 -48.5 186.5t-127 176.5t-188 130.5t-220.5 51.5q-125 0 -234 -51.5t-179 -131.5t-110 -174.5t-40 -184.5q0 -58 19 -110q17 -46 53 -77t87.5 -46t102 -21t114.5 -6q43 0 118.5 3.5t102.5 3.5q23 0 78.5 -1.5t85.5 -1.5q133 0 224.5 26.5
t132.5 103.5zM811 1187q116 0 230.5 -55t202.5 -142.5t157 -191.5t105.5 -208t36.5 -185q0 -80 -39 -122q-61 -67 -117 -88t-171 -21q-33 0 -162 2t-231 2q-80 0 -214 -9t-190 -9q-127 0 -211.5 32.5t-139.5 121.5q-27 44 -27 118q0 84 33.5 184.5t101.5 201t158.5 183
t215.5 134.5t261 52z" />
    <glyph glyph-name="q" unicode="q" horiz-adv-x="1738" 
d="M336 1150q5 7 15 19t46 42t77.5 52.5t109 41.5t141.5 19q145 0 237 -82.5t92 -190.5q0 -95 -58 -173t-155 -149q-49 -36 -121 -88t-119.5 -86t-105 -77t-94.5 -74.5t-70 -63.5t-49 -58t-16 -46q0 -29 12.5 -42t28.5 -13q10 0 37 40t39.5 57t43 53.5t64 67t91.5 79.5
t138 111q251 195 502 195q100 0 191.5 -36.5t153 -92.5t97.5 -121.5t36 -124.5q0 -132 -102.5 -228.5t-232.5 -96.5q-48 0 -96 9t-72 17l-24 9l53 86q66 -27 116 -27q106 0 161 60t55 164t-120 185t-290 81q-106 0 -200 -47.5t-250 -183.5q-45 -39 -129 -146.5t-124 -181.5
q-36 -66 -93.5 -135t-92.5 -69q-28 0 -81.5 60t-95 129.5t-41.5 97.5q0 34 25 74.5t62 78t100.5 86.5t118 86.5t136.5 91.5q129 85 253 182q62 49 102.5 113t40.5 116q0 91 -53 147t-156 56q-53 0 -118.5 -34.5t-104.5 -68.5l-39 -34z" />
    <glyph glyph-name="r" unicode="r" horiz-adv-x="1429" 
d="M1203 1198q64 0 107 -55.5t61.5 -141t18.5 -196.5q0 -59 -20.5 -122t-50 -110t-59.5 -85.5t-50 -58.5l-21 -20l-73 25q7 8 19 21t43 53t54.5 77.5t42.5 87t19 88.5q0 16 -2.5 38.5t-12 56t-24 60.5t-41 47t-60.5 22h-3q-69 0 -278 -133v-51q0 -345 -28 -769l-172 -11
q13 302 13 507q0 149 -4 277q-189 98 -379 98q-50 0 -76.5 -29t-27.5 -76q0 -10 -1 -36.5t-1 -41.5q0 -133 50 -199q43 -57 94.5 -103.5t82.5 -64.5l30 -18l-67 -40q-6 2 -16 6t-40 21.5t-59.5 40t-69 63t-72.5 89.5q-89 132 -89 363q0 168 251 168q132 0 382 -39
q-5 115 -17 307l198 43q10 -165 14 -288q231 129 334 129z" />
    <glyph glyph-name="s" unicode="s" horiz-adv-x="1581" 
d="M1541 1192q-36 -25 -327 -228q86 -166 86 -358q0 -71 -21 -143t-47 -112q-41 -63 -115 -110t-164.5 -73.5t-168.5 -42t-166 -28t-117 -19.5q-3 -1 -17 -3.5t-20.5 -4.5t-15 -7t-11.5 -12q-4 -12 -4 -17q0 -30 32 -53t80 -23q37 0 71.5 9.5t49.5 18.5l16 10
q-2 -5 -6 -13.5t-19 -30t-33 -37.5t-49 -29.5t-66 -13.5q-87 0 -146.5 70t-59.5 161q0 39 14 78q21 58 63.5 89.5t87.5 43.5q36 9 95 20t110.5 19.5t114 23t113.5 30.5t100.5 42.5t83.5 58.5t55 79.5t21 104.5q0 100 -42 204q-257 -183 -463.5 -344t-402.5 -342l-61 53
q367 338 887 714q-71 122 -183 198.5t-240 76.5q-59 0 -111.5 -20.5t-90.5 -53.5t-69.5 -72.5t-52 -79t-34.5 -72.5t-20 -54l-6 -20l-231 -53q0 116 50.5 212.5t135 159.5t193.5 98t227 35q151 0 289.5 -78t231.5 -214q141 100 261 180z" />
    <glyph glyph-name="t" unicode="t" horiz-adv-x="1536" 
d="M1487 1083q9 -44 9 -103q0 -63 -13 -115q-20 -80 -71 -135.5t-124 -55.5q-95 0 -181 40t-180 117l-337 -547l-75 14l354 583q-32 28 -48 43q-237 -383 -358 -587q-67 -114 -67 -185q0 -41 32 -69t66 -28q79 0 129.5 53.5t50.5 132.5q0 43 -18 88q6 -7 15 -19t24.5 -48
t15.5 -71q0 -56 -26.5 -109.5t-85 -92.5t-137.5 -39q-80 0 -145.5 54t-65.5 125q0 79 22 151.5t74 168.5q93 171 335 610q-125 123 -174 161q-101 77 -198 77q-56 0 -99 -13.5t-59 -26.5l-15 -13l-96 54q3 4 8.5 11t27.5 24t48 30t71.5 24t96.5 11q55 0 86.5 -2t72 -14
t67.5 -27t77.5 -53t97.5 -79t131 -118q90 -81 131 -122q72 -72 111.5 -105.5t92 -56t114.5 -22.5q36 0 66 32.5t46.5 78.5t28 92.5t15.5 79.5l4 32z" />
    <glyph glyph-name="u" unicode="u" horiz-adv-x="1173" 
d="M846 180q81 0 126.5 77t45.5 193q0 97 -20 177q-159 3 -431 3q-188 0 -413 -3q10 -82 70 -157t143.5 -126t177 -89.5t172.5 -56.5t129 -18zM462 1164q-116 0 -201 -111.5t-104 -295.5q244 6 430 6q175 0 367 -6q-25 59 -65 129q-36 65 -71.5 112.5t-71.5 77t-67.5 48
t-71 27t-70 11t-75.5 2.5zM972 939q83 -149 122 -288.5t39 -321.5q0 -146 -54 -238t-150 -92q-43 0 -111.5 16t-151.5 47t-170 73.5t-168.5 100.5t-145.5 122t-102.5 143t-38.5 160q0 126 40 250.5t102 216.5t140.5 149t153.5 57q51 0 95 -10t94.5 -36t98 -69.5t101 -114
t106.5 -165.5z" />
    <glyph glyph-name="v" unicode="v" horiz-adv-x="1447" 
d="M857 1207q76 -18 147.5 -51t125 -71.5t100.5 -81.5t79 -82.5t55 -71.5t34 -51l10 -19l-107 -76q-9 11 -26 30.5t-68.5 71.5t-103 95t-123.5 87.5t-137 63.5q-103 30 -164 30q-91 0 -127.5 -31t-36.5 -77q0 -22 10.5 -40t34.5 -35t47.5 -30t65.5 -35t72 -40
q229 -135 362 -268q4 -4 4 -9q0 -18 -35 -55q-53 -53 -77 -53q-5 0 -7 2q-113 114 -233 191q-16 10 -45.5 28.5t-37.5 23.5q-69 36 -149 36q-87 0 -155.5 -37t-68.5 -79q0 -13 6 -24t13.5 -19t24 -18t28 -15.5t37 -17t38.5 -18.5q66 -32 108 -55.5t114.5 -77t133.5 -119.5
q-72 -88 -136 -163t-139 -154.5t-108 -114t-128 -129t-112 -111.5l-142 82q71 69 192.5 181.5t196 190t170.5 195.5q-67 65 -213 140q-121 61 -158 89q-91 70 -92 171q0 62 50.5 109t127.5 70.5t166 25.5q-135 120 -135 272q0 80 87 122t220 42h3q113 0 201 -20z" />
    <glyph glyph-name="w" unicode="w" horiz-adv-x="1996" 
d="M1073 783q4 1 15 3.5t17 3.5q-42 148 -65 294q-59 -177 -125 -339q84 23 158 38zM549 287q70 128 125 247q-81 -35 -148 -74q15 -108 23 -173zM212 381q67 59 144 112q-9 54 -46 258q-29 -170 -98 -370zM1855 120q93 -42 164.5 -84.5t96.5 -63.5l25 -22l-42 -25
q-9 7 -30 19.5t-115.5 51.5t-223.5 79q-70 22 -115.5 38.5t-107.5 45t-108.5 65.5t-77.5 83q-105 153 -180 367q-10 -3 -31 -8t-26 -6q-138 -31 -231 -60q-143 -324 -279 -520l-117 51l-56 24q-6 78 -25 204q-119 -92 -225 -223l-110 66q42 93 124.5 408.5t91.5 421.5
l170 -48q48 -195 80 -399q103 56 238 105q143 331 262 732l126 -14v-3l57 -7q6 -274 94 -587q121 8 328 8h137l-87 -86q-220 0 -348 -20q75 -228 168 -357q34 -47 133 -109.5t240 -126.5z" />
    <glyph glyph-name="x" unicode="x" horiz-adv-x="1269" 
d="M416 166q442 -20 813 -156v-142q-447 209 -1137 222l40 82q11 2 29.5 6t76 19t113 32.5t131.5 47.5t141 63t131.5 79t113 96t76 114.5t29.5 133.5q0 89 -32.5 160.5t-84.5 114.5t-112 65.5t-120 22.5q-72 0 -149.5 -17t-137.5 -41t-109 -48t-76 -41l-26 -17v0
q-10 7 -24 18t-37.5 36t-23.5 40q0 70 70.5 175.5t133.5 164.5l88 -46q-60 -64 -138 -232q283 201 489 201q78 0 152 -14.5t146.5 -50t126.5 -88t87 -135.5t33 -186q0 -78 -28 -150.5t-74 -130.5t-112.5 -112t-137 -95t-154 -78.5t-156.5 -63.5t-151 -49z" />
    <glyph glyph-name="y" unicode="y" horiz-adv-x="1923" 
d="M953 512q396 -12 614 -38q52 184 77 408q-444 -225 -691 -370zM895 1020q-47 -278 -58 -444q319 198 669 375q-127 24 -202 36t-180 22.5t-200 10.5h-29zM1883 1007q-30 -332 -116 -676q-605 62 -1006 63q-401 -258 -600 -499l-120 39q156 232 684 572l-101 6
q14 313 83 652q277 -15 533.5 -51.5t642.5 -105.5z" />
    <glyph glyph-name="z" unicode="z" horiz-adv-x="1943" 
d="M1794 1056q-266 141 -556 141q-112 0 -229 -21q130 -285 318.5 -543.5t454.5 -515.5l-97 -62q-231 203 -388.5 415t-296.5 479q-29 -116 -75 -221.5t-119.5 -219t-149.5 -213t-198 -248.5l-73 90q127 187 197.5 312.5t129.5 291.5t104 388q-317 -97 -702 -342l-73 60
q372 259 678 391t580 132q316 0 606 -182z" />
    </font>
</defs>
</svg>
